<svg xmlns="http://www.w3.org/2000/svg" xmlns:xlink="http://www.w3.org/1999/xlink" contentStyleType="text/css" data-diagram-type="DESCRIPTION" height="326px" preserveAspectRatio="none" style="width:469px;height:326px;background:#FFFFFF;" version="1.1" viewBox="0 0 469 326" width="469px" zoomAndPan="magnify"><defs/><g><!--cluster setup--><g class="cluster" data-entity="setup" data-source-line="2" data-uid="ent0003" id="cluster_setup"><rect fill="none" height="313.89" rx="2.5" ry="2.5" style="stroke:#181818;stroke-width:1;" width="305" x="158.49" y="7"/><text fill="#000000" font-family="sans-serif" font-size="14" font-weight="bold" lengthAdjust="spacing" textLength="4.874" x="308.553" y="21.9951">&#160;</text></g><!--entity application--><g class="entity" data-entity="application" data-source-line="3" data-uid="ent0004" id="entity_application"><rect fill="#F1F1F1" height="36.2969" rx="2.5" ry="2.5" style="stroke:#181818;stroke-width:0.5;" width="97.2256" x="190.88" y="163.3"/><text fill="#000000" font-family="sans-serif" font-size="14" lengthAdjust="spacing" textLength="77.2256" x="200.88" y="186.2951">application</text></g><!--entity infrastructure--><g class="entity" data-entity="infrastructure" data-source-line="4" data-uid="ent0005" id="entity_infrastructure"><rect fill="#F1F1F1" height="36.2969" rx="2.5" ry="2.5" style="stroke:#181818;stroke-width:0.5;" width="115.8672" x="323.56" y="163.3"/><text fill="#000000" font-family="sans-serif" font-size="14" lengthAdjust="spacing" textLength="95.8672" x="333.56" y="186.2951">infrastructure</text></g><!--entity domain--><g class="entity" data-entity="domain" data-source-line="5" data-uid="ent0006" id="entity_domain"><rect fill="#F1F1F1" height="36.2969" rx="2.5" ry="2.5" style="stroke:#181818;stroke-width:0.5;" width="72.4316" x="274.27" y="260.59"/><text fill="#000000" font-family="sans-serif" font-size="14" lengthAdjust="spacing" textLength="52.4316" x="284.27" y="283.5851">domain</text></g><!--entity web--><g class="entity" data-entity="web" data-source-line="6" data-uid="ent0007" id="entity_web"><rect fill="#F1F1F1" height="36.2969" rx="2.5" ry="2.5" style="stroke:#181818;stroke-width:0.5;" width="48.9502" x="260.01" y="50"/><text fill="#000000" font-family="sans-serif" font-size="14" lengthAdjust="spacing" textLength="28.9502" x="270.01" y="72.9951">web</text></g><!--entity main--><g class="entity" data-entity="main" data-source-line="1" data-uid="ent0002" id="entity_main"><rect fill="#F1F1F1" height="36.2969" rx="2.5" ry="2.5" style="stroke:#181818;stroke-width:0.5;" width="54.9795" x="7" y="50"/><text fill="#000000" font-family="sans-serif" font-size="14" lengthAdjust="spacing" textLength="34.9795" x="17" y="72.9951">main</text></g><!--link main to setup--><g class="link" data-entity-1="main" data-entity-2="setup" data-source-line="9" data-uid="lnk8" id="link_main_setup"><path d="M62.16,68.15 C80.305,68.15 104.3625,68.15 124.8025,68.15 C135.0225,68.15 144.3381,68.15 151.5581,68.15 C153.3631,68.15 155.0371,68.15 156.5616,68.15 C156.9427,68.15 157.3144,68.15 157.6766,68.15 C157.8576,68.15 158.0363,68.15 158.2125,68.15 C158.3006,68.15 152.3881,68.15 152.4749,68.15" fill="none" id="main-to-setup" style="stroke:#181818;stroke-width:1;stroke-dasharray:7.0,7.0;"/><polygon fill="#181818" points="158.4749,68.15,149.4749,64.15,153.4749,68.15,149.4749,72.15,158.4749,68.15" style="stroke:#181818;stroke-width:1;"/><text fill="#000000" font-family="sans-serif" font-size="13" lengthAdjust="spacing" textLength="68.8086" x="80.05" y="61.2169">assembles</text></g><!--link web to application--><g class="link" data-entity-1="web" data-entity-2="application" data-source-line="10" data-uid="lnk9" id="link_web_application"><path d="M277.46,86.54 C269.05,107.32 257.319,136.3474 248.869,157.2474" fill="none" id="web-to-application" style="stroke:#181818;stroke-width:1;"/><polygon fill="#181818" points="246.62,162.81,253.7018,155.9655,248.4941,158.1745,246.2851,152.9668,246.62,162.81" style="stroke:#181818;stroke-width:1;"/></g><!--link web to infrastructure--><g class="link" data-entity-1="web" data-entity-2="infrastructure" data-source-line="11" data-uid="lnk10" id="link_web_infrastructure"><path d="M299.65,86.54 C317.76,107.32 343.9685,137.3862 362.1785,158.2862" fill="none" id="web-to-infrastructure" style="stroke:#181818;stroke-width:1;"/><polygon fill="#181818" points="366.12,162.81,363.2236,153.3967,362.8354,159.0402,357.1919,158.652,366.12,162.81" style="stroke:#181818;stroke-width:1;"/><text fill="#000000" font-family="sans-serif" font-size="13" lengthAdjust="spacing" textLength="52.6855" x="339.49" y="129.3669">optional</text></g><!--link application to domain--><g class="link" data-entity-1="application" data-entity-2="domain" data-source-line="12" data-uid="lnk11" id="link_application_domain"><path d="M252.51,199.92 C265.32,217.12 281.1848,238.4089 293.9648,255.5589" fill="none" id="application-to-domain" style="stroke:#181818;stroke-width:1;"/><polygon fill="#181818" points="297.55,260.37,295.3796,250.7633,294.5624,256.3608,288.9649,255.5435,297.55,260.37" style="stroke:#181818;stroke-width:1;"/></g><!--link infrastructure to domain--><g class="link" data-entity-1="infrastructure" data-entity-2="domain" data-source-line="13" data-uid="lnk12" id="link_infrastructure_domain"><path d="M368.47,199.92 C355.66,217.12 339.7952,238.4089 327.0152,255.5589" fill="none" id="infrastructure-to-domain" style="stroke:#181818;stroke-width:1;"/><polygon fill="#181818" points="323.43,260.37,332.0151,255.5435,326.4176,256.3608,325.6004,250.7633,323.43,260.37" style="stroke:#181818;stroke-width:1;"/></g><!--SRC=[NOv13iCW30JlVeN5FNb03_cBGzqKYG0oHZrK_Nj9b3G5- -ITNQs5hL9OFEDABe3yJbENCcRMal0DMEU2b99tbjJ5q14N7a9PfLWjmXsynxsa5LyymmTW8pYAMvuwJaVj3GtbpEliEHkeHXo6gIa_jRPs2yQq6SWR-FFltkEBBdAHBm00]--></g></svg>