<?xml version="1.0" encoding="us-ascii" standalone="no"?><svg xmlns="http://www.w3.org/2000/svg" xmlns:xlink="http://www.w3.org/1999/xlink" contentStyleType="text/css" height="537px" preserveAspectRatio="none" style="width:366px;height:537px;background:#FFFFFF;" version="1.1" viewBox="0 0 366 537" width="366px" zoomAndPan="magnify"><defs/><g><text fill="#000000" font-family="sans-serif" font-size="14" lengthAdjust="spacing" textLength="4" x="17" y="39.9951">&#160;</text><path d="M19.3333,49.7135 L19.3333,56.9323 C19.3333,58.1235 19.9709,58.3813 19.9709,58.3813 L26.7224,63.689 C27.7853,64.5244 27.5,62.7656 27.5,62.7656 L27.5,56.1302 L19.3333,49.7135 " fill="#662113" style="stroke:;stroke-width:0.0;stroke-dasharray:;"/><path d="M35.6667,49.7135 L35.6667,56.9323 C35.6667,58.1235 35.0466,58.3813 35.0466,58.3813 C35.0466,58.3813 29.3492,62.8537 28.2869,63.689 C27.2235,64.5244 27.5,62.7656 27.5,62.7656 L27.5,56.1302 L35.6667,49.7135 " fill="#C1694F" style="stroke:;stroke-width:0.0;stroke-dasharray:;"/><path d="M28.2519,43.5885 C27.8127,43.2327 27.0923,43.2327 26.6524,43.5885 L19.6629,49.1471 C19.2231,49.503 19.2231,50.0845 19.6629,50.4398 L26.6763,56.0666 C27.1162,56.4219 27.8366,56.4219 28.2764,56.0666 L35.3371,50.3908 C35.7769,50.0355 35.7769,49.454 35.3371,49.0981 L28.2519,43.5885 " fill="#D99E82" style="stroke:;stroke-width:0.0;stroke-dasharray:;"/><path d="M27.5,64.151 C27.178,64.151 26.9167,63.8699 26.9167,63.5222 L26.9167,55.9815 C26.9167,55.6338 27.178,55.3526 27.5,55.3526 C27.8226,55.3526 28.0833,55.6338 28.0833,55.9815 L28.0833,63.5222 C28.0833,63.8699 27.8226,64.151 27.5,64.151 " fill="#D99E82" style="stroke:;stroke-width:0.0;stroke-dasharray:;"/><path d="M33.3333,54.2845 C33.3333,54.9285 33.394,55.2447 32.75,55.709 L31.3098,56.8045 C30.6658,57.2695 30.4167,56.8705 30.4167,56.2259 L30.4167,54.4986 C30.4167,54.386 30.4015,54.2653 30.2545,54.144 C28.7507,52.9044 22.9115,48.2663 21.8475,47.41 L24.5454,45.2645 C25.2839,45.8046 30.818,50.0781 33.1333,51.901 C33.2482,51.992 33.3333,52.0924 33.3333,52.202 L33.3333,54.2845 " fill="#99AAB5" style="stroke:;stroke-width:0.0;stroke-dasharray:;"/><path d="M33.1327,51.901 C30.818,50.0781 25.2839,45.8046 24.5454,45.2645 L23.5415,46.0625 L21.8475,47.41 C22.9121,48.2663 28.7507,52.9044 30.2545,54.144 C30.3426,54.2169 30.3811,54.2898 30.3992,54.3604 L33.2768,52.0469 C33.2417,51.9961 33.1916,51.9471 33.1327,51.901 " fill="#CCD6DD" style="stroke:;stroke-width:0.0;stroke-dasharray:;"/><path d="M33.3333,54.2845 L33.3333,52.202 C33.3333,52.0924 33.2482,51.9926 33.1327,51.901 C30.818,50.0781 25.2839,45.8046 24.5454,45.2645 L23.3362,46.2264 C25.3154,47.7833 30.6168,51.8736 32.0045,52.9773 C32.1538,53.0963 32.1667,53.2194 32.1667,53.332 L32.1667,56.153 L32.75,55.709 C33.394,55.2441 33.3333,54.9285 33.3333,54.2845 " fill="#CCD6DD" style="stroke:;stroke-width:0.0;stroke-dasharray:;"/><path d="M33.1327,51.901 C30.818,50.0781 25.2839,45.8046 24.5454,45.2645 L23.3362,46.2264 C25.3154,47.7833 30.6168,51.8736 32.0045,52.9773 C32.0261,52.9942 32.0395,53.0117 32.0553,53.0286 L33.2768,52.0469 C33.2417,51.9961 33.1916,51.9471 33.1327,51.901 " fill="#E1E8ED" style="stroke:;stroke-width:0.0;stroke-dasharray:;"/><text fill="#000000" font-family="sans-serif" font-size="14" lengthAdjust="spacing" textLength="52" x="42" y="62.7451">module</text><text fill="#000000" font-family="sans-serif" font-size="14" lengthAdjust="spacing" textLength="4" x="35" y="87.4951">&#160;</text><path d="M39,84.9635 C39,86.2521 40.0448,87.2969 41.3333,87.2969 L55.3333,87.2969 C56.6219,87.2969 57.6667,86.2521 57.6667,84.9635 L57.6667,75.0469 C57.6667,73.7583 56.6219,72.7135 55.3333,72.7135 L50.0833,72.7135 C48.0055,72.7135 48.3333,69.7969 45.1612,69.7969 L41.3333,69.7969 C40.0448,69.7969 39,70.8416 39,72.1302 L39,84.9635 " fill="#226699" style="stroke:;stroke-width:0.0;stroke-dasharray:;"/><path d="M56.5,73.8802 L52.6722,73.8802 C49.5,73.8802 49.8278,76.7969 47.75,76.7969 L42.5,76.7969 C41.2114,76.7969 40.1667,77.8416 40.1667,79.1302 L40.1667,84.9635 C40.1667,85.2861 39.9053,85.5469 39.5833,85.5469 C39.2613,85.5469 39,85.2861 39,84.9635 C39,86.2521 40.0448,87.2969 41.3333,87.2969 L56.5,87.2969 C57.7886,87.2969 58.8333,86.2521 58.8333,84.9635 L58.8333,76.2135 C58.8333,74.925 57.7886,73.8802 56.5,73.8802 " fill="#55ACEE" style="stroke:;stroke-width:0.0;stroke-dasharray:;"/><text fill="#000000" font-family="sans-serif" font-size="14" lengthAdjust="spacing" textLength="277" x="64" y="87.4951">src/main/java/&lt;module package name&gt;</text><text fill="#000000" font-family="sans-serif" font-size="14" lengthAdjust="spacing" textLength="4" x="43" y="110.2451">&#160;</text><path d="M47,107.7135 C47,109.0021 48.0448,110.0469 49.3333,110.0469 L63.3333,110.0469 C64.6219,110.0469 65.6667,109.0021 65.6667,107.7135 L65.6667,97.7969 C65.6667,96.5083 64.6219,95.4635 63.3333,95.4635 L58.0833,95.4635 C56.0055,95.4635 56.3333,92.5469 53.1612,92.5469 L49.3333,92.5469 C48.0448,92.5469 47,93.5916 47,94.8802 L47,107.7135 " fill="#226699" style="stroke:;stroke-width:0.0;stroke-dasharray:;"/><path d="M64.5,96.6302 L60.6722,96.6302 C57.5,96.6302 57.8278,99.5469 55.75,99.5469 L50.5,99.5469 C49.2114,99.5469 48.1667,100.5916 48.1667,101.8802 L48.1667,107.7135 C48.1667,108.0361 47.9053,108.2969 47.5833,108.2969 C47.2613,108.2969 47,108.0361 47,107.7135 C47,109.0021 48.0448,110.0469 49.3333,110.0469 L64.5,110.0469 C65.7886,110.0469 66.8333,109.0021 66.8333,107.7135 L66.8333,98.9635 C66.8333,97.675 65.7886,96.6302 64.5,96.6302 " fill="#55ACEE" style="stroke:;stroke-width:0.0;stroke-dasharray:;"/><text fill="#000000" font-family="sans-serif" font-size="14" lengthAdjust="spacing" textLength="42" x="72" y="110.2451">config</text><text fill="#000000" font-family="sans-serif" font-size="14" lengthAdjust="spacing" textLength="4" x="51" y="132.9951">&#160;</text><path d="M73.9088,119.1387 L68.6588,113.8887 C68.4482,113.6781 68.1559,113.5469 67.8333,113.5469 C67.1893,113.5469 66.6673,114.0695 66.6667,114.7135 C66.6667,115.0355 66.7973,115.3278 67.0085,115.539 L64.7574,117.79 L70.0074,123.04 L72.2585,120.789 C72.4697,120.9995 72.7613,121.1302 73.0833,121.1302 C73.7273,121.1302 74.2506,120.6075 74.25,119.9635 C74.25,119.6415 74.1193,119.3499 73.9088,119.1387 " fill="#E1E8ED" style="stroke:;stroke-width:0.0;stroke-dasharray:;"/><path d="M67.8333,113.5469 L59.0833,113.5469 C57.7948,113.5469 56.75,114.5916 56.75,115.8802 L56.75,132.2135 C56.75,133.5021 57.7948,134.5469 59.0833,134.5469 L71.9167,134.5469 C73.2053,134.5469 74.25,133.5021 74.25,132.2135 L74.25,119.9635 L69,119.9635 C68.4167,119.9635 67.8333,119.3802 67.8333,118.7969 L67.8333,113.5469 " fill="#CCD6DD" style="stroke:;stroke-width:0.0;stroke-dasharray:;"/><path d="M67.8333,113.5469 L66.6667,113.5469 L66.6667,118.7969 C66.6667,120.0855 67.7114,121.1302 69,121.1302 L74.25,121.1302 L74.25,119.9635 L69,119.9635 C68.4167,119.9635 67.8333,119.3802 67.8333,118.7969 L67.8333,113.5469 M64.9167,118.2135 C64.9167,118.5355 64.6553,118.7969 64.3333,118.7969 L59.6667,118.7969 C59.3447,118.7969 59.0833,118.5355 59.0833,118.2135 C59.0833,117.8915 59.3447,117.6302 59.6667,117.6302 L64.3333,117.6302 C64.6553,117.6302 64.9167,117.8915 64.9167,118.2135 M64.9167,120.5469 C64.9167,120.8689 64.6553,121.1302 64.3333,121.1302 L59.6667,121.1302 C59.3447,121.1302 59.0833,120.8689 59.0833,120.5469 C59.0833,120.2249 59.3447,119.9635 59.6667,119.9635 L64.3333,119.9635 C64.6553,119.9635 64.9167,120.2249 64.9167,120.5469 M71.9167,122.8802 C71.9167,123.2022 71.6559,123.4635 71.3333,123.4635 L59.6667,123.4635 C59.3447,123.4635 59.0833,123.2022 59.0833,122.8802 C59.0833,122.5582 59.3447,122.2969 59.6667,122.2969 L71.3333,122.2969 C71.6559,122.2969 71.9167,122.5582 71.9167,122.8802 M71.9167,125.2135 C71.9167,125.5361 71.6559,125.7969 71.3333,125.7969 L59.6667,125.7969 C59.3447,125.7969 59.0833,125.5361 59.0833,125.2135 C59.0833,124.891 59.3447,124.6302 59.6667,124.6302 L71.3333,124.6302 C71.6559,124.6302 71.9167,124.891 71.9167,125.2135 M71.9167,127.5469 C71.9167,127.8695 71.6559,128.1302 71.3333,128.1302 L59.6667,128.1302 C59.3447,128.1302 59.0833,127.8695 59.0833,127.5469 C59.0833,127.2243 59.3447,126.9635 59.6667,126.9635 L71.3333,126.9635 C71.6559,126.9635 71.9167,127.2243 71.9167,127.5469 M71.9167,129.8802 C71.9167,130.2028 71.6559,130.4635 71.3333,130.4635 L59.6667,130.4635 C59.3447,130.4635 59.0833,130.2028 59.0833,129.8802 C59.0833,129.5576 59.3447,129.2969 59.6667,129.2969 L71.3333,129.2969 C71.6559,129.2969 71.9167,129.5576 71.9167,129.8802 " fill="#99AAB5" style="stroke:;stroke-width:0.0;stroke-dasharray:;"/><text fill="#000000" font-family="sans-serif" font-size="14" lengthAdjust="spacing" textLength="99" x="80" y="132.9951">Module Config</text><text fill="#000000" font-family="sans-serif" font-size="14" lengthAdjust="spacing" textLength="4" x="51" y="155.7451">&#160;</text><path d="M73.9088,141.8887 L68.6588,136.6387 C68.4482,136.4281 68.1559,136.2969 67.8333,136.2969 C67.1893,136.2969 66.6673,136.8195 66.6667,137.4635 C66.6667,137.7855 66.7973,138.0778 67.0085,138.289 L64.7574,140.54 L70.0074,145.79 L72.2585,143.539 C72.4697,143.7495 72.7613,143.8802 73.0833,143.8802 C73.7273,143.8802 74.2506,143.3575 74.25,142.7135 C74.25,142.3915 74.1193,142.0999 73.9088,141.8887 " fill="#E1E8ED" style="stroke:;stroke-width:0.0;stroke-dasharray:;"/><path d="M67.8333,136.2969 L59.0833,136.2969 C57.7948,136.2969 56.75,137.3416 56.75,138.6302 L56.75,154.9635 C56.75,156.2521 57.7948,157.2969 59.0833,157.2969 L71.9167,157.2969 C73.2053,157.2969 74.25,156.2521 74.25,154.9635 L74.25,142.7135 L69,142.7135 C68.4167,142.7135 67.8333,142.1302 67.8333,141.5469 L67.8333,136.2969 " fill="#CCD6DD" style="stroke:;stroke-width:0.0;stroke-dasharray:;"/><path d="M67.8333,136.2969 L66.6667,136.2969 L66.6667,141.5469 C66.6667,142.8355 67.7114,143.8802 69,143.8802 L74.25,143.8802 L74.25,142.7135 L69,142.7135 C68.4167,142.7135 67.8333,142.1302 67.8333,141.5469 L67.8333,136.2969 M64.9167,140.9635 C64.9167,141.2855 64.6553,141.5469 64.3333,141.5469 L59.6667,141.5469 C59.3447,141.5469 59.0833,141.2855 59.0833,140.9635 C59.0833,140.6415 59.3447,140.3802 59.6667,140.3802 L64.3333,140.3802 C64.6553,140.3802 64.9167,140.6415 64.9167,140.9635 M64.9167,143.2969 C64.9167,143.6189 64.6553,143.8802 64.3333,143.8802 L59.6667,143.8802 C59.3447,143.8802 59.0833,143.6189 59.0833,143.2969 C59.0833,142.9749 59.3447,142.7135 59.6667,142.7135 L64.3333,142.7135 C64.6553,142.7135 64.9167,142.9749 64.9167,143.2969 M71.9167,145.6302 C71.9167,145.9522 71.6559,146.2135 71.3333,146.2135 L59.6667,146.2135 C59.3447,146.2135 59.0833,145.9522 59.0833,145.6302 C59.0833,145.3082 59.3447,145.0469 59.6667,145.0469 L71.3333,145.0469 C71.6559,145.0469 71.9167,145.3082 71.9167,145.6302 M71.9167,147.9635 C71.9167,148.2861 71.6559,148.5469 71.3333,148.5469 L59.6667,148.5469 C59.3447,148.5469 59.0833,148.2861 59.0833,147.9635 C59.0833,147.641 59.3447,147.3802 59.6667,147.3802 L71.3333,147.3802 C71.6559,147.3802 71.9167,147.641 71.9167,147.9635 M71.9167,150.2969 C71.9167,150.6195 71.6559,150.8802 71.3333,150.8802 L59.6667,150.8802 C59.3447,150.8802 59.0833,150.6195 59.0833,150.2969 C59.0833,149.9743 59.3447,149.7135 59.6667,149.7135 L71.3333,149.7135 C71.6559,149.7135 71.9167,149.9743 71.9167,150.2969 M71.9167,152.6302 C71.9167,152.9528 71.6559,153.2135 71.3333,153.2135 L59.6667,153.2135 C59.3447,153.2135 59.0833,152.9528 59.0833,152.6302 C59.0833,152.3076 59.3447,152.0469 59.6667,152.0469 L71.3333,152.0469 C71.6559,152.0469 71.9167,152.3076 71.9167,152.6302 " fill="#99AAB5" style="stroke:;stroke-width:0.0;stroke-dasharray:;"/><text fill="#000000" font-family="sans-serif" font-size="14" lengthAdjust="spacing" textLength="114" x="80" y="155.7451">Feature Config 1</text><text fill="#000000" font-family="sans-serif" font-size="14" lengthAdjust="spacing" textLength="4" x="51" y="178.4951">&#160;</text><path d="M73.9088,164.6387 L68.6588,159.3887 C68.4482,159.1781 68.1559,159.0469 67.8333,159.0469 C67.1893,159.0469 66.6673,159.5695 66.6667,160.2135 C66.6667,160.5355 66.7973,160.8278 67.0085,161.039 L64.7574,163.29 L70.0074,168.54 L72.2585,166.289 C72.4697,166.4995 72.7613,166.6302 73.0833,166.6302 C73.7273,166.6302 74.2506,166.1075 74.25,165.4635 C74.25,165.1415 74.1193,164.8499 73.9088,164.6387 " fill="#E1E8ED" style="stroke:;stroke-width:0.0;stroke-dasharray:;"/><path d="M67.8333,159.0469 L59.0833,159.0469 C57.7948,159.0469 56.75,160.0916 56.75,161.3802 L56.75,177.7135 C56.75,179.0021 57.7948,180.0469 59.0833,180.0469 L71.9167,180.0469 C73.2053,180.0469 74.25,179.0021 74.25,177.7135 L74.25,165.4635 L69,165.4635 C68.4167,165.4635 67.8333,164.8802 67.8333,164.2969 L67.8333,159.0469 " fill="#CCD6DD" style="stroke:;stroke-width:0.0;stroke-dasharray:;"/><path d="M67.8333,159.0469 L66.6667,159.0469 L66.6667,164.2969 C66.6667,165.5855 67.7114,166.6302 69,166.6302 L74.25,166.6302 L74.25,165.4635 L69,165.4635 C68.4167,165.4635 67.8333,164.8802 67.8333,164.2969 L67.8333,159.0469 M64.9167,163.7135 C64.9167,164.0355 64.6553,164.2969 64.3333,164.2969 L59.6667,164.2969 C59.3447,164.2969 59.0833,164.0355 59.0833,163.7135 C59.0833,163.3915 59.3447,163.1302 59.6667,163.1302 L64.3333,163.1302 C64.6553,163.1302 64.9167,163.3915 64.9167,163.7135 M64.9167,166.0469 C64.9167,166.3689 64.6553,166.6302 64.3333,166.6302 L59.6667,166.6302 C59.3447,166.6302 59.0833,166.3689 59.0833,166.0469 C59.0833,165.7249 59.3447,165.4635 59.6667,165.4635 L64.3333,165.4635 C64.6553,165.4635 64.9167,165.7249 64.9167,166.0469 M71.9167,168.3802 C71.9167,168.7022 71.6559,168.9635 71.3333,168.9635 L59.6667,168.9635 C59.3447,168.9635 59.0833,168.7022 59.0833,168.3802 C59.0833,168.0582 59.3447,167.7969 59.6667,167.7969 L71.3333,167.7969 C71.6559,167.7969 71.9167,168.0582 71.9167,168.3802 M71.9167,170.7135 C71.9167,171.0361 71.6559,171.2969 71.3333,171.2969 L59.6667,171.2969 C59.3447,171.2969 59.0833,171.0361 59.0833,170.7135 C59.0833,170.391 59.3447,170.1302 59.6667,170.1302 L71.3333,170.1302 C71.6559,170.1302 71.9167,170.391 71.9167,170.7135 M71.9167,173.0469 C71.9167,173.3695 71.6559,173.6302 71.3333,173.6302 L59.6667,173.6302 C59.3447,173.6302 59.0833,173.3695 59.0833,173.0469 C59.0833,172.7243 59.3447,172.4635 59.6667,172.4635 L71.3333,172.4635 C71.6559,172.4635 71.9167,172.7243 71.9167,173.0469 M71.9167,175.3802 C71.9167,175.7028 71.6559,175.9635 71.3333,175.9635 L59.6667,175.9635 C59.3447,175.9635 59.0833,175.7028 59.0833,175.3802 C59.0833,175.0576 59.3447,174.7969 59.6667,174.7969 L71.3333,174.7969 C71.6559,174.7969 71.9167,175.0576 71.9167,175.3802 " fill="#99AAB5" style="stroke:;stroke-width:0.0;stroke-dasharray:;"/><text fill="#000000" font-family="sans-serif" font-size="14" lengthAdjust="spacing" textLength="114" x="80" y="178.4951">Feature Config 2</text><text fill="#000000" font-family="sans-serif" font-size="14" lengthAdjust="spacing" textLength="20" x="55" y="194.792">. . .</text><text fill="#000000" font-family="sans-serif" font-size="14" lengthAdjust="spacing" textLength="4" x="43" y="217.542">&#160;</text><path d="M47,215.0104 C47,216.299 48.0448,217.3438 49.3333,217.3438 L63.3333,217.3438 C64.6219,217.3438 65.6667,216.299 65.6667,215.0104 L65.6667,205.0938 C65.6667,203.8052 64.6219,202.7604 63.3333,202.7604 L58.0833,202.7604 C56.0055,202.7604 56.3333,199.8438 53.1612,199.8438 L49.3333,199.8438 C48.0448,199.8438 47,200.8885 47,202.1771 L47,215.0104 " fill="#226699" style="stroke:;stroke-width:0.0;stroke-dasharray:;"/><path d="M64.5,203.9271 L60.6722,203.9271 C57.5,203.9271 57.8278,206.8438 55.75,206.8438 L50.5,206.8438 C49.2114,206.8438 48.1667,207.8885 48.1667,209.1771 L48.1667,215.0104 C48.1667,215.333 47.9053,215.5938 47.5833,215.5938 C47.2613,215.5938 47,215.333 47,215.0104 C47,216.299 48.0448,217.3438 49.3333,217.3438 L64.5,217.3438 C65.7886,217.3438 66.8333,216.299 66.8333,215.0104 L66.8333,206.2604 C66.8333,204.9718 65.7886,203.9271 64.5,203.9271 " fill="#55ACEE" style="stroke:;stroke-width:0.0;stroke-dasharray:;"/><text fill="#000000" font-family="sans-serif" font-size="14" lengthAdjust="spacing" textLength="39" x="72" y="217.542">event</text><text fill="#000000" font-family="sans-serif" font-size="14" lengthAdjust="spacing" textLength="4" x="51" y="240.292">&#160;</text><path d="M55,237.7604 C55,239.049 56.0448,240.0938 57.3333,240.0938 L71.3333,240.0938 C72.6219,240.0938 73.6667,239.049 73.6667,237.7604 L73.6667,227.8438 C73.6667,226.5552 72.6219,225.5104 71.3333,225.5104 L66.0833,225.5104 C64.0055,225.5104 64.3333,222.5938 61.1612,222.5938 L57.3333,222.5938 C56.0448,222.5938 55,223.6385 55,224.9271 L55,237.7604 " fill="#226699" style="stroke:;stroke-width:0.0;stroke-dasharray:;"/><path d="M72.5,226.6771 L68.6722,226.6771 C65.5,226.6771 65.8278,229.5938 63.75,229.5938 L58.5,229.5938 C57.2114,229.5938 56.1667,230.6385 56.1667,231.9271 L56.1667,237.7604 C56.1667,238.083 55.9053,238.3438 55.5833,238.3438 C55.2613,238.3438 55,238.083 55,237.7604 C55,239.049 56.0448,240.0938 57.3333,240.0938 L72.5,240.0938 C73.7886,240.0938 74.8333,239.049 74.8333,237.7604 L74.8333,229.0104 C74.8333,227.7218 73.7886,226.6771 72.5,226.6771 " fill="#55ACEE" style="stroke:;stroke-width:0.0;stroke-dasharray:;"/><text fill="#000000" font-family="sans-serif" font-size="14" lengthAdjust="spacing" textLength="51" x="80" y="240.292">listener</text><text fill="#000000" font-family="sans-serif" font-size="14" lengthAdjust="spacing" textLength="4" x="59" y="263.042">&#160;</text><path d="M81.9088,249.1856 L76.6588,243.9356 C76.4482,243.725 76.1559,243.5938 75.8333,243.5938 C75.1893,243.5938 74.6673,244.1164 74.6667,244.7604 C74.6667,245.0824 74.7973,245.3747 75.0085,245.5858 L72.7574,247.8369 L78.0074,253.0869 L80.2585,250.8358 C80.4697,251.0464 80.7613,251.1771 81.0833,251.1771 C81.7273,251.1771 82.2506,250.6544 82.25,250.0104 C82.25,249.6884 82.1193,249.3968 81.9088,249.1856 " fill="#E1E8ED" style="stroke:;stroke-width:0.0;stroke-dasharray:;"/><path d="M75.8333,243.5938 L67.0833,243.5938 C65.7948,243.5938 64.75,244.6385 64.75,245.9271 L64.75,262.2604 C64.75,263.549 65.7948,264.5938 67.0833,264.5938 L79.9167,264.5938 C81.2053,264.5938 82.25,263.549 82.25,262.2604 L82.25,250.0104 L77,250.0104 C76.4167,250.0104 75.8333,249.4271 75.8333,248.8438 L75.8333,243.5938 " fill="#CCD6DD" style="stroke:;stroke-width:0.0;stroke-dasharray:;"/><path d="M75.8333,243.5938 L74.6667,243.5938 L74.6667,248.8438 C74.6667,250.1323 75.7114,251.1771 77,251.1771 L82.25,251.1771 L82.25,250.0104 L77,250.0104 C76.4167,250.0104 75.8333,249.4271 75.8333,248.8438 L75.8333,243.5938 M72.9167,248.2604 C72.9167,248.5824 72.6553,248.8438 72.3333,248.8438 L67.6667,248.8438 C67.3447,248.8438 67.0833,248.5824 67.0833,248.2604 C67.0833,247.9384 67.3447,247.6771 67.6667,247.6771 L72.3333,247.6771 C72.6553,247.6771 72.9167,247.9384 72.9167,248.2604 M72.9167,250.5938 C72.9167,250.9158 72.6553,251.1771 72.3333,251.1771 L67.6667,251.1771 C67.3447,251.1771 67.0833,250.9158 67.0833,250.5938 C67.0833,250.2718 67.3447,250.0104 67.6667,250.0104 L72.3333,250.0104 C72.6553,250.0104 72.9167,250.2718 72.9167,250.5938 M79.9167,252.9271 C79.9167,253.2491 79.6559,253.5104 79.3333,253.5104 L67.6667,253.5104 C67.3447,253.5104 67.0833,253.2491 67.0833,252.9271 C67.0833,252.6051 67.3447,252.3438 67.6667,252.3438 L79.3333,252.3438 C79.6559,252.3438 79.9167,252.6051 79.9167,252.9271 M79.9167,255.2604 C79.9167,255.583 79.6559,255.8438 79.3333,255.8438 L67.6667,255.8438 C67.3447,255.8438 67.0833,255.583 67.0833,255.2604 C67.0833,254.9378 67.3447,254.6771 67.6667,254.6771 L79.3333,254.6771 C79.6559,254.6771 79.9167,254.9378 79.9167,255.2604 M79.9167,257.5938 C79.9167,257.9163 79.6559,258.1771 79.3333,258.1771 L67.6667,258.1771 C67.3447,258.1771 67.0833,257.9163 67.0833,257.5938 C67.0833,257.2712 67.3447,257.0104 67.6667,257.0104 L79.3333,257.0104 C79.6559,257.0104 79.9167,257.2712 79.9167,257.5938 M79.9167,259.9271 C79.9167,260.2497 79.6559,260.5104 79.3333,260.5104 L67.6667,260.5104 C67.3447,260.5104 67.0833,260.2497 67.0833,259.9271 C67.0833,259.6045 67.3447,259.3438 67.6667,259.3438 L79.3333,259.3438 C79.6559,259.3438 79.9167,259.6045 79.9167,259.9271 " fill="#99AAB5" style="stroke:;stroke-width:0.0;stroke-dasharray:;"/><text fill="#000000" font-family="sans-serif" font-size="14" lengthAdjust="spacing" textLength="98" x="88" y="263.042">Event Listener</text><text fill="#000000" font-family="sans-serif" font-size="14" lengthAdjust="spacing" textLength="4" x="51" y="285.792">&#160;</text><path d="M73.9088,271.9356 L68.6588,266.6856 C68.4482,266.475 68.1559,266.3438 67.8333,266.3438 C67.1893,266.3438 66.6673,266.8664 66.6667,267.5104 C66.6667,267.8324 66.7973,268.1247 67.0085,268.3358 L64.7574,270.5869 L70.0074,275.8369 L72.2585,273.5858 C72.4697,273.7964 72.7613,273.9271 73.0833,273.9271 C73.7273,273.9271 74.2506,273.4044 74.25,272.7604 C74.25,272.4384 74.1193,272.1468 73.9088,271.9356 " fill="#E1E8ED" style="stroke:;stroke-width:0.0;stroke-dasharray:;"/><path d="M67.8333,266.3438 L59.0833,266.3438 C57.7948,266.3438 56.75,267.3885 56.75,268.6771 L56.75,285.0104 C56.75,286.299 57.7948,287.3438 59.0833,287.3438 L71.9167,287.3438 C73.2053,287.3438 74.25,286.299 74.25,285.0104 L74.25,272.7604 L69,272.7604 C68.4167,272.7604 67.8333,272.1771 67.8333,271.5938 L67.8333,266.3438 " fill="#CCD6DD" style="stroke:;stroke-width:0.0;stroke-dasharray:;"/><path d="M67.8333,266.3438 L66.6667,266.3438 L66.6667,271.5938 C66.6667,272.8823 67.7114,273.9271 69,273.9271 L74.25,273.9271 L74.25,272.7604 L69,272.7604 C68.4167,272.7604 67.8333,272.1771 67.8333,271.5938 L67.8333,266.3438 M64.9167,271.0104 C64.9167,271.3324 64.6553,271.5938 64.3333,271.5938 L59.6667,271.5938 C59.3447,271.5938 59.0833,271.3324 59.0833,271.0104 C59.0833,270.6884 59.3447,270.4271 59.6667,270.4271 L64.3333,270.4271 C64.6553,270.4271 64.9167,270.6884 64.9167,271.0104 M64.9167,273.3438 C64.9167,273.6658 64.6553,273.9271 64.3333,273.9271 L59.6667,273.9271 C59.3447,273.9271 59.0833,273.6658 59.0833,273.3438 C59.0833,273.0218 59.3447,272.7604 59.6667,272.7604 L64.3333,272.7604 C64.6553,272.7604 64.9167,273.0218 64.9167,273.3438 M71.9167,275.6771 C71.9167,275.9991 71.6559,276.2604 71.3333,276.2604 L59.6667,276.2604 C59.3447,276.2604 59.0833,275.9991 59.0833,275.6771 C59.0833,275.3551 59.3447,275.0938 59.6667,275.0938 L71.3333,275.0938 C71.6559,275.0938 71.9167,275.3551 71.9167,275.6771 M71.9167,278.0104 C71.9167,278.333 71.6559,278.5938 71.3333,278.5938 L59.6667,278.5938 C59.3447,278.5938 59.0833,278.333 59.0833,278.0104 C59.0833,277.6878 59.3447,277.4271 59.6667,277.4271 L71.3333,277.4271 C71.6559,277.4271 71.9167,277.6878 71.9167,278.0104 M71.9167,280.3438 C71.9167,280.6663 71.6559,280.9271 71.3333,280.9271 L59.6667,280.9271 C59.3447,280.9271 59.0833,280.6663 59.0833,280.3438 C59.0833,280.0212 59.3447,279.7604 59.6667,279.7604 L71.3333,279.7604 C71.6559,279.7604 71.9167,280.0212 71.9167,280.3438 M71.9167,282.6771 C71.9167,282.9997 71.6559,283.2604 71.3333,283.2604 L59.6667,283.2604 C59.3447,283.2604 59.0833,282.9997 59.0833,282.6771 C59.0833,282.3545 59.3447,282.0938 59.6667,282.0938 L71.3333,282.0938 C71.6559,282.0938 71.9167,282.3545 71.9167,282.6771 " fill="#99AAB5" style="stroke:;stroke-width:0.0;stroke-dasharray:;"/><text fill="#000000" font-family="sans-serif" font-size="14" lengthAdjust="spacing" textLength="108" x="80" y="285.792">Event Definition</text><text fill="#000000" font-family="sans-serif" font-size="14" lengthAdjust="spacing" textLength="4" x="43" y="308.542">&#160;</text><path d="M47,306.0104 C47,307.299 48.0448,308.3438 49.3333,308.3438 L63.3333,308.3438 C64.6219,308.3438 65.6667,307.299 65.6667,306.0104 L65.6667,296.0938 C65.6667,294.8052 64.6219,293.7604 63.3333,293.7604 L58.0833,293.7604 C56.0055,293.7604 56.3333,290.8438 53.1612,290.8438 L49.3333,290.8438 C48.0448,290.8438 47,291.8885 47,293.1771 L47,306.0104 " fill="#226699" style="stroke:;stroke-width:0.0;stroke-dasharray:;"/><path d="M64.5,294.9271 L60.6722,294.9271 C57.5,294.9271 57.8278,297.8438 55.75,297.8438 L50.5,297.8438 C49.2114,297.8438 48.1667,298.8885 48.1667,300.1771 L48.1667,306.0104 C48.1667,306.333 47.9053,306.5938 47.5833,306.5938 C47.2613,306.5938 47,306.333 47,306.0104 C47,307.299 48.0448,308.3438 49.3333,308.3438 L64.5,308.3438 C65.7886,308.3438 66.8333,307.299 66.8333,306.0104 L66.8333,297.2604 C66.8333,295.9718 65.7886,294.9271 64.5,294.9271 " fill="#55ACEE" style="stroke:;stroke-width:0.0;stroke-dasharray:;"/><text fill="#000000" font-family="sans-serif" font-size="14" lengthAdjust="spacing" textLength="76" x="72" y="308.542">&lt;context&gt;</text><text fill="#000000" font-family="sans-serif" font-size="14" lengthAdjust="spacing" textLength="4" x="51" y="331.292">&#160;</text><path d="M55,328.7604 C55,330.049 56.0448,331.0938 57.3333,331.0938 L71.3333,331.0938 C72.6219,331.0938 73.6667,330.049 73.6667,328.7604 L73.6667,318.8438 C73.6667,317.5552 72.6219,316.5104 71.3333,316.5104 L66.0833,316.5104 C64.0055,316.5104 64.3333,313.5938 61.1612,313.5938 L57.3333,313.5938 C56.0448,313.5938 55,314.6385 55,315.9271 L55,328.7604 " fill="#226699" style="stroke:;stroke-width:0.0;stroke-dasharray:;"/><path d="M72.5,317.6771 L68.6722,317.6771 C65.5,317.6771 65.8278,320.5938 63.75,320.5938 L58.5,320.5938 C57.2114,320.5938 56.1667,321.6385 56.1667,322.9271 L56.1667,328.7604 C56.1667,329.083 55.9053,329.3438 55.5833,329.3438 C55.2613,329.3438 55,329.083 55,328.7604 C55,330.049 56.0448,331.0938 57.3333,331.0938 L72.5,331.0938 C73.7886,331.0938 74.8333,330.049 74.8333,328.7604 L74.8333,320.0104 C74.8333,318.7218 73.7886,317.6771 72.5,317.6771 " fill="#55ACEE" style="stroke:;stroke-width:0.0;stroke-dasharray:;"/><text fill="#000000" font-family="sans-serif" font-size="14" lengthAdjust="spacing" textLength="42" x="80" y="331.292">config</text><text fill="#000000" font-family="sans-serif" font-size="14" lengthAdjust="spacing" textLength="4" x="51" y="354.042">&#160;</text><path d="M55,351.5104 C55,352.799 56.0448,353.8438 57.3333,353.8438 L71.3333,353.8438 C72.6219,353.8438 73.6667,352.799 73.6667,351.5104 L73.6667,341.5938 C73.6667,340.3052 72.6219,339.2604 71.3333,339.2604 L66.0833,339.2604 C64.0055,339.2604 64.3333,336.3438 61.1612,336.3438 L57.3333,336.3438 C56.0448,336.3438 55,337.3885 55,338.6771 L55,351.5104 " fill="#226699" style="stroke:;stroke-width:0.0;stroke-dasharray:;"/><path d="M72.5,340.4271 L68.6722,340.4271 C65.5,340.4271 65.8278,343.3438 63.75,343.3438 L58.5,343.3438 C57.2114,343.3438 56.1667,344.3885 56.1667,345.6771 L56.1667,351.5104 C56.1667,351.833 55.9053,352.0938 55.5833,352.0938 C55.2613,352.0938 55,351.833 55,351.5104 C55,352.799 56.0448,353.8438 57.3333,353.8438 L72.5,353.8438 C73.7886,353.8438 74.8333,352.799 74.8333,351.5104 L74.8333,342.7604 C74.8333,341.4718 73.7886,340.4271 72.5,340.4271 " fill="#55ACEE" style="stroke:;stroke-width:0.0;stroke-dasharray:;"/><text fill="#000000" font-family="sans-serif" font-size="14" lengthAdjust="spacing" textLength="39" x="80" y="354.042">event</text><text fill="#000000" font-family="sans-serif" font-size="14" lengthAdjust="spacing" textLength="4" x="51" y="376.792">&#160;</text><path d="M55,374.2604 C55,375.549 56.0448,376.5938 57.3333,376.5938 L71.3333,376.5938 C72.6219,376.5938 73.6667,375.549 73.6667,374.2604 L73.6667,364.3438 C73.6667,363.0552 72.6219,362.0104 71.3333,362.0104 L66.0833,362.0104 C64.0055,362.0104 64.3333,359.0938 61.1612,359.0938 L57.3333,359.0938 C56.0448,359.0938 55,360.1385 55,361.4271 L55,374.2604 " fill="#226699" style="stroke:;stroke-width:0.0;stroke-dasharray:;"/><path d="M72.5,363.1771 L68.6722,363.1771 C65.5,363.1771 65.8278,366.0938 63.75,366.0938 L58.5,366.0938 C57.2114,366.0938 56.1667,367.1385 56.1667,368.4271 L56.1667,374.2604 C56.1667,374.583 55.9053,374.8438 55.5833,374.8438 C55.2613,374.8438 55,374.583 55,374.2604 C55,375.549 56.0448,376.5938 57.3333,376.5938 L72.5,376.5938 C73.7886,376.5938 74.8333,375.549 74.8333,374.2604 L74.8333,365.5104 C74.8333,364.2218 73.7886,363.1771 72.5,363.1771 " fill="#55ACEE" style="stroke:;stroke-width:0.0;stroke-dasharray:;"/><text fill="#000000" font-family="sans-serif" font-size="14" lengthAdjust="spacing" textLength="28" x="80" y="376.792">impl</text><text fill="#000000" font-family="sans-serif" font-size="14" lengthAdjust="spacing" textLength="4" x="59" y="399.542">&#160;</text><path d="M81.9088,385.6856 L76.6588,380.4356 C76.4482,380.225 76.1559,380.0938 75.8333,380.0938 C75.1893,380.0938 74.6673,380.6164 74.6667,381.2604 C74.6667,381.5824 74.7973,381.8747 75.0085,382.0858 L72.7574,384.3369 L78.0074,389.5869 L80.2585,387.3358 C80.4697,387.5464 80.7613,387.6771 81.0833,387.6771 C81.7273,387.6771 82.2506,387.1544 82.25,386.5104 C82.25,386.1884 82.1193,385.8968 81.9088,385.6856 " fill="#E1E8ED" style="stroke:;stroke-width:0.0;stroke-dasharray:;"/><path d="M75.8333,380.0938 L67.0833,380.0938 C65.7948,380.0938 64.75,381.1385 64.75,382.4271 L64.75,398.7604 C64.75,400.049 65.7948,401.0938 67.0833,401.0938 L79.9167,401.0938 C81.2053,401.0938 82.25,400.049 82.25,398.7604 L82.25,386.5104 L77,386.5104 C76.4167,386.5104 75.8333,385.9271 75.8333,385.3438 L75.8333,380.0938 " fill="#CCD6DD" style="stroke:;stroke-width:0.0;stroke-dasharray:;"/><path d="M75.8333,380.0938 L74.6667,380.0938 L74.6667,385.3438 C74.6667,386.6323 75.7114,387.6771 77,387.6771 L82.25,387.6771 L82.25,386.5104 L77,386.5104 C76.4167,386.5104 75.8333,385.9271 75.8333,385.3438 L75.8333,380.0938 M72.9167,384.7604 C72.9167,385.0824 72.6553,385.3438 72.3333,385.3438 L67.6667,385.3438 C67.3447,385.3438 67.0833,385.0824 67.0833,384.7604 C67.0833,384.4384 67.3447,384.1771 67.6667,384.1771 L72.3333,384.1771 C72.6553,384.1771 72.9167,384.4384 72.9167,384.7604 M72.9167,387.0938 C72.9167,387.4158 72.6553,387.6771 72.3333,387.6771 L67.6667,387.6771 C67.3447,387.6771 67.0833,387.4158 67.0833,387.0938 C67.0833,386.7718 67.3447,386.5104 67.6667,386.5104 L72.3333,386.5104 C72.6553,386.5104 72.9167,386.7718 72.9167,387.0938 M79.9167,389.4271 C79.9167,389.7491 79.6559,390.0104 79.3333,390.0104 L67.6667,390.0104 C67.3447,390.0104 67.0833,389.7491 67.0833,389.4271 C67.0833,389.1051 67.3447,388.8438 67.6667,388.8438 L79.3333,388.8438 C79.6559,388.8438 79.9167,389.1051 79.9167,389.4271 M79.9167,391.7604 C79.9167,392.083 79.6559,392.3438 79.3333,392.3438 L67.6667,392.3438 C67.3447,392.3438 67.0833,392.083 67.0833,391.7604 C67.0833,391.4378 67.3447,391.1771 67.6667,391.1771 L79.3333,391.1771 C79.6559,391.1771 79.9167,391.4378 79.9167,391.7604 M79.9167,394.0938 C79.9167,394.4163 79.6559,394.6771 79.3333,394.6771 L67.6667,394.6771 C67.3447,394.6771 67.0833,394.4163 67.0833,394.0938 C67.0833,393.7712 67.3447,393.5104 67.6667,393.5104 L79.3333,393.5104 C79.6559,393.5104 79.9167,393.7712 79.9167,394.0938 M79.9167,396.4271 C79.9167,396.7497 79.6559,397.0104 79.3333,397.0104 L67.6667,397.0104 C67.3447,397.0104 67.0833,396.7497 67.0833,396.4271 C67.0833,396.1045 67.3447,395.8438 67.6667,395.8438 L79.3333,395.8438 C79.6559,395.8438 79.9167,396.1045 79.9167,396.4271 " fill="#99AAB5" style="stroke:;stroke-width:0.0;stroke-dasharray:;"/><text fill="#000000" font-family="sans-serif" font-size="14" lengthAdjust="spacing" textLength="99" x="88" y="399.542">Input Port Impl</text><text fill="#000000" font-family="sans-serif" font-size="14" lengthAdjust="spacing" textLength="4" x="51" y="422.292">&#160;</text><path d="M55,419.7604 C55,421.049 56.0448,422.0938 57.3333,422.0938 L71.3333,422.0938 C72.6219,422.0938 73.6667,421.049 73.6667,419.7604 L73.6667,409.8438 C73.6667,408.5552 72.6219,407.5104 71.3333,407.5104 L66.0833,407.5104 C64.0055,407.5104 64.3333,404.5938 61.1612,404.5938 L57.3333,404.5938 C56.0448,404.5938 55,405.6385 55,406.9271 L55,419.7604 " fill="#226699" style="stroke:;stroke-width:0.0;stroke-dasharray:;"/><path d="M72.5,408.6771 L68.6722,408.6771 C65.5,408.6771 65.8278,411.5938 63.75,411.5938 L58.5,411.5938 C57.2114,411.5938 56.1667,412.6385 56.1667,413.9271 L56.1667,419.7604 C56.1667,420.083 55.9053,420.3438 55.5833,420.3438 C55.2613,420.3438 55,420.083 55,419.7604 C55,421.049 56.0448,422.0938 57.3333,422.0938 L72.5,422.0938 C73.7886,422.0938 74.8333,421.049 74.8333,419.7604 L74.8333,411.0104 C74.8333,409.7218 73.7886,408.6771 72.5,408.6771 " fill="#55ACEE" style="stroke:;stroke-width:0.0;stroke-dasharray:;"/><text fill="#000000" font-family="sans-serif" font-size="14" lengthAdjust="spacing" textLength="20" x="80" y="422.292">spi</text><text fill="#000000" font-family="sans-serif" font-size="14" lengthAdjust="spacing" textLength="4" x="59" y="445.042">&#160;</text><path d="M81.9088,431.1856 L76.6588,425.9356 C76.4482,425.725 76.1559,425.5938 75.8333,425.5938 C75.1893,425.5938 74.6673,426.1164 74.6667,426.7604 C74.6667,427.0824 74.7973,427.3747 75.0085,427.5858 L72.7574,429.8369 L78.0074,435.0869 L80.2585,432.8358 C80.4697,433.0464 80.7613,433.1771 81.0833,433.1771 C81.7273,433.1771 82.2506,432.6544 82.25,432.0104 C82.25,431.6884 82.1193,431.3968 81.9088,431.1856 " fill="#E1E8ED" style="stroke:;stroke-width:0.0;stroke-dasharray:;"/><path d="M75.8333,425.5938 L67.0833,425.5938 C65.7948,425.5938 64.75,426.6385 64.75,427.9271 L64.75,444.2604 C64.75,445.549 65.7948,446.5938 67.0833,446.5938 L79.9167,446.5938 C81.2053,446.5938 82.25,445.549 82.25,444.2604 L82.25,432.0104 L77,432.0104 C76.4167,432.0104 75.8333,431.4271 75.8333,430.8438 L75.8333,425.5938 " fill="#CCD6DD" style="stroke:;stroke-width:0.0;stroke-dasharray:;"/><path d="M75.8333,425.5938 L74.6667,425.5938 L74.6667,430.8438 C74.6667,432.1323 75.7114,433.1771 77,433.1771 L82.25,433.1771 L82.25,432.0104 L77,432.0104 C76.4167,432.0104 75.8333,431.4271 75.8333,430.8438 L75.8333,425.5938 M72.9167,430.2604 C72.9167,430.5824 72.6553,430.8438 72.3333,430.8438 L67.6667,430.8438 C67.3447,430.8438 67.0833,430.5824 67.0833,430.2604 C67.0833,429.9384 67.3447,429.6771 67.6667,429.6771 L72.3333,429.6771 C72.6553,429.6771 72.9167,429.9384 72.9167,430.2604 M72.9167,432.5938 C72.9167,432.9158 72.6553,433.1771 72.3333,433.1771 L67.6667,433.1771 C67.3447,433.1771 67.0833,432.9158 67.0833,432.5938 C67.0833,432.2718 67.3447,432.0104 67.6667,432.0104 L72.3333,432.0104 C72.6553,432.0104 72.9167,432.2718 72.9167,432.5938 M79.9167,434.9271 C79.9167,435.2491 79.6559,435.5104 79.3333,435.5104 L67.6667,435.5104 C67.3447,435.5104 67.0833,435.2491 67.0833,434.9271 C67.0833,434.6051 67.3447,434.3438 67.6667,434.3438 L79.3333,434.3438 C79.6559,434.3438 79.9167,434.6051 79.9167,434.9271 M79.9167,437.2604 C79.9167,437.583 79.6559,437.8438 79.3333,437.8438 L67.6667,437.8438 C67.3447,437.8438 67.0833,437.583 67.0833,437.2604 C67.0833,436.9378 67.3447,436.6771 67.6667,436.6771 L79.3333,436.6771 C79.6559,436.6771 79.9167,436.9378 79.9167,437.2604 M79.9167,439.5938 C79.9167,439.9163 79.6559,440.1771 79.3333,440.1771 L67.6667,440.1771 C67.3447,440.1771 67.0833,439.9163 67.0833,439.5938 C67.0833,439.2712 67.3447,439.0104 67.6667,439.0104 L79.3333,439.0104 C79.6559,439.0104 79.9167,439.2712 79.9167,439.5938 M79.9167,441.9271 C79.9167,442.2497 79.6559,442.5104 79.3333,442.5104 L67.6667,442.5104 C67.3447,442.5104 67.0833,442.2497 67.0833,441.9271 C67.0833,441.6045 67.3447,441.3438 67.6667,441.3438 L79.3333,441.3438 C79.6559,441.3438 79.9167,441.6045 79.9167,441.9271 " fill="#99AAB5" style="stroke:;stroke-width:0.0;stroke-dasharray:;"/><text fill="#000000" font-family="sans-serif" font-size="14" lengthAdjust="spacing" textLength="144" x="88" y="445.042">Output Port Interface</text><text fill="#000000" font-family="sans-serif" font-size="14" lengthAdjust="spacing" textLength="4" x="51" y="467.792">&#160;</text><path d="M73.9088,453.9356 L68.6588,448.6856 C68.4482,448.475 68.1559,448.3438 67.8333,448.3438 C67.1893,448.3438 66.6673,448.8664 66.6667,449.5104 C66.6667,449.8324 66.7973,450.1247 67.0085,450.3358 L64.7574,452.5869 L70.0074,457.8369 L72.2585,455.5858 C72.4697,455.7964 72.7613,455.9271 73.0833,455.9271 C73.7273,455.9271 74.2506,455.4044 74.25,454.7604 C74.25,454.4384 74.1193,454.1468 73.9088,453.9356 " fill="#E1E8ED" style="stroke:;stroke-width:0.0;stroke-dasharray:;"/><path d="M67.8333,448.3438 L59.0833,448.3438 C57.7948,448.3438 56.75,449.3885 56.75,450.6771 L56.75,467.0104 C56.75,468.299 57.7948,469.3438 59.0833,469.3438 L71.9167,469.3438 C73.2053,469.3438 74.25,468.299 74.25,467.0104 L74.25,454.7604 L69,454.7604 C68.4167,454.7604 67.8333,454.1771 67.8333,453.5938 L67.8333,448.3438 " fill="#CCD6DD" style="stroke:;stroke-width:0.0;stroke-dasharray:;"/><path d="M67.8333,448.3438 L66.6667,448.3438 L66.6667,453.5938 C66.6667,454.8823 67.7114,455.9271 69,455.9271 L74.25,455.9271 L74.25,454.7604 L69,454.7604 C68.4167,454.7604 67.8333,454.1771 67.8333,453.5938 L67.8333,448.3438 M64.9167,453.0104 C64.9167,453.3324 64.6553,453.5938 64.3333,453.5938 L59.6667,453.5938 C59.3447,453.5938 59.0833,453.3324 59.0833,453.0104 C59.0833,452.6884 59.3447,452.4271 59.6667,452.4271 L64.3333,452.4271 C64.6553,452.4271 64.9167,452.6884 64.9167,453.0104 M64.9167,455.3438 C64.9167,455.6658 64.6553,455.9271 64.3333,455.9271 L59.6667,455.9271 C59.3447,455.9271 59.0833,455.6658 59.0833,455.3438 C59.0833,455.0218 59.3447,454.7604 59.6667,454.7604 L64.3333,454.7604 C64.6553,454.7604 64.9167,455.0218 64.9167,455.3438 M71.9167,457.6771 C71.9167,457.9991 71.6559,458.2604 71.3333,458.2604 L59.6667,458.2604 C59.3447,458.2604 59.0833,457.9991 59.0833,457.6771 C59.0833,457.3551 59.3447,457.0938 59.6667,457.0938 L71.3333,457.0938 C71.6559,457.0938 71.9167,457.3551 71.9167,457.6771 M71.9167,460.0104 C71.9167,460.333 71.6559,460.5938 71.3333,460.5938 L59.6667,460.5938 C59.3447,460.5938 59.0833,460.333 59.0833,460.0104 C59.0833,459.6878 59.3447,459.4271 59.6667,459.4271 L71.3333,459.4271 C71.6559,459.4271 71.9167,459.6878 71.9167,460.0104 M71.9167,462.3438 C71.9167,462.6663 71.6559,462.9271 71.3333,462.9271 L59.6667,462.9271 C59.3447,462.9271 59.0833,462.6663 59.0833,462.3438 C59.0833,462.0212 59.3447,461.7604 59.6667,461.7604 L71.3333,461.7604 C71.6559,461.7604 71.9167,462.0212 71.9167,462.3438 M71.9167,464.6771 C71.9167,464.9997 71.6559,465.2604 71.3333,465.2604 L59.6667,465.2604 C59.3447,465.2604 59.0833,464.9997 59.0833,464.6771 C59.0833,464.3545 59.3447,464.0938 59.6667,464.0938 L71.3333,464.0938 C71.6559,464.0938 71.9167,464.3545 71.9167,464.6771 " fill="#99AAB5" style="stroke:;stroke-width:0.0;stroke-dasharray:;"/><text fill="#000000" font-family="sans-serif" font-size="14" lengthAdjust="spacing" textLength="131" x="76" y="467.792">Input Port Interface</text><text fill="#000000" font-family="sans-serif" font-size="14" lengthAdjust="spacing" textLength="4" x="43" y="490.542">&#160;</text><path d="M65.9088,476.6856 L60.6588,471.4356 C60.4482,471.225 60.1559,471.0938 59.8333,471.0938 C59.1893,471.0938 58.6673,471.6164 58.6667,472.2604 C58.6667,472.5824 58.7973,472.8747 59.0085,473.0858 L56.7574,475.3369 L62.0074,480.5869 L64.2585,478.3358 C64.4697,478.5464 64.7613,478.6771 65.0833,478.6771 C65.7273,478.6771 66.2506,478.1544 66.25,477.5104 C66.25,477.1884 66.1193,476.8968 65.9088,476.6856 " fill="#E1E8ED" style="stroke:;stroke-width:0.0;stroke-dasharray:;"/><path d="M59.8333,471.0938 L51.0833,471.0938 C49.7948,471.0938 48.75,472.1385 48.75,473.4271 L48.75,489.7604 C48.75,491.049 49.7948,492.0938 51.0833,492.0938 L63.9167,492.0938 C65.2053,492.0938 66.25,491.049 66.25,489.7604 L66.25,477.5104 L61,477.5104 C60.4167,477.5104 59.8333,476.9271 59.8333,476.3438 L59.8333,471.0938 " fill="#CCD6DD" style="stroke:;stroke-width:0.0;stroke-dasharray:;"/><path d="M59.8333,471.0938 L58.6667,471.0938 L58.6667,476.3438 C58.6667,477.6323 59.7114,478.6771 61,478.6771 L66.25,478.6771 L66.25,477.5104 L61,477.5104 C60.4167,477.5104 59.8333,476.9271 59.8333,476.3438 L59.8333,471.0938 M56.9167,475.7604 C56.9167,476.0824 56.6553,476.3438 56.3333,476.3438 L51.6667,476.3438 C51.3447,476.3438 51.0833,476.0824 51.0833,475.7604 C51.0833,475.4384 51.3447,475.1771 51.6667,475.1771 L56.3333,475.1771 C56.6553,475.1771 56.9167,475.4384 56.9167,475.7604 M56.9167,478.0938 C56.9167,478.4158 56.6553,478.6771 56.3333,478.6771 L51.6667,478.6771 C51.3447,478.6771 51.0833,478.4158 51.0833,478.0938 C51.0833,477.7718 51.3447,477.5104 51.6667,477.5104 L56.3333,477.5104 C56.6553,477.5104 56.9167,477.7718 56.9167,478.0938 M63.9167,480.4271 C63.9167,480.7491 63.6559,481.0104 63.3333,481.0104 L51.6667,481.0104 C51.3447,481.0104 51.0833,480.7491 51.0833,480.4271 C51.0833,480.1051 51.3447,479.8438 51.6667,479.8438 L63.3333,479.8438 C63.6559,479.8438 63.9167,480.1051 63.9167,480.4271 M63.9167,482.7604 C63.9167,483.083 63.6559,483.3438 63.3333,483.3438 L51.6667,483.3438 C51.3447,483.3438 51.0833,483.083 51.0833,482.7604 C51.0833,482.4378 51.3447,482.1771 51.6667,482.1771 L63.3333,482.1771 C63.6559,482.1771 63.9167,482.4378 63.9167,482.7604 M63.9167,485.0938 C63.9167,485.4163 63.6559,485.6771 63.3333,485.6771 L51.6667,485.6771 C51.3447,485.6771 51.0833,485.4163 51.0833,485.0938 C51.0833,484.7712 51.3447,484.5104 51.6667,484.5104 L63.3333,484.5104 C63.6559,484.5104 63.9167,484.7712 63.9167,485.0938 M63.9167,487.4271 C63.9167,487.7497 63.6559,488.0104 63.3333,488.0104 L51.6667,488.0104 C51.3447,488.0104 51.0833,487.7497 51.0833,487.4271 C51.0833,487.1045 51.3447,486.8438 51.6667,486.8438 L63.3333,486.8438 C63.6559,486.8438 63.9167,487.1045 63.9167,487.4271 " fill="#99AAB5" style="stroke:;stroke-width:0.0;stroke-dasharray:;"/><text fill="#000000" font-family="sans-serif" font-size="14" lengthAdjust="spacing" textLength="229" x="72" y="490.542">Module Package Marker Interface</text><rect fill="none" height="2" style="stroke:#000000;stroke-width:1.0;" width="2" x="32" y="78.4219"/><line style="stroke:#000000;stroke-width:1.0;" x1="25" x2="33" y1="79.4219" y2="79.4219"/><line style="stroke:#000000;stroke-width:1.0;" x1="25" x2="25" y1="68.0469" y2="79.4219"/><rect fill="none" height="2" style="stroke:#000000;stroke-width:1.0;" width="2" x="40" y="101.1719"/><line style="stroke:#000000;stroke-width:1.0;" x1="33" x2="41" y1="102.1719" y2="102.1719"/><line style="stroke:#000000;stroke-width:1.0;" x1="33" x2="33" y1="79.4219" y2="102.1719"/><rect fill="none" height="2" style="stroke:#000000;stroke-width:1.0;" width="2" x="48" y="123.9219"/><line style="stroke:#000000;stroke-width:1.0;" x1="41" x2="49" y1="124.9219" y2="124.9219"/><line style="stroke:#000000;stroke-width:1.0;" x1="41" x2="41" y1="102.1719" y2="124.9219"/><rect fill="none" height="2" style="stroke:#000000;stroke-width:1.0;" width="2" x="48" y="146.6719"/><line style="stroke:#000000;stroke-width:1.0;" x1="41" x2="49" y1="147.6719" y2="147.6719"/><line style="stroke:#000000;stroke-width:1.0;" x1="41" x2="41" y1="124.9219" y2="147.6719"/><rect fill="none" height="2" style="stroke:#000000;stroke-width:1.0;" width="2" x="48" y="169.4219"/><line style="stroke:#000000;stroke-width:1.0;" x1="41" x2="49" y1="170.4219" y2="170.4219"/><line style="stroke:#000000;stroke-width:1.0;" x1="41" x2="41" y1="147.6719" y2="170.4219"/><rect fill="none" height="2" style="stroke:#000000;stroke-width:1.0;" width="2" x="48" y="188.9453"/><line style="stroke:#000000;stroke-width:1.0;" x1="41" x2="49" y1="189.9453" y2="189.9453"/><line style="stroke:#000000;stroke-width:1.0;" x1="41" x2="41" y1="170.4219" y2="189.9453"/><rect fill="none" height="2" style="stroke:#000000;stroke-width:1.0;" width="2" x="40" y="208.4688"/><line style="stroke:#000000;stroke-width:1.0;" x1="33" x2="41" y1="209.4688" y2="209.4688"/><line style="stroke:#000000;stroke-width:1.0;" x1="33" x2="33" y1="102.1719" y2="209.4688"/><rect fill="none" height="2" style="stroke:#000000;stroke-width:1.0;" width="2" x="48" y="231.2188"/><line style="stroke:#000000;stroke-width:1.0;" x1="41" x2="49" y1="232.2188" y2="232.2188"/><line style="stroke:#000000;stroke-width:1.0;" x1="41" x2="41" y1="209.4688" y2="232.2188"/><rect fill="none" height="2" style="stroke:#000000;stroke-width:1.0;" width="2" x="56" y="253.9688"/><line style="stroke:#000000;stroke-width:1.0;" x1="49" x2="57" y1="254.9688" y2="254.9688"/><line style="stroke:#000000;stroke-width:1.0;" x1="49" x2="49" y1="232.2188" y2="254.9688"/><rect fill="none" height="2" style="stroke:#000000;stroke-width:1.0;" width="2" x="48" y="276.7188"/><line style="stroke:#000000;stroke-width:1.0;" x1="41" x2="49" y1="277.7188" y2="277.7188"/><line style="stroke:#000000;stroke-width:1.0;" x1="41" x2="41" y1="232.2188" y2="277.7188"/><rect fill="none" height="2" style="stroke:#000000;stroke-width:1.0;" width="2" x="40" y="299.4688"/><line style="stroke:#000000;stroke-width:1.0;" x1="33" x2="41" y1="300.4688" y2="300.4688"/><line style="stroke:#000000;stroke-width:1.0;" x1="33" x2="33" y1="209.4688" y2="300.4688"/><rect fill="none" height="2" style="stroke:#000000;stroke-width:1.0;" width="2" x="48" y="322.2188"/><line style="stroke:#000000;stroke-width:1.0;" x1="41" x2="49" y1="323.2188" y2="323.2188"/><line style="stroke:#000000;stroke-width:1.0;" x1="41" x2="41" y1="300.4688" y2="323.2188"/><rect fill="none" height="2" style="stroke:#000000;stroke-width:1.0;" width="2" x="48" y="344.9688"/><line style="stroke:#000000;stroke-width:1.0;" x1="41" x2="49" y1="345.9688" y2="345.9688"/><line style="stroke:#000000;stroke-width:1.0;" x1="41" x2="41" y1="323.2188" y2="345.9688"/><rect fill="none" height="2" style="stroke:#000000;stroke-width:1.0;" width="2" x="48" y="367.7188"/><line style="stroke:#000000;stroke-width:1.0;" x1="41" x2="49" y1="368.7188" y2="368.7188"/><line style="stroke:#000000;stroke-width:1.0;" x1="41" x2="41" y1="345.9688" y2="368.7188"/><rect fill="none" height="2" style="stroke:#000000;stroke-width:1.0;" width="2" x="56" y="390.4688"/><line style="stroke:#000000;stroke-width:1.0;" x1="49" x2="57" y1="391.4688" y2="391.4688"/><line style="stroke:#000000;stroke-width:1.0;" x1="49" x2="49" y1="368.7188" y2="391.4688"/><rect fill="none" height="2" style="stroke:#000000;stroke-width:1.0;" width="2" x="48" y="413.2188"/><line style="stroke:#000000;stroke-width:1.0;" x1="41" x2="49" y1="414.2188" y2="414.2188"/><line style="stroke:#000000;stroke-width:1.0;" x1="41" x2="41" y1="368.7188" y2="414.2188"/><rect fill="none" height="2" style="stroke:#000000;stroke-width:1.0;" width="2" x="56" y="435.9688"/><line style="stroke:#000000;stroke-width:1.0;" x1="49" x2="57" y1="436.9688" y2="436.9688"/><line style="stroke:#000000;stroke-width:1.0;" x1="49" x2="49" y1="414.2188" y2="436.9688"/><rect fill="none" height="2" style="stroke:#000000;stroke-width:1.0;" width="2" x="48" y="458.7188"/><line style="stroke:#000000;stroke-width:1.0;" x1="41" x2="49" y1="459.7188" y2="459.7188"/><line style="stroke:#000000;stroke-width:1.0;" x1="41" x2="41" y1="414.2188" y2="459.7188"/><rect fill="none" height="2" style="stroke:#000000;stroke-width:1.0;" width="2" x="40" y="481.4688"/><line style="stroke:#000000;stroke-width:1.0;" x1="33" x2="41" y1="482.4688" y2="482.4688"/><line style="stroke:#000000;stroke-width:1.0;" x1="33" x2="33" y1="300.4688" y2="482.4688"/><text fill="#000000" font-family="sans-serif" font-size="14" lengthAdjust="spacing" textLength="4" x="17" y="508.8389">&#160;</text><!--SRC=[bPDDRzim38RFrQ_WiJqigOCM28mW69grHGCR2xgarq2nQK-BJ1cq56pOzjz7vsDDjoHjOHzil0zVaHJPB0tLcdK52PP8EVnKPpSwMvRi0kKZPns3PqsDG4XUHCSvyl_2RsNN1aeDubeCT8dn42gN1ulgrnm6SM4ipWjd9LoKXhDkfGrrl-cLxWus86mZWNI5GmLm831pL9XIjArQ2pylT6Qed8TQW7HZDNgDkqFj0-z0YDwEzdPeftqEfuchjYj_BL-ArZGU2Ncj7plqjdM0P1yz1Nx2mf3nnj7XX0RIE8_V_V1OKlyszXtrcAgs9sjve3fuc3ZsyB1Z3mr5RKxQV0x-sKUgOH7nU6VsJzsZJuxDP3k1gUObybwSQhTZE-CVs-zGMQKcLfEVfGcia1lfFKITtcNlgXETJxy6cPi5N4OGzMDvhwzWDXr1Ar-ey_j90eqBd27aSiLi5g6zkmirbds0nq3UL1W31MlL-2cDuKjO2AOzmbEgvB9ri1vkANEvb12BzTs7laeqbQ5TlKtWI9ROyu_Dtny0]--></g></svg>