<svg xmlns="http://www.w3.org/2000/svg" xmlns:xlink="http://www.w3.org/1999/xlink" contentStyleType="text/css" data-diagram-type="CLASS" height="491px" preserveAspectRatio="none" style="width:372px;height:491px;background:#FFFFFF;" version="1.1" viewBox="0 0 372 491" width="372px" zoomAndPan="magnify"><defs/><g><text fill="#000000" font-family="sans-serif" font-size="14" lengthAdjust="spacing" textLength="4.4502" x="17" y="39.9951">&#160;</text><path d="M19.3333,49.7135 L19.3333,56.9323 C19.3333,58.1235 19.9709,58.3813 19.9709,58.3813 L26.7224,63.689 C27.7853,64.5244 27.5,62.7656 27.5,62.7656 L27.5,56.1302 L19.3333,49.7135" fill="#662113"/><path d="M35.6667,49.7135 L35.6667,56.9323 C35.6667,58.1235 35.0466,58.3813 35.0466,58.3813 C35.0466,58.3813 29.3492,62.8537 28.2869,63.689 C27.2235,64.5244 27.5,62.7656 27.5,62.7656 L27.5,56.1302 L35.6667,49.7135" fill="#C1694F"/><path d="M28.2519,43.5885 C27.8127,43.2327 27.0923,43.2327 26.6524,43.5885 L19.6629,49.1471 C19.2231,49.503 19.2231,50.0845 19.6629,50.4398 L26.6763,56.0666 C27.1162,56.4219 27.8366,56.4219 28.2764,56.0666 L35.3371,50.3908 C35.7769,50.0355 35.7769,49.454 35.3371,49.0981 L28.2519,43.5885" fill="#D99E82"/><path d="M27.5,64.151 C27.178,64.151 26.9167,63.8699 26.9167,63.5222 L26.9167,55.9815 C26.9167,55.6338 27.178,55.3526 27.5,55.3526 C27.8226,55.3526 28.0833,55.6338 28.0833,55.9815 L28.0833,63.5222 C28.0833,63.8699 27.8226,64.151 27.5,64.151" fill="#D99E82"/><path d="M33.3333,54.2845 C33.3333,54.9285 33.394,55.2447 32.75,55.709 L31.3098,56.8045 C30.6658,57.2695 30.4167,56.8705 30.4167,56.2259 L30.4167,54.4986 C30.4167,54.386 30.4015,54.2653 30.2545,54.144 C28.7507,52.9044 22.9115,48.2663 21.8475,47.41 L24.5454,45.2645 C25.2839,45.8046 30.818,50.0781 33.1333,51.901 C33.2482,51.992 33.3333,52.0924 33.3333,52.202 L33.3333,54.2845" fill="#99AAB5"/><path d="M33.1327,51.901 C30.818,50.0781 25.2839,45.8046 24.5454,45.2645 L23.5415,46.0625 L21.8475,47.41 C22.9121,48.2663 28.7507,52.9044 30.2545,54.144 C30.3426,54.2169 30.3811,54.2898 30.3992,54.3604 L33.2768,52.0469 C33.2417,51.9961 33.1916,51.9471 33.1327,51.901" fill="#CCD6DD"/><path d="M33.3333,54.2845 L33.3333,52.202 C33.3333,52.0924 33.2482,51.9926 33.1327,51.901 C30.818,50.0781 25.2839,45.8046 24.5454,45.2645 L23.3362,46.2264 C25.3154,47.7833 30.6168,51.8736 32.0045,52.9773 C32.1538,53.0963 32.1667,53.2194 32.1667,53.332 L32.1667,56.153 L32.75,55.709 C33.394,55.2441 33.3333,54.9285 33.3333,54.2845" fill="#CCD6DD"/><path d="M33.1327,51.901 C30.818,50.0781 25.2839,45.8046 24.5454,45.2645 L23.3362,46.2264 C25.3154,47.7833 30.6168,51.8736 32.0045,52.9773 C32.0261,52.9942 32.0395,53.0117 32.0553,53.0286 L33.2768,52.0469 C33.2417,51.9961 33.1916,51.9471 33.1327,51.901" fill="#E1E8ED"/><text fill="#000000" font-family="sans-serif" font-size="14" lengthAdjust="spacing" textLength="52.4658" x="42.4502" y="62.7451">module</text><text fill="#000000" font-family="sans-serif" font-size="14" lengthAdjust="spacing" textLength="4.4502" x="35" y="87.4951">&#160;</text><path d="M39.4502,84.9635 C39.4502,86.2521 40.4949,87.2969 41.7835,87.2969 L55.7835,87.2969 C57.0721,87.2969 58.1169,86.2521 58.1169,84.9635 L58.1169,75.0469 C58.1169,73.7583 57.0721,72.7135 55.7835,72.7135 L50.5335,72.7135 C48.4557,72.7135 48.7835,69.7969 45.6114,69.7969 L41.7835,69.7969 C40.4949,69.7969 39.4502,70.8416 39.4502,72.1302 L39.4502,84.9635" fill="#226699"/><path d="M56.9502,73.8802 L53.1224,73.8802 C49.9502,73.8802 50.278,76.7969 48.2002,76.7969 L42.9502,76.7969 C41.6616,76.7969 40.6169,77.8416 40.6169,79.1302 L40.6169,84.9635 C40.6169,85.2861 40.3555,85.5469 40.0335,85.5469 C39.7115,85.5469 39.4502,85.2861 39.4502,84.9635 C39.4502,86.2521 40.4949,87.2969 41.7835,87.2969 L56.9502,87.2969 C58.2388,87.2969 59.2835,86.2521 59.2835,84.9635 L59.2835,76.2135 C59.2835,74.925 58.2388,73.8802 56.9502,73.8802" fill="#55ACEE"/><text fill="#000000" font-family="sans-serif" font-size="14" lengthAdjust="spacing" textLength="283.0898" x="64.9004" y="87.4951">src/main/java/&lt;module package name&gt;</text><text fill="#000000" font-family="sans-serif" font-size="14" lengthAdjust="spacing" textLength="4.4502" x="43" y="110.2451">&#160;</text><path d="M47.4502,107.7135 C47.4502,109.0021 48.4949,110.0469 49.7835,110.0469 L63.7835,110.0469 C65.0721,110.0469 66.1169,109.0021 66.1169,107.7135 L66.1169,97.7969 C66.1169,96.5083 65.0721,95.4635 63.7835,95.4635 L58.5335,95.4635 C56.4557,95.4635 56.7835,92.5469 53.6114,92.5469 L49.7835,92.5469 C48.4949,92.5469 47.4502,93.5916 47.4502,94.8802 L47.4502,107.7135" fill="#226699"/><path d="M64.9502,96.6302 L61.1224,96.6302 C57.9502,96.6302 58.278,99.5469 56.2002,99.5469 L50.9502,99.5469 C49.6616,99.5469 48.6169,100.5916 48.6169,101.8802 L48.6169,107.7135 C48.6169,108.0361 48.3555,108.2969 48.0335,108.2969 C47.7115,108.2969 47.4502,108.0361 47.4502,107.7135 C47.4502,109.0021 48.4949,110.0469 49.7835,110.0469 L64.9502,110.0469 C66.2388,110.0469 67.2835,109.0021 67.2835,107.7135 L67.2835,98.9635 C67.2835,97.675 66.2388,96.6302 64.9502,96.6302" fill="#55ACEE"/><text fill="#000000" font-family="sans-serif" font-size="14" lengthAdjust="spacing" textLength="42.8408" x="72.9004" y="110.2451">config</text><text fill="#000000" font-family="sans-serif" font-size="14" lengthAdjust="spacing" textLength="4.4502" x="51" y="132.9951">&#160;</text><path d="M74.3589,119.1387 L69.1089,113.8887 C68.8984,113.6781 68.6061,113.5469 68.2835,113.5469 C67.6395,113.5469 67.1174,114.0695 67.1169,114.7135 C67.1169,115.0355 67.2475,115.3278 67.4587,115.539 L65.2076,117.79 L70.4576,123.04 L72.7087,120.789 C72.9199,120.9995 73.2115,121.1302 73.5335,121.1302 C74.1775,121.1302 74.7008,120.6075 74.7002,119.9635 C74.7002,119.6415 74.5695,119.3499 74.3589,119.1387" fill="#E1E8ED"/><path d="M68.2835,113.5469 L59.5335,113.5469 C58.2449,113.5469 57.2002,114.5916 57.2002,115.8802 L57.2002,132.2135 C57.2002,133.5021 58.2449,134.5469 59.5335,134.5469 L72.3669,134.5469 C73.6554,134.5469 74.7002,133.5021 74.7002,132.2135 L74.7002,119.9635 L69.4502,119.9635 C68.8669,119.9635 68.2835,119.3802 68.2835,118.7969 L68.2835,113.5469" fill="#CCD6DD"/><path d="M68.2835,113.5469 L67.1169,113.5469 L67.1169,118.7969 C67.1169,120.0855 68.1616,121.1302 69.4502,121.1302 L74.7002,121.1302 L74.7002,119.9635 L69.4502,119.9635 C68.8669,119.9635 68.2835,119.3802 68.2835,118.7969 L68.2835,113.5469 M65.3669,118.2135 C65.3669,118.5355 65.1055,118.7969 64.7835,118.7969 L60.1169,118.7969 C59.7949,118.7969 59.5335,118.5355 59.5335,118.2135 C59.5335,117.8915 59.7949,117.6302 60.1169,117.6302 L64.7835,117.6302 C65.1055,117.6302 65.3669,117.8915 65.3669,118.2135 M65.3669,120.5469 C65.3669,120.8689 65.1055,121.1302 64.7835,121.1302 L60.1169,121.1302 C59.7949,121.1302 59.5335,120.8689 59.5335,120.5469 C59.5335,120.2249 59.7949,119.9635 60.1169,119.9635 L64.7835,119.9635 C65.1055,119.9635 65.3669,120.2249 65.3669,120.5469 M72.3669,122.8802 C72.3669,123.2022 72.1061,123.4635 71.7835,123.4635 L60.1169,123.4635 C59.7949,123.4635 59.5335,123.2022 59.5335,122.8802 C59.5335,122.5582 59.7949,122.2969 60.1169,122.2969 L71.7835,122.2969 C72.1061,122.2969 72.3669,122.5582 72.3669,122.8802 M72.3669,125.2135 C72.3669,125.5361 72.1061,125.7969 71.7835,125.7969 L60.1169,125.7969 C59.7949,125.7969 59.5335,125.5361 59.5335,125.2135 C59.5335,124.891 59.7949,124.6302 60.1169,124.6302 L71.7835,124.6302 C72.1061,124.6302 72.3669,124.891 72.3669,125.2135 M72.3669,127.5469 C72.3669,127.8695 72.1061,128.1302 71.7835,128.1302 L60.1169,128.1302 C59.7949,128.1302 59.5335,127.8695 59.5335,127.5469 C59.5335,127.2243 59.7949,126.9635 60.1169,126.9635 L71.7835,126.9635 C72.1061,126.9635 72.3669,127.2243 72.3669,127.5469 M72.3669,129.8802 C72.3669,130.2028 72.1061,130.4635 71.7835,130.4635 L60.1169,130.4635 C59.7949,130.4635 59.5335,130.2028 59.5335,129.8802 C59.5335,129.5576 59.7949,129.2969 60.1169,129.2969 L71.7835,129.2969 C72.1061,129.2969 72.3669,129.5576 72.3669,129.8802" fill="#99AAB5"/><text fill="#000000" font-family="sans-serif" font-size="14" lengthAdjust="spacing" textLength="100.2764" x="80.9004" y="132.9951">Module Config</text><text fill="#000000" font-family="sans-serif" font-size="14" lengthAdjust="spacing" textLength="4.4502" x="51" y="155.7451">&#160;</text><path d="M74.3589,141.8887 L69.1089,136.6387 C68.8984,136.4281 68.6061,136.2969 68.2835,136.2969 C67.6395,136.2969 67.1174,136.8195 67.1169,137.4635 C67.1169,137.7855 67.2475,138.0778 67.4587,138.289 L65.2076,140.54 L70.4576,145.79 L72.7087,143.539 C72.9199,143.7495 73.2115,143.8802 73.5335,143.8802 C74.1775,143.8802 74.7008,143.3575 74.7002,142.7135 C74.7002,142.3915 74.5695,142.0999 74.3589,141.8887" fill="#E1E8ED"/><path d="M68.2835,136.2969 L59.5335,136.2969 C58.2449,136.2969 57.2002,137.3416 57.2002,138.6302 L57.2002,154.9635 C57.2002,156.2521 58.2449,157.2969 59.5335,157.2969 L72.3669,157.2969 C73.6554,157.2969 74.7002,156.2521 74.7002,154.9635 L74.7002,142.7135 L69.4502,142.7135 C68.8669,142.7135 68.2835,142.1302 68.2835,141.5469 L68.2835,136.2969" fill="#CCD6DD"/><path d="M68.2835,136.2969 L67.1169,136.2969 L67.1169,141.5469 C67.1169,142.8355 68.1616,143.8802 69.4502,143.8802 L74.7002,143.8802 L74.7002,142.7135 L69.4502,142.7135 C68.8669,142.7135 68.2835,142.1302 68.2835,141.5469 L68.2835,136.2969 M65.3669,140.9635 C65.3669,141.2855 65.1055,141.5469 64.7835,141.5469 L60.1169,141.5469 C59.7949,141.5469 59.5335,141.2855 59.5335,140.9635 C59.5335,140.6415 59.7949,140.3802 60.1169,140.3802 L64.7835,140.3802 C65.1055,140.3802 65.3669,140.6415 65.3669,140.9635 M65.3669,143.2969 C65.3669,143.6189 65.1055,143.8802 64.7835,143.8802 L60.1169,143.8802 C59.7949,143.8802 59.5335,143.6189 59.5335,143.2969 C59.5335,142.9749 59.7949,142.7135 60.1169,142.7135 L64.7835,142.7135 C65.1055,142.7135 65.3669,142.9749 65.3669,143.2969 M72.3669,145.6302 C72.3669,145.9522 72.1061,146.2135 71.7835,146.2135 L60.1169,146.2135 C59.7949,146.2135 59.5335,145.9522 59.5335,145.6302 C59.5335,145.3082 59.7949,145.0469 60.1169,145.0469 L71.7835,145.0469 C72.1061,145.0469 72.3669,145.3082 72.3669,145.6302 M72.3669,147.9635 C72.3669,148.2861 72.1061,148.5469 71.7835,148.5469 L60.1169,148.5469 C59.7949,148.5469 59.5335,148.2861 59.5335,147.9635 C59.5335,147.641 59.7949,147.3802 60.1169,147.3802 L71.7835,147.3802 C72.1061,147.3802 72.3669,147.641 72.3669,147.9635 M72.3669,150.2969 C72.3669,150.6195 72.1061,150.8802 71.7835,150.8802 L60.1169,150.8802 C59.7949,150.8802 59.5335,150.6195 59.5335,150.2969 C59.5335,149.9743 59.7949,149.7135 60.1169,149.7135 L71.7835,149.7135 C72.1061,149.7135 72.3669,149.9743 72.3669,150.2969 M72.3669,152.6302 C72.3669,152.9528 72.1061,153.2135 71.7835,153.2135 L60.1169,153.2135 C59.7949,153.2135 59.5335,152.9528 59.5335,152.6302 C59.5335,152.3076 59.7949,152.0469 60.1169,152.0469 L71.7835,152.0469 C72.1061,152.0469 72.3669,152.3076 72.3669,152.6302" fill="#99AAB5"/><text fill="#000000" font-family="sans-serif" font-size="14" lengthAdjust="spacing" textLength="116.7031" x="80.9004" y="155.7451">Feature Config 1</text><text fill="#000000" font-family="sans-serif" font-size="14" lengthAdjust="spacing" textLength="4.4502" x="51" y="178.4951">&#160;</text><path d="M74.3589,164.6387 L69.1089,159.3887 C68.8984,159.1781 68.6061,159.0469 68.2835,159.0469 C67.6395,159.0469 67.1174,159.5695 67.1169,160.2135 C67.1169,160.5355 67.2475,160.8278 67.4587,161.039 L65.2076,163.29 L70.4576,168.54 L72.7087,166.289 C72.9199,166.4995 73.2115,166.6302 73.5335,166.6302 C74.1775,166.6302 74.7008,166.1075 74.7002,165.4635 C74.7002,165.1415 74.5695,164.8499 74.3589,164.6387" fill="#E1E8ED"/><path d="M68.2835,159.0469 L59.5335,159.0469 C58.2449,159.0469 57.2002,160.0916 57.2002,161.3802 L57.2002,177.7135 C57.2002,179.0021 58.2449,180.0469 59.5335,180.0469 L72.3669,180.0469 C73.6554,180.0469 74.7002,179.0021 74.7002,177.7135 L74.7002,165.4635 L69.4502,165.4635 C68.8669,165.4635 68.2835,164.8802 68.2835,164.2969 L68.2835,159.0469" fill="#CCD6DD"/><path d="M68.2835,159.0469 L67.1169,159.0469 L67.1169,164.2969 C67.1169,165.5855 68.1616,166.6302 69.4502,166.6302 L74.7002,166.6302 L74.7002,165.4635 L69.4502,165.4635 C68.8669,165.4635 68.2835,164.8802 68.2835,164.2969 L68.2835,159.0469 M65.3669,163.7135 C65.3669,164.0355 65.1055,164.2969 64.7835,164.2969 L60.1169,164.2969 C59.7949,164.2969 59.5335,164.0355 59.5335,163.7135 C59.5335,163.3915 59.7949,163.1302 60.1169,163.1302 L64.7835,163.1302 C65.1055,163.1302 65.3669,163.3915 65.3669,163.7135 M65.3669,166.0469 C65.3669,166.3689 65.1055,166.6302 64.7835,166.6302 L60.1169,166.6302 C59.7949,166.6302 59.5335,166.3689 59.5335,166.0469 C59.5335,165.7249 59.7949,165.4635 60.1169,165.4635 L64.7835,165.4635 C65.1055,165.4635 65.3669,165.7249 65.3669,166.0469 M72.3669,168.3802 C72.3669,168.7022 72.1061,168.9635 71.7835,168.9635 L60.1169,168.9635 C59.7949,168.9635 59.5335,168.7022 59.5335,168.3802 C59.5335,168.0582 59.7949,167.7969 60.1169,167.7969 L71.7835,167.7969 C72.1061,167.7969 72.3669,168.0582 72.3669,168.3802 M72.3669,170.7135 C72.3669,171.0361 72.1061,171.2969 71.7835,171.2969 L60.1169,171.2969 C59.7949,171.2969 59.5335,171.0361 59.5335,170.7135 C59.5335,170.391 59.7949,170.1302 60.1169,170.1302 L71.7835,170.1302 C72.1061,170.1302 72.3669,170.391 72.3669,170.7135 M72.3669,173.0469 C72.3669,173.3695 72.1061,173.6302 71.7835,173.6302 L60.1169,173.6302 C59.7949,173.6302 59.5335,173.3695 59.5335,173.0469 C59.5335,172.7243 59.7949,172.4635 60.1169,172.4635 L71.7835,172.4635 C72.1061,172.4635 72.3669,172.7243 72.3669,173.0469 M72.3669,175.3802 C72.3669,175.7028 72.1061,175.9635 71.7835,175.9635 L60.1169,175.9635 C59.7949,175.9635 59.5335,175.7028 59.5335,175.3802 C59.5335,175.0576 59.7949,174.7969 60.1169,174.7969 L71.7835,174.7969 C72.1061,174.7969 72.3669,175.0576 72.3669,175.3802" fill="#99AAB5"/><text fill="#000000" font-family="sans-serif" font-size="14" lengthAdjust="spacing" textLength="116.7031" x="80.9004" y="178.4951">Feature Config 2</text><text fill="#000000" font-family="sans-serif" font-size="14" lengthAdjust="spacing" textLength="22.251" x="55.4502" y="194.792">. . .</text><text fill="#000000" font-family="sans-serif" font-size="14" lengthAdjust="spacing" textLength="4.4502" x="43" y="217.542">&#160;</text><path d="M47.4502,215.0104 C47.4502,216.299 48.4949,217.3438 49.7835,217.3438 L63.7835,217.3438 C65.0721,217.3438 66.1169,216.299 66.1169,215.0104 L66.1169,205.0938 C66.1169,203.8052 65.0721,202.7604 63.7835,202.7604 L58.5335,202.7604 C56.4557,202.7604 56.7835,199.8438 53.6114,199.8438 L49.7835,199.8438 C48.4949,199.8438 47.4502,200.8885 47.4502,202.1771 L47.4502,215.0104" fill="#226699"/><path d="M64.9502,203.9271 L61.1224,203.9271 C57.9502,203.9271 58.278,206.8438 56.2002,206.8438 L50.9502,206.8438 C49.6616,206.8438 48.6169,207.8885 48.6169,209.1771 L48.6169,215.0104 C48.6169,215.333 48.3555,215.5938 48.0335,215.5938 C47.7115,215.5938 47.4502,215.333 47.4502,215.0104 C47.4502,216.299 48.4949,217.3438 49.7835,217.3438 L64.9502,217.3438 C66.2388,217.3438 67.2835,216.299 67.2835,215.0104 L67.2835,206.2604 C67.2835,204.9718 66.2388,203.9271 64.9502,203.9271" fill="#55ACEE"/><text fill="#000000" font-family="sans-serif" font-size="14" lengthAdjust="spacing" textLength="39.874" x="72.9004" y="217.542">event</text><text fill="#000000" font-family="sans-serif" font-size="14" lengthAdjust="spacing" textLength="4.4502" x="51" y="240.292">&#160;</text><path d="M55.4502,237.7604 C55.4502,239.049 56.4949,240.0938 57.7835,240.0938 L71.7835,240.0938 C73.0721,240.0938 74.1169,239.049 74.1169,237.7604 L74.1169,227.8438 C74.1169,226.5552 73.0721,225.5104 71.7835,225.5104 L66.5335,225.5104 C64.4557,225.5104 64.7835,222.5938 61.6114,222.5938 L57.7835,222.5938 C56.4949,222.5938 55.4502,223.6385 55.4502,224.9271 L55.4502,237.7604" fill="#226699"/><path d="M72.9502,226.6771 L69.1224,226.6771 C65.9502,226.6771 66.278,229.5938 64.2002,229.5938 L58.9502,229.5938 C57.6616,229.5938 56.6169,230.6385 56.6169,231.9271 L56.6169,237.7604 C56.6169,238.083 56.3555,238.3438 56.0335,238.3438 C55.7115,238.3438 55.4502,238.083 55.4502,237.7604 C55.4502,239.049 56.4949,240.0938 57.7835,240.0938 L72.9502,240.0938 C74.2388,240.0938 75.2835,239.049 75.2835,237.7604 L75.2835,229.0104 C75.2835,227.7218 74.2388,226.6771 72.9502,226.6771" fill="#55ACEE"/><text fill="#000000" font-family="sans-serif" font-size="14" lengthAdjust="spacing" textLength="52.418" x="80.9004" y="240.292">listener</text><text fill="#000000" font-family="sans-serif" font-size="14" lengthAdjust="spacing" textLength="4.4502" x="59" y="263.042">&#160;</text><path d="M82.3589,249.1856 L77.1089,243.9356 C76.8984,243.725 76.6061,243.5938 76.2835,243.5938 C75.6395,243.5938 75.1174,244.1164 75.1169,244.7604 C75.1169,245.0824 75.2475,245.3747 75.4587,245.5858 L73.2076,247.8369 L78.4576,253.0869 L80.7087,250.8358 C80.9199,251.0464 81.2115,251.1771 81.5335,251.1771 C82.1775,251.1771 82.7008,250.6544 82.7002,250.0104 C82.7002,249.6884 82.5695,249.3968 82.3589,249.1856" fill="#E1E8ED"/><path d="M76.2835,243.5938 L67.5335,243.5938 C66.2449,243.5938 65.2002,244.6385 65.2002,245.9271 L65.2002,262.2604 C65.2002,263.549 66.2449,264.5938 67.5335,264.5938 L80.3669,264.5938 C81.6554,264.5938 82.7002,263.549 82.7002,262.2604 L82.7002,250.0104 L77.4502,250.0104 C76.8669,250.0104 76.2835,249.4271 76.2835,248.8438 L76.2835,243.5938" fill="#CCD6DD"/><path d="M76.2835,243.5938 L75.1169,243.5938 L75.1169,248.8438 C75.1169,250.1323 76.1616,251.1771 77.4502,251.1771 L82.7002,251.1771 L82.7002,250.0104 L77.4502,250.0104 C76.8669,250.0104 76.2835,249.4271 76.2835,248.8438 L76.2835,243.5938 M73.3669,248.2604 C73.3669,248.5824 73.1055,248.8438 72.7835,248.8438 L68.1169,248.8438 C67.7949,248.8438 67.5335,248.5824 67.5335,248.2604 C67.5335,247.9384 67.7949,247.6771 68.1169,247.6771 L72.7835,247.6771 C73.1055,247.6771 73.3669,247.9384 73.3669,248.2604 M73.3669,250.5938 C73.3669,250.9158 73.1055,251.1771 72.7835,251.1771 L68.1169,251.1771 C67.7949,251.1771 67.5335,250.9158 67.5335,250.5938 C67.5335,250.2718 67.7949,250.0104 68.1169,250.0104 L72.7835,250.0104 C73.1055,250.0104 73.3669,250.2718 73.3669,250.5938 M80.3669,252.9271 C80.3669,253.2491 80.1061,253.5104 79.7835,253.5104 L68.1169,253.5104 C67.7949,253.5104 67.5335,253.2491 67.5335,252.9271 C67.5335,252.6051 67.7949,252.3438 68.1169,252.3438 L79.7835,252.3438 C80.1061,252.3438 80.3669,252.6051 80.3669,252.9271 M80.3669,255.2604 C80.3669,255.583 80.1061,255.8438 79.7835,255.8438 L68.1169,255.8438 C67.7949,255.8438 67.5335,255.583 67.5335,255.2604 C67.5335,254.9378 67.7949,254.6771 68.1169,254.6771 L79.7835,254.6771 C80.1061,254.6771 80.3669,254.9378 80.3669,255.2604 M80.3669,257.5938 C80.3669,257.9163 80.1061,258.1771 79.7835,258.1771 L68.1169,258.1771 C67.7949,258.1771 67.5335,257.9163 67.5335,257.5938 C67.5335,257.2712 67.7949,257.0104 68.1169,257.0104 L79.7835,257.0104 C80.1061,257.0104 80.3669,257.2712 80.3669,257.5938 M80.3669,259.9271 C80.3669,260.2497 80.1061,260.5104 79.7835,260.5104 L68.1169,260.5104 C67.7949,260.5104 67.5335,260.2497 67.5335,259.9271 C67.5335,259.6045 67.7949,259.3438 68.1169,259.3438 L79.7835,259.3438 C80.1061,259.3438 80.3669,259.6045 80.3669,259.9271" fill="#99AAB5"/><text fill="#000000" font-family="sans-serif" font-size="14" lengthAdjust="spacing" textLength="100.8848" x="88.9004" y="263.042">Event Listener</text><text fill="#000000" font-family="sans-serif" font-size="14" lengthAdjust="spacing" textLength="4.4502" x="51" y="285.792">&#160;</text><path d="M74.3589,271.9356 L69.1089,266.6856 C68.8984,266.475 68.6061,266.3438 68.2835,266.3438 C67.6395,266.3438 67.1174,266.8664 67.1169,267.5104 C67.1169,267.8324 67.2475,268.1247 67.4587,268.3358 L65.2076,270.5869 L70.4576,275.8369 L72.7087,273.5858 C72.9199,273.7964 73.2115,273.9271 73.5335,273.9271 C74.1775,273.9271 74.7008,273.4044 74.7002,272.7604 C74.7002,272.4384 74.5695,272.1468 74.3589,271.9356" fill="#E1E8ED"/><path d="M68.2835,266.3438 L59.5335,266.3438 C58.2449,266.3438 57.2002,267.3885 57.2002,268.6771 L57.2002,285.0104 C57.2002,286.299 58.2449,287.3438 59.5335,287.3438 L72.3669,287.3438 C73.6554,287.3438 74.7002,286.299 74.7002,285.0104 L74.7002,272.7604 L69.4502,272.7604 C68.8669,272.7604 68.2835,272.1771 68.2835,271.5938 L68.2835,266.3438" fill="#CCD6DD"/><path d="M68.2835,266.3438 L67.1169,266.3438 L67.1169,271.5938 C67.1169,272.8823 68.1616,273.9271 69.4502,273.9271 L74.7002,273.9271 L74.7002,272.7604 L69.4502,272.7604 C68.8669,272.7604 68.2835,272.1771 68.2835,271.5938 L68.2835,266.3438 M65.3669,271.0104 C65.3669,271.3324 65.1055,271.5938 64.7835,271.5938 L60.1169,271.5938 C59.7949,271.5938 59.5335,271.3324 59.5335,271.0104 C59.5335,270.6884 59.7949,270.4271 60.1169,270.4271 L64.7835,270.4271 C65.1055,270.4271 65.3669,270.6884 65.3669,271.0104 M65.3669,273.3438 C65.3669,273.6658 65.1055,273.9271 64.7835,273.9271 L60.1169,273.9271 C59.7949,273.9271 59.5335,273.6658 59.5335,273.3438 C59.5335,273.0218 59.7949,272.7604 60.1169,272.7604 L64.7835,272.7604 C65.1055,272.7604 65.3669,273.0218 65.3669,273.3438 M72.3669,275.6771 C72.3669,275.9991 72.1061,276.2604 71.7835,276.2604 L60.1169,276.2604 C59.7949,276.2604 59.5335,275.9991 59.5335,275.6771 C59.5335,275.3551 59.7949,275.0938 60.1169,275.0938 L71.7835,275.0938 C72.1061,275.0938 72.3669,275.3551 72.3669,275.6771 M72.3669,278.0104 C72.3669,278.333 72.1061,278.5938 71.7835,278.5938 L60.1169,278.5938 C59.7949,278.5938 59.5335,278.333 59.5335,278.0104 C59.5335,277.6878 59.7949,277.4271 60.1169,277.4271 L71.7835,277.4271 C72.1061,277.4271 72.3669,277.6878 72.3669,278.0104 M72.3669,280.3438 C72.3669,280.6663 72.1061,280.9271 71.7835,280.9271 L60.1169,280.9271 C59.7949,280.9271 59.5335,280.6663 59.5335,280.3438 C59.5335,280.0212 59.7949,279.7604 60.1169,279.7604 L71.7835,279.7604 C72.1061,279.7604 72.3669,280.0212 72.3669,280.3438 M72.3669,282.6771 C72.3669,282.9997 72.1061,283.2604 71.7835,283.2604 L60.1169,283.2604 C59.7949,283.2604 59.5335,282.9997 59.5335,282.6771 C59.5335,282.3545 59.7949,282.0938 60.1169,282.0938 L71.7835,282.0938 C72.1061,282.0938 72.3669,282.3545 72.3669,282.6771" fill="#99AAB5"/><text fill="#000000" font-family="sans-serif" font-size="14" lengthAdjust="spacing" textLength="112.3486" x="80.9004" y="285.792">Event Definition</text><text fill="#000000" font-family="sans-serif" font-size="14" lengthAdjust="spacing" textLength="4.4502" x="43" y="308.542">&#160;</text><path d="M47.4502,306.0104 C47.4502,307.299 48.4949,308.3438 49.7835,308.3438 L63.7835,308.3438 C65.0721,308.3438 66.1169,307.299 66.1169,306.0104 L66.1169,296.0938 C66.1169,294.8052 65.0721,293.7604 63.7835,293.7604 L58.5335,293.7604 C56.4557,293.7604 56.7835,290.8438 53.6114,290.8438 L49.7835,290.8438 C48.4949,290.8438 47.4502,291.8885 47.4502,293.1771 L47.4502,306.0104" fill="#226699"/><path d="M64.9502,294.9271 L61.1224,294.9271 C57.9502,294.9271 58.278,297.8438 56.2002,297.8438 L50.9502,297.8438 C49.6616,297.8438 48.6169,298.8885 48.6169,300.1771 L48.6169,306.0104 C48.6169,306.333 48.3555,306.5938 48.0335,306.5938 C47.7115,306.5938 47.4502,306.333 47.4502,306.0104 C47.4502,307.299 48.4949,308.3438 49.7835,308.3438 L64.9502,308.3438 C66.2388,308.3438 67.2835,307.299 67.2835,306.0104 L67.2835,297.2604 C67.2835,295.9718 66.2388,294.9271 64.9502,294.9271" fill="#55ACEE"/><text fill="#000000" font-family="sans-serif" font-size="14" lengthAdjust="spacing" textLength="76.4736" x="72.9004" y="308.542">&lt;context&gt;</text><text fill="#000000" font-family="sans-serif" font-size="14" lengthAdjust="spacing" textLength="4.4502" x="51" y="331.292">&#160;</text><path d="M55.4502,328.7604 C55.4502,330.049 56.4949,331.0938 57.7835,331.0938 L71.7835,331.0938 C73.0721,331.0938 74.1169,330.049 74.1169,328.7604 L74.1169,318.8438 C74.1169,317.5552 73.0721,316.5104 71.7835,316.5104 L66.5335,316.5104 C64.4557,316.5104 64.7835,313.5938 61.6114,313.5938 L57.7835,313.5938 C56.4949,313.5938 55.4502,314.6385 55.4502,315.9271 L55.4502,328.7604" fill="#226699"/><path d="M72.9502,317.6771 L69.1224,317.6771 C65.9502,317.6771 66.278,320.5938 64.2002,320.5938 L58.9502,320.5938 C57.6616,320.5938 56.6169,321.6385 56.6169,322.9271 L56.6169,328.7604 C56.6169,329.083 56.3555,329.3438 56.0335,329.3438 C55.7115,329.3438 55.4502,329.083 55.4502,328.7604 C55.4502,330.049 56.4949,331.0938 57.7835,331.0938 L72.9502,331.0938 C74.2388,331.0938 75.2835,330.049 75.2835,328.7604 L75.2835,320.0104 C75.2835,318.7218 74.2388,317.6771 72.9502,317.6771" fill="#55ACEE"/><text fill="#000000" font-family="sans-serif" font-size="14" lengthAdjust="spacing" textLength="42.8408" x="80.9004" y="331.292">config</text><text fill="#000000" font-family="sans-serif" font-size="14" lengthAdjust="spacing" textLength="4.4502" x="51" y="354.042">&#160;</text><path d="M55.4502,351.5104 C55.4502,352.799 56.4949,353.8438 57.7835,353.8438 L71.7835,353.8438 C73.0721,353.8438 74.1169,352.799 74.1169,351.5104 L74.1169,341.5938 C74.1169,340.3052 73.0721,339.2604 71.7835,339.2604 L66.5335,339.2604 C64.4557,339.2604 64.7835,336.3438 61.6114,336.3438 L57.7835,336.3438 C56.4949,336.3438 55.4502,337.3885 55.4502,338.6771 L55.4502,351.5104" fill="#226699"/><path d="M72.9502,340.4271 L69.1224,340.4271 C65.9502,340.4271 66.278,343.3438 64.2002,343.3438 L58.9502,343.3438 C57.6616,343.3438 56.6169,344.3885 56.6169,345.6771 L56.6169,351.5104 C56.6169,351.833 56.3555,352.0938 56.0335,352.0938 C55.7115,352.0938 55.4502,351.833 55.4502,351.5104 C55.4502,352.799 56.4949,353.8438 57.7835,353.8438 L72.9502,353.8438 C74.2388,353.8438 75.2835,352.799 75.2835,351.5104 L75.2835,342.7604 C75.2835,341.4718 74.2388,340.4271 72.9502,340.4271" fill="#55ACEE"/><text fill="#000000" font-family="sans-serif" font-size="14" lengthAdjust="spacing" textLength="39.874" x="80.9004" y="354.042">event</text><text fill="#000000" font-family="sans-serif" font-size="14" lengthAdjust="spacing" textLength="4.4502" x="51" y="376.792">&#160;</text><path d="M55.4502,374.2604 C55.4502,375.549 56.4949,376.5938 57.7835,376.5938 L71.7835,376.5938 C73.0721,376.5938 74.1169,375.549 74.1169,374.2604 L74.1169,364.3438 C74.1169,363.0552 73.0721,362.0104 71.7835,362.0104 L66.5335,362.0104 C64.4557,362.0104 64.7835,359.0938 61.6114,359.0938 L57.7835,359.0938 C56.4949,359.0938 55.4502,360.1385 55.4502,361.4271 L55.4502,374.2604" fill="#226699"/><path d="M72.9502,363.1771 L69.1224,363.1771 C65.9502,363.1771 66.278,366.0938 64.2002,366.0938 L58.9502,366.0938 C57.6616,366.0938 56.6169,367.1385 56.6169,368.4271 L56.6169,374.2604 C56.6169,374.583 56.3555,374.8438 56.0335,374.8438 C55.7115,374.8438 55.4502,374.583 55.4502,374.2604 C55.4502,375.549 56.4949,376.5938 57.7835,376.5938 L72.9502,376.5938 C74.2388,376.5938 75.2835,375.549 75.2835,374.2604 L75.2835,365.5104 C75.2835,364.2218 74.2388,363.1771 72.9502,363.1771" fill="#55ACEE"/><text fill="#000000" font-family="sans-serif" font-size="14" lengthAdjust="spacing" textLength="30.3037" x="80.9004" y="376.792">impl</text><text fill="#000000" font-family="sans-serif" font-size="14" lengthAdjust="spacing" textLength="4.4502" x="59" y="399.542">&#160;</text><path d="M82.3589,385.6856 L77.1089,380.4356 C76.8984,380.225 76.6061,380.0938 76.2835,380.0938 C75.6395,380.0938 75.1174,380.6164 75.1169,381.2604 C75.1169,381.5824 75.2475,381.8747 75.4587,382.0858 L73.2076,384.3369 L78.4576,389.5869 L80.7087,387.3358 C80.9199,387.5464 81.2115,387.6771 81.5335,387.6771 C82.1775,387.6771 82.7008,387.1544 82.7002,386.5104 C82.7002,386.1884 82.5695,385.8968 82.3589,385.6856" fill="#E1E8ED"/><path d="M76.2835,380.0938 L67.5335,380.0938 C66.2449,380.0938 65.2002,381.1385 65.2002,382.4271 L65.2002,398.7604 C65.2002,400.049 66.2449,401.0938 67.5335,401.0938 L80.3669,401.0938 C81.6554,401.0938 82.7002,400.049 82.7002,398.7604 L82.7002,386.5104 L77.4502,386.5104 C76.8669,386.5104 76.2835,385.9271 76.2835,385.3438 L76.2835,380.0938" fill="#CCD6DD"/><path d="M76.2835,380.0938 L75.1169,380.0938 L75.1169,385.3438 C75.1169,386.6323 76.1616,387.6771 77.4502,387.6771 L82.7002,387.6771 L82.7002,386.5104 L77.4502,386.5104 C76.8669,386.5104 76.2835,385.9271 76.2835,385.3438 L76.2835,380.0938 M73.3669,384.7604 C73.3669,385.0824 73.1055,385.3438 72.7835,385.3438 L68.1169,385.3438 C67.7949,385.3438 67.5335,385.0824 67.5335,384.7604 C67.5335,384.4384 67.7949,384.1771 68.1169,384.1771 L72.7835,384.1771 C73.1055,384.1771 73.3669,384.4384 73.3669,384.7604 M73.3669,387.0938 C73.3669,387.4158 73.1055,387.6771 72.7835,387.6771 L68.1169,387.6771 C67.7949,387.6771 67.5335,387.4158 67.5335,387.0938 C67.5335,386.7718 67.7949,386.5104 68.1169,386.5104 L72.7835,386.5104 C73.1055,386.5104 73.3669,386.7718 73.3669,387.0938 M80.3669,389.4271 C80.3669,389.7491 80.1061,390.0104 79.7835,390.0104 L68.1169,390.0104 C67.7949,390.0104 67.5335,389.7491 67.5335,389.4271 C67.5335,389.1051 67.7949,388.8438 68.1169,388.8438 L79.7835,388.8438 C80.1061,388.8438 80.3669,389.1051 80.3669,389.4271 M80.3669,391.7604 C80.3669,392.083 80.1061,392.3438 79.7835,392.3438 L68.1169,392.3438 C67.7949,392.3438 67.5335,392.083 67.5335,391.7604 C67.5335,391.4378 67.7949,391.1771 68.1169,391.1771 L79.7835,391.1771 C80.1061,391.1771 80.3669,391.4378 80.3669,391.7604 M80.3669,394.0938 C80.3669,394.4163 80.1061,394.6771 79.7835,394.6771 L68.1169,394.6771 C67.7949,394.6771 67.5335,394.4163 67.5335,394.0938 C67.5335,393.7712 67.7949,393.5104 68.1169,393.5104 L79.7835,393.5104 C80.1061,393.5104 80.3669,393.7712 80.3669,394.0938 M80.3669,396.4271 C80.3669,396.7497 80.1061,397.0104 79.7835,397.0104 L68.1169,397.0104 C67.7949,397.0104 67.5335,396.7497 67.5335,396.4271 C67.5335,396.1045 67.7949,395.8438 68.1169,395.8438 L79.7835,395.8438 C80.1061,395.8438 80.3669,396.1045 80.3669,396.4271" fill="#99AAB5"/><text fill="#000000" font-family="sans-serif" font-size="14" lengthAdjust="spacing" textLength="86.7344" x="88.9004" y="399.542">Service Impl</text><text fill="#000000" font-family="sans-serif" font-size="14" lengthAdjust="spacing" textLength="4.4502" x="51" y="422.292">&#160;</text><path d="M74.3589,408.4356 L69.1089,403.1856 C68.8984,402.975 68.6061,402.8438 68.2835,402.8438 C67.6395,402.8438 67.1174,403.3664 67.1169,404.0104 C67.1169,404.3324 67.2475,404.6247 67.4587,404.8358 L65.2076,407.0869 L70.4576,412.3369 L72.7087,410.0858 C72.9199,410.2964 73.2115,410.4271 73.5335,410.4271 C74.1775,410.4271 74.7008,409.9044 74.7002,409.2604 C74.7002,408.9384 74.5695,408.6468 74.3589,408.4356" fill="#E1E8ED"/><path d="M68.2835,402.8438 L59.5335,402.8438 C58.2449,402.8438 57.2002,403.8885 57.2002,405.1771 L57.2002,421.5104 C57.2002,422.799 58.2449,423.8438 59.5335,423.8438 L72.3669,423.8438 C73.6554,423.8438 74.7002,422.799 74.7002,421.5104 L74.7002,409.2604 L69.4502,409.2604 C68.8669,409.2604 68.2835,408.6771 68.2835,408.0938 L68.2835,402.8438" fill="#CCD6DD"/><path d="M68.2835,402.8438 L67.1169,402.8438 L67.1169,408.0938 C67.1169,409.3823 68.1616,410.4271 69.4502,410.4271 L74.7002,410.4271 L74.7002,409.2604 L69.4502,409.2604 C68.8669,409.2604 68.2835,408.6771 68.2835,408.0938 L68.2835,402.8438 M65.3669,407.5104 C65.3669,407.8324 65.1055,408.0938 64.7835,408.0938 L60.1169,408.0938 C59.7949,408.0938 59.5335,407.8324 59.5335,407.5104 C59.5335,407.1884 59.7949,406.9271 60.1169,406.9271 L64.7835,406.9271 C65.1055,406.9271 65.3669,407.1884 65.3669,407.5104 M65.3669,409.8438 C65.3669,410.1658 65.1055,410.4271 64.7835,410.4271 L60.1169,410.4271 C59.7949,410.4271 59.5335,410.1658 59.5335,409.8438 C59.5335,409.5218 59.7949,409.2604 60.1169,409.2604 L64.7835,409.2604 C65.1055,409.2604 65.3669,409.5218 65.3669,409.8438 M72.3669,412.1771 C72.3669,412.4991 72.1061,412.7604 71.7835,412.7604 L60.1169,412.7604 C59.7949,412.7604 59.5335,412.4991 59.5335,412.1771 C59.5335,411.8551 59.7949,411.5938 60.1169,411.5938 L71.7835,411.5938 C72.1061,411.5938 72.3669,411.8551 72.3669,412.1771 M72.3669,414.5104 C72.3669,414.833 72.1061,415.0938 71.7835,415.0938 L60.1169,415.0938 C59.7949,415.0938 59.5335,414.833 59.5335,414.5104 C59.5335,414.1878 59.7949,413.9271 60.1169,413.9271 L71.7835,413.9271 C72.1061,413.9271 72.3669,414.1878 72.3669,414.5104 M72.3669,416.8438 C72.3669,417.1663 72.1061,417.4271 71.7835,417.4271 L60.1169,417.4271 C59.7949,417.4271 59.5335,417.1663 59.5335,416.8438 C59.5335,416.5212 59.7949,416.2604 60.1169,416.2604 L71.7835,416.2604 C72.1061,416.2604 72.3669,416.5212 72.3669,416.8438 M72.3669,419.1771 C72.3669,419.4997 72.1061,419.7604 71.7835,419.7604 L60.1169,419.7604 C59.7949,419.7604 59.5335,419.4997 59.5335,419.1771 C59.5335,418.8545 59.7949,418.5938 60.1169,418.5938 L71.7835,418.5938 C72.1061,418.5938 72.3669,418.8545 72.3669,419.1771" fill="#99AAB5"/><text fill="#000000" font-family="sans-serif" font-size="14" lengthAdjust="spacing" textLength="182.6973" x="76.4502" y="422.292">Exposed Service Interface</text><text fill="#000000" font-family="sans-serif" font-size="14" lengthAdjust="spacing" textLength="4.4502" x="43" y="445.042">&#160;</text><path d="M66.3589,431.1856 L61.1089,425.9356 C60.8984,425.725 60.6061,425.5938 60.2835,425.5938 C59.6395,425.5938 59.1174,426.1164 59.1169,426.7604 C59.1169,427.0824 59.2475,427.3747 59.4587,427.5858 L57.2076,429.8369 L62.4576,435.0869 L64.7087,432.8358 C64.9199,433.0464 65.2115,433.1771 65.5335,433.1771 C66.1775,433.1771 66.7008,432.6544 66.7002,432.0104 C66.7002,431.6884 66.5695,431.3968 66.3589,431.1856" fill="#E1E8ED"/><path d="M60.2835,425.5938 L51.5335,425.5938 C50.2449,425.5938 49.2002,426.6385 49.2002,427.9271 L49.2002,444.2604 C49.2002,445.549 50.2449,446.5938 51.5335,446.5938 L64.3669,446.5938 C65.6554,446.5938 66.7002,445.549 66.7002,444.2604 L66.7002,432.0104 L61.4502,432.0104 C60.8669,432.0104 60.2835,431.4271 60.2835,430.8438 L60.2835,425.5938" fill="#CCD6DD"/><path d="M60.2835,425.5938 L59.1169,425.5938 L59.1169,430.8438 C59.1169,432.1323 60.1616,433.1771 61.4502,433.1771 L66.7002,433.1771 L66.7002,432.0104 L61.4502,432.0104 C60.8669,432.0104 60.2835,431.4271 60.2835,430.8438 L60.2835,425.5938 M57.3669,430.2604 C57.3669,430.5824 57.1055,430.8438 56.7835,430.8438 L52.1169,430.8438 C51.7949,430.8438 51.5335,430.5824 51.5335,430.2604 C51.5335,429.9384 51.7949,429.6771 52.1169,429.6771 L56.7835,429.6771 C57.1055,429.6771 57.3669,429.9384 57.3669,430.2604 M57.3669,432.5938 C57.3669,432.9158 57.1055,433.1771 56.7835,433.1771 L52.1169,433.1771 C51.7949,433.1771 51.5335,432.9158 51.5335,432.5938 C51.5335,432.2718 51.7949,432.0104 52.1169,432.0104 L56.7835,432.0104 C57.1055,432.0104 57.3669,432.2718 57.3669,432.5938 M64.3669,434.9271 C64.3669,435.2491 64.1061,435.5104 63.7835,435.5104 L52.1169,435.5104 C51.7949,435.5104 51.5335,435.2491 51.5335,434.9271 C51.5335,434.6051 51.7949,434.3438 52.1169,434.3438 L63.7835,434.3438 C64.1061,434.3438 64.3669,434.6051 64.3669,434.9271 M64.3669,437.2604 C64.3669,437.583 64.1061,437.8438 63.7835,437.8438 L52.1169,437.8438 C51.7949,437.8438 51.5335,437.583 51.5335,437.2604 C51.5335,436.9378 51.7949,436.6771 52.1169,436.6771 L63.7835,436.6771 C64.1061,436.6771 64.3669,436.9378 64.3669,437.2604 M64.3669,439.5938 C64.3669,439.9163 64.1061,440.1771 63.7835,440.1771 L52.1169,440.1771 C51.7949,440.1771 51.5335,439.9163 51.5335,439.5938 C51.5335,439.2712 51.7949,439.0104 52.1169,439.0104 L63.7835,439.0104 C64.1061,439.0104 64.3669,439.2712 64.3669,439.5938 M64.3669,441.9271 C64.3669,442.2497 64.1061,442.5104 63.7835,442.5104 L52.1169,442.5104 C51.7949,442.5104 51.5335,442.2497 51.5335,441.9271 C51.5335,441.6045 51.7949,441.3438 52.1169,441.3438 L63.7835,441.3438 C64.1061,441.3438 64.3669,441.6045 64.3669,441.9271" fill="#99AAB5"/><text fill="#000000" font-family="sans-serif" font-size="14" lengthAdjust="spacing" textLength="234.7324" x="72.9004" y="445.042">Module Package Marker Interface</text><rect fill="none" height="2" style="stroke:#000000;stroke-width:1;" width="2" x="32" y="78.4219"/><line style="stroke:#000000;stroke-width:1;" x1="25" x2="33" y1="79.4219" y2="79.4219"/><line style="stroke:#000000;stroke-width:1;" x1="25" x2="25" y1="68.0469" y2="79.4219"/><rect fill="none" height="2" style="stroke:#000000;stroke-width:1;" width="2" x="40" y="101.1719"/><line style="stroke:#000000;stroke-width:1;" x1="33" x2="41" y1="102.1719" y2="102.1719"/><line style="stroke:#000000;stroke-width:1;" x1="33" x2="33" y1="79.4219" y2="102.1719"/><rect fill="none" height="2" style="stroke:#000000;stroke-width:1;" width="2" x="48" y="123.9219"/><line style="stroke:#000000;stroke-width:1;" x1="41" x2="49" y1="124.9219" y2="124.9219"/><line style="stroke:#000000;stroke-width:1;" x1="41" x2="41" y1="102.1719" y2="124.9219"/><rect fill="none" height="2" style="stroke:#000000;stroke-width:1;" width="2" x="48" y="146.6719"/><line style="stroke:#000000;stroke-width:1;" x1="41" x2="49" y1="147.6719" y2="147.6719"/><line style="stroke:#000000;stroke-width:1;" x1="41" x2="41" y1="124.9219" y2="147.6719"/><rect fill="none" height="2" style="stroke:#000000;stroke-width:1;" width="2" x="48" y="169.4219"/><line style="stroke:#000000;stroke-width:1;" x1="41" x2="49" y1="170.4219" y2="170.4219"/><line style="stroke:#000000;stroke-width:1;" x1="41" x2="41" y1="147.6719" y2="170.4219"/><rect fill="none" height="2" style="stroke:#000000;stroke-width:1;" width="2" x="48" y="188.9453"/><line style="stroke:#000000;stroke-width:1;" x1="41" x2="49" y1="189.9453" y2="189.9453"/><line style="stroke:#000000;stroke-width:1;" x1="41" x2="41" y1="170.4219" y2="189.9453"/><rect fill="none" height="2" style="stroke:#000000;stroke-width:1;" width="2" x="40" y="208.4688"/><line style="stroke:#000000;stroke-width:1;" x1="33" x2="41" y1="209.4688" y2="209.4688"/><line style="stroke:#000000;stroke-width:1;" x1="33" x2="33" y1="102.1719" y2="209.4688"/><rect fill="none" height="2" style="stroke:#000000;stroke-width:1;" width="2" x="48" y="231.2188"/><line style="stroke:#000000;stroke-width:1;" x1="41" x2="49" y1="232.2188" y2="232.2188"/><line style="stroke:#000000;stroke-width:1;" x1="41" x2="41" y1="209.4688" y2="232.2188"/><rect fill="none" height="2" style="stroke:#000000;stroke-width:1;" width="2" x="56" y="253.9688"/><line style="stroke:#000000;stroke-width:1;" x1="49" x2="57" y1="254.9688" y2="254.9688"/><line style="stroke:#000000;stroke-width:1;" x1="49" x2="49" y1="232.2188" y2="254.9688"/><rect fill="none" height="2" style="stroke:#000000;stroke-width:1;" width="2" x="48" y="276.7188"/><line style="stroke:#000000;stroke-width:1;" x1="41" x2="49" y1="277.7188" y2="277.7188"/><line style="stroke:#000000;stroke-width:1;" x1="41" x2="41" y1="232.2188" y2="277.7188"/><rect fill="none" height="2" style="stroke:#000000;stroke-width:1;" width="2" x="40" y="299.4688"/><line style="stroke:#000000;stroke-width:1;" x1="33" x2="41" y1="300.4688" y2="300.4688"/><line style="stroke:#000000;stroke-width:1;" x1="33" x2="33" y1="209.4688" y2="300.4688"/><rect fill="none" height="2" style="stroke:#000000;stroke-width:1;" width="2" x="48" y="322.2188"/><line style="stroke:#000000;stroke-width:1;" x1="41" x2="49" y1="323.2188" y2="323.2188"/><line style="stroke:#000000;stroke-width:1;" x1="41" x2="41" y1="300.4688" y2="323.2188"/><rect fill="none" height="2" style="stroke:#000000;stroke-width:1;" width="2" x="48" y="344.9688"/><line style="stroke:#000000;stroke-width:1;" x1="41" x2="49" y1="345.9688" y2="345.9688"/><line style="stroke:#000000;stroke-width:1;" x1="41" x2="41" y1="323.2188" y2="345.9688"/><rect fill="none" height="2" style="stroke:#000000;stroke-width:1;" width="2" x="48" y="367.7188"/><line style="stroke:#000000;stroke-width:1;" x1="41" x2="49" y1="368.7188" y2="368.7188"/><line style="stroke:#000000;stroke-width:1;" x1="41" x2="41" y1="345.9688" y2="368.7188"/><rect fill="none" height="2" style="stroke:#000000;stroke-width:1;" width="2" x="56" y="390.4688"/><line style="stroke:#000000;stroke-width:1;" x1="49" x2="57" y1="391.4688" y2="391.4688"/><line style="stroke:#000000;stroke-width:1;" x1="49" x2="49" y1="368.7188" y2="391.4688"/><rect fill="none" height="2" style="stroke:#000000;stroke-width:1;" width="2" x="48" y="413.2188"/><line style="stroke:#000000;stroke-width:1;" x1="41" x2="49" y1="414.2188" y2="414.2188"/><line style="stroke:#000000;stroke-width:1;" x1="41" x2="41" y1="368.7188" y2="414.2188"/><rect fill="none" height="2" style="stroke:#000000;stroke-width:1;" width="2" x="40" y="435.9688"/><line style="stroke:#000000;stroke-width:1;" x1="33" x2="41" y1="436.9688" y2="436.9688"/><line style="stroke:#000000;stroke-width:1;" x1="33" x2="33" y1="300.4688" y2="436.9688"/><text fill="#000000" font-family="sans-serif" font-size="14" lengthAdjust="spacing" textLength="4.4502" x="17" y="463.3389">&#160;</text><!--SRC=[bPDHRzD03CUVkK_Xn-s1TkqqXgAgGfHkeagaYcrzhRp4YOvUV95p5mq1tnrdRM6mRcFAIvB_ppxxRr-xiToWO0qfLSG5V3TlFcA-gSH7BcRUUO4WoAr2n455BmN9O-6dSVS9Z9aaZIR0Yf8frBw8ZioFDKoIqZfQbzvfk2gjvCCQBG-_OeV3oHQ4NIGmrZGr00S2Sy-bhLJRgOtown9pozKwDWfasrIpbxWBmX1b3yBe_z7n7Xtqp-4ogUjT-PtoRz7PDX2JtEjF7JhlCq3w47qE_4IbPHkivyC5JTIuG7TX-bHH_nhxYdvitRXdUxaYwMnEy7aF7iJcTurlgVX3Qy6YEfaNPhtShKs6iY5v46VwbTujveV-FTREcAL33ZTP2Xr9guR1Q30-6PyDnaVNaM2132VdC3fFJi-IqtTmSps3NZusHvVB55eVHMihT2vYRsDl-B5Pw1B3byZ1rfJ0fI2wLRR_0NFkh7YkUmSNgoo1gtYhqHW8LfdHmM5qGQdS5zfPeYTUl7rlKkGgzjS8E3fdPdeXWtpRVlq2]--></g></svg>