<?xml version="1.0" encoding="us-ascii" standalone="no"?><svg xmlns="http://www.w3.org/2000/svg" xmlns:xlink="http://www.w3.org/1999/xlink" contentStyleType="text/css" height="457px" preserveAspectRatio="none" style="width:328px;height:457px;background:#FFFFFF;" version="1.1" viewBox="0 0 328 457" width="328px" zoomAndPan="magnify"><defs><filter height="1" id="b12fxmuix1on940" width="1" x="0" y="0"><feFlood flood-color="#ADD8E6" result="flood"/><feComposite in="SourceGraphic" in2="flood" operator="over"/></filter><filter height="1" id="b12fxmuix1on941" width="1" x="0" y="0"><feFlood flood-color="#90EE90" result="flood"/><feComposite in="SourceGraphic" in2="flood" operator="over"/></filter></defs><g><line style="stroke:#181818;stroke-width:1.5;" x1="31.5" x2="31.5" y1="63.9688" y2="83.9688"/><rect fill="#ADD8E6" height="33.9688" style="stroke:#181818;stroke-width:1.5;" width="43" x="10" y="83.9688"/><text fill="#000000" font-family="sans-serif" font-size="12" lengthAdjust="spacing" textLength="23" x="20" y="105.1074">info</text><line style="stroke:#181818;stroke-width:1.5;" x1="31.5" x2="41.5" y1="149.9219" y2="149.9219"/><rect fill="#90EE90" height="33.9688" style="stroke:#181818;stroke-width:1.5;" width="88" x="41.5" y="132.9375"/><text fill="#000000" font-family="sans-serif" font-size="12" lengthAdjust="spacing" textLength="68" x="51.5" y="154.0762">getVersion</text><line style="stroke:#181818;stroke-width:1.5;" x1="31.5" x2="31.5" y1="117.9375" y2="149.9219"/><line style="stroke:#181818;stroke-width:1.5;" x1="224.5" x2="224.5" y1="63.9688" y2="83.9688"/><rect fill="#ADD8E6" height="33.9688" style="stroke:#181818;stroke-width:1.5;" width="75" x="187" y="83.9688"/><text fill="#000000" font-family="sans-serif" font-size="12" lengthAdjust="spacing" textLength="55" x="197" y="105.1074">category</text><line style="stroke:#181818;stroke-width:1.5;" x1="214.5" x2="224.5" y1="149.9219" y2="149.9219"/><rect fill="#90EE90" height="33.9688" style="stroke:#181818;stroke-width:1.5;" width="38" x="176.5" y="132.9375"/><text fill="#000000" font-family="sans-serif" font-size="12" lengthAdjust="spacing" textLength="18" x="186.5" y="154.0762">list</text><line style="stroke:#181818;stroke-width:1.5;" x1="214.5" x2="224.5" y1="198.8906" y2="198.8906"/><rect fill="#90EE90" height="33.9688" style="stroke:#181818;stroke-width:1.5;" width="55" x="159.5" y="181.9063"/><text fill="#000000" font-family="sans-serif" font-size="12" lengthAdjust="spacing" textLength="35" x="169.5" y="203.0449">detail</text><line style="stroke:#181818;stroke-width:1.5;" x1="214.5" x2="224.5" y1="247.8594" y2="247.8594"/><rect fill="#90EE90" height="33.9688" style="stroke:#181818;stroke-width:1.5;" width="61" x="153.5" y="230.875"/><text fill="#000000" font-family="sans-serif" font-size="12" lengthAdjust="spacing" textLength="41" x="163.5" y="252.0137">create</text><line style="stroke:#181818;stroke-width:1.5;" x1="214.5" x2="224.5" y1="296.8281" y2="296.8281"/><rect fill="#90EE90" height="33.9688" style="stroke:#181818;stroke-width:1.5;" width="65" x="149.5" y="279.8438"/><text fill="#000000" font-family="sans-serif" font-size="12" lengthAdjust="spacing" textLength="45" x="159.5" y="300.9824">update</text><line style="stroke:#181818;stroke-width:1.5;" x1="214.5" x2="224.5" y1="345.7969" y2="345.7969"/><rect fill="#90EE90" height="33.9688" style="stroke:#181818;stroke-width:1.5;" width="60" x="154.5" y="328.8125"/><text fill="#000000" font-family="sans-serif" font-size="12" lengthAdjust="spacing" textLength="40" x="164.5" y="349.9512">delete</text><line style="stroke:#181818;stroke-width:1.5;" x1="224.5" x2="234.5" y1="149.9219" y2="149.9219"/><rect fill="#ADD8E6" height="33.9688" style="stroke:#181818;stroke-width:1.5;" width="69" x="234.5" y="132.9375"/><text fill="#000000" font-family="sans-serif" font-size="12" lengthAdjust="spacing" textLength="49" x="244.5" y="154.0762">product</text><line style="stroke:#181818;stroke-width:1.5;" x1="269" x2="279" y1="198.8906" y2="198.8906"/><rect fill="#90EE90" height="33.9688" style="stroke:#181818;stroke-width:1.5;" width="38" x="279" y="181.9063"/><text fill="#000000" font-family="sans-serif" font-size="12" lengthAdjust="spacing" textLength="18" x="289" y="203.0449">list</text><line style="stroke:#181818;stroke-width:1.5;" x1="269" x2="269" y1="166.9063" y2="198.8906"/><line style="stroke:#181818;stroke-width:1.5;" x1="224.5" x2="224.5" y1="117.9375" y2="345.7969"/><line style="stroke:#181818;stroke-width:1.5;" x1="31.5" x2="224.5" y1="63.9688" y2="63.9688"/><rect fill="#F1F1F1" height="33.9688" style="stroke:#181818;stroke-width:1.5;" width="24" x="116" y="10"/><text fill="#000000" font-family="sans-serif" font-size="12" lengthAdjust="spacing" textLength="4" x="126" y="31.1387">/</text><line style="stroke:#181818;stroke-width:1.5;" x1="128" x2="128" y1="43.9688" y2="63.9688"/><rect fill="#DDDDDD" height="51.9375" id="_legend" style="stroke:#000000;stroke-width:1.5;" width="110" x="25" y="377.7813"/><text fill="#000000" filter="url(#b12fxmuix1on940)" font-family="sans-serif" font-size="12" lengthAdjust="spacing" textLength="20" x="35" y="400.9199">&#160;&#160;&#160;&#160;&#160;</text><text fill="#000000" font-family="sans-serif" font-size="12" lengthAdjust="spacing" textLength="47" x="59" y="400.9199">Domain</text><text fill="#000000" filter="url(#b12fxmuix1on941)" font-family="sans-serif" font-size="12" lengthAdjust="spacing" textLength="20" x="35" y="414.8887">&#160;&#160;&#160;&#160;&#160;</text><text fill="#000000" font-family="sans-serif" font-size="12" lengthAdjust="spacing" textLength="62" x="59" y="414.8887">Operation</text><line style="stroke:#000000;stroke-width:1.0;" x1="35" x2="125" y1="389.7813" y2="389.7813"/><line style="stroke:#000000;stroke-width:1.0;" x1="35" x2="125" y1="403.75" y2="403.75"/><line style="stroke:#000000;stroke-width:1.0;" x1="35" x2="125" y1="417.7188" y2="417.7188"/><line style="stroke:#000000;stroke-width:1.0;" x1="35" x2="35" y1="389.7813" y2="417.7188"/><line style="stroke:#000000;stroke-width:1.0;" x1="55" x2="55" y1="389.7813" y2="417.7188"/><line style="stroke:#000000;stroke-width:1.0;" x1="125" x2="125" y1="389.7813" y2="417.7188"/><!--SRC=[RL3HQi8m57tFLrpOYnQcLXn8AIBe78WosRGlmuUqkOrXCIbfuX3wyKijCkmQGk2US-wvDsTUMchiJrgI08Oa2BwUfE0dcqg7Hn0grnwxWzmWgYDmj0cQKcZLrcVK8jVc-gyd1YbAsm4pj5J83Y8pwCqw25UmReAXn0UYsQamchdiDhlrZzjAH297nK1YRaaLfpJxZlxQPr2VU5Z3imgM-ao5WkfHUBDhATyBDDJwYBpOspT3oDm_TTHa9wcoX-q6BasG40x6e_5a4FRs9mShJ64KGZYD_7sPm66_W9hkazxRRWEbTYP3O7vz8r9NJ-cJDRrG-73AYZD6e9oKP9ri8_XqgPVvn23PaYNcr4aBhohJJ2WUUUlLyvHigEAEydlZGdiVSssgNm00]--></g></svg>