<svg xmlns="http://www.w3.org/2000/svg" xmlns:xlink="http://www.w3.org/1999/xlink" contentStyleType="text/css" data-diagram-type="CLASS" height="498px" preserveAspectRatio="none" style="width:341px;height:498px;background:#FFFFFF;" version="1.1" viewBox="0 0 341 498" width="341px" zoomAndPan="magnify"><defs/><g><text fill="#000000" font-family="sans-serif" font-size="14" lengthAdjust="spacing" textLength="4.4502" x="17" y="39.9951">&#160;</text><path d="M19.3333,49.7135 L19.3333,56.9323 C19.3333,58.1235 19.9709,58.3813 19.9709,58.3813 L26.7224,63.689 C27.7853,64.5244 27.5,62.7656 27.5,62.7656 L27.5,56.1302 L19.3333,49.7135" fill="#662113"/><path d="M35.6667,49.7135 L35.6667,56.9323 C35.6667,58.1235 35.0466,58.3813 35.0466,58.3813 C35.0466,58.3813 29.3492,62.8537 28.2869,63.689 C27.2235,64.5244 27.5,62.7656 27.5,62.7656 L27.5,56.1302 L35.6667,49.7135" fill="#C1694F"/><path d="M28.2519,43.5885 C27.8127,43.2327 27.0923,43.2327 26.6524,43.5885 L19.6629,49.1471 C19.2231,49.503 19.2231,50.0845 19.6629,50.4398 L26.6763,56.0666 C27.1162,56.4219 27.8366,56.4219 28.2764,56.0666 L35.3371,50.3908 C35.7769,50.0355 35.7769,49.454 35.3371,49.0981 L28.2519,43.5885" fill="#D99E82"/><path d="M27.5,64.151 C27.178,64.151 26.9167,63.8699 26.9167,63.5222 L26.9167,55.9815 C26.9167,55.6338 27.178,55.3526 27.5,55.3526 C27.8226,55.3526 28.0833,55.6338 28.0833,55.9815 L28.0833,63.5222 C28.0833,63.8699 27.8226,64.151 27.5,64.151" fill="#D99E82"/><path d="M33.3333,54.2845 C33.3333,54.9285 33.394,55.2447 32.75,55.709 L31.3098,56.8045 C30.6658,57.2695 30.4167,56.8705 30.4167,56.2259 L30.4167,54.4986 C30.4167,54.386 30.4015,54.2653 30.2545,54.144 C28.7507,52.9044 22.9115,48.2663 21.8475,47.41 L24.5454,45.2645 C25.2839,45.8046 30.818,50.0781 33.1333,51.901 C33.2482,51.992 33.3333,52.0924 33.3333,52.202 L33.3333,54.2845" fill="#99AAB5"/><path d="M33.1327,51.901 C30.818,50.0781 25.2839,45.8046 24.5454,45.2645 L23.5415,46.0625 L21.8475,47.41 C22.9121,48.2663 28.7507,52.9044 30.2545,54.144 C30.3426,54.2169 30.3811,54.2898 30.3992,54.3604 L33.2768,52.0469 C33.2417,51.9961 33.1916,51.9471 33.1327,51.901" fill="#CCD6DD"/><path d="M33.3333,54.2845 L33.3333,52.202 C33.3333,52.0924 33.2482,51.9926 33.1327,51.901 C30.818,50.0781 25.2839,45.8046 24.5454,45.2645 L23.3362,46.2264 C25.3154,47.7833 30.6168,51.8736 32.0045,52.9773 C32.1538,53.0963 32.1667,53.2194 32.1667,53.332 L32.1667,56.153 L32.75,55.709 C33.394,55.2441 33.3333,54.9285 33.3333,54.2845" fill="#CCD6DD"/><path d="M33.1327,51.901 C30.818,50.0781 25.2839,45.8046 24.5454,45.2645 L23.3362,46.2264 C25.3154,47.7833 30.6168,51.8736 32.0045,52.9773 C32.0261,52.9942 32.0395,53.0117 32.0553,53.0286 L33.2768,52.0469 C33.2417,51.9961 33.1916,51.9471 33.1327,51.901" fill="#E1E8ED"/><text fill="#000000" font-family="sans-serif" font-size="14" lengthAdjust="spacing" textLength="144.6553" x="42.4502" y="62.7451">example-webservice</text><text fill="#000000" font-family="sans-serif" font-size="14" lengthAdjust="spacing" textLength="4.4502" x="35" y="87.4951">&#160;</text><path d="M39.4502,84.9635 C39.4502,86.2521 40.4949,87.2969 41.7835,87.2969 L55.7835,87.2969 C57.0721,87.2969 58.1169,86.2521 58.1169,84.9635 L58.1169,75.0469 C58.1169,73.7583 57.0721,72.7135 55.7835,72.7135 L50.5335,72.7135 C48.4557,72.7135 48.7835,69.7969 45.6114,69.7969 L41.7835,69.7969 C40.4949,69.7969 39.4502,70.8416 39.4502,72.1302 L39.4502,84.9635" fill="#226699"/><path d="M56.9502,73.8802 L53.1224,73.8802 C49.9502,73.8802 50.278,76.7969 48.2002,76.7969 L42.9502,76.7969 C41.6616,76.7969 40.6169,77.8416 40.6169,79.1302 L40.6169,84.9635 C40.6169,85.2861 40.3555,85.5469 40.0335,85.5469 C39.7115,85.5469 39.4502,85.2861 39.4502,84.9635 C39.4502,86.2521 40.4949,87.2969 41.7835,87.2969 L56.9502,87.2969 C58.2388,87.2969 59.2835,86.2521 59.2835,84.9635 L59.2835,76.2135 C59.2835,74.925 58.2388,73.8802 56.9502,73.8802" fill="#55ACEE"/><text fill="#000000" font-family="sans-serif" font-size="14" lengthAdjust="spacing" textLength="94.4932" x="64.9004" y="87.4951">src/main/java</text><text fill="#000000" font-family="sans-serif" font-size="14" lengthAdjust="spacing" textLength="4.4502" x="43" y="110.2451">&#160;</text><path d="M47.4502,107.7135 C47.4502,109.0021 48.4949,110.0469 49.7835,110.0469 L63.7835,110.0469 C65.0721,110.0469 66.1169,109.0021 66.1169,107.7135 L66.1169,97.7969 C66.1169,96.5083 65.0721,95.4635 63.7835,95.4635 L58.5335,95.4635 C56.4557,95.4635 56.7835,92.5469 53.6114,92.5469 L49.7835,92.5469 C48.4949,92.5469 47.4502,93.5916 47.4502,94.8802 L47.4502,107.7135" fill="#226699"/><path d="M64.9502,96.6302 L61.1224,96.6302 C57.9502,96.6302 58.278,99.5469 56.2002,99.5469 L50.9502,99.5469 C49.6616,99.5469 48.6169,100.5916 48.6169,101.8802 L48.6169,107.7135 C48.6169,108.0361 48.3555,108.2969 48.0335,108.2969 C47.7115,108.2969 47.4502,108.0361 47.4502,107.7135 C47.4502,109.0021 48.4949,110.0469 49.7835,110.0469 L64.9502,110.0469 C66.2388,110.0469 67.2835,109.0021 67.2835,107.7135 L67.2835,98.9635 C67.2835,97.675 66.2388,96.6302 64.9502,96.6302" fill="#55ACEE"/><text fill="#000000" font-family="sans-serif" font-size="14" lengthAdjust="spacing" textLength="243.3594" x="72.9004" y="110.2451">com.example.example.webservice</text><text fill="#000000" font-family="sans-serif" font-size="14" lengthAdjust="spacing" textLength="4.4502" x="51" y="132.9951">&#160;</text><path d="M55.4502,130.4635 C55.4502,131.7521 56.4949,132.7969 57.7835,132.7969 L71.7835,132.7969 C73.0721,132.7969 74.1169,131.7521 74.1169,130.4635 L74.1169,120.5469 C74.1169,119.2583 73.0721,118.2135 71.7835,118.2135 L66.5335,118.2135 C64.4557,118.2135 64.7835,115.2969 61.6114,115.2969 L57.7835,115.2969 C56.4949,115.2969 55.4502,116.3416 55.4502,117.6302 L55.4502,130.4635" fill="#226699"/><path d="M72.9502,119.3802 L69.1224,119.3802 C65.9502,119.3802 66.278,122.2969 64.2002,122.2969 L58.9502,122.2969 C57.6616,122.2969 56.6169,123.3416 56.6169,124.6302 L56.6169,130.4635 C56.6169,130.7861 56.3555,131.0469 56.0335,131.0469 C55.7115,131.0469 55.4502,130.7861 55.4502,130.4635 C55.4502,131.7521 56.4949,132.7969 57.7835,132.7969 L72.9502,132.7969 C74.2388,132.7969 75.2835,131.7521 75.2835,130.4635 L75.2835,121.7135 C75.2835,120.425 74.2388,119.3802 72.9502,119.3802" fill="#55ACEE"/><text fill="#000000" font-family="sans-serif" font-size="14" lengthAdjust="spacing" textLength="34.9795" x="80.9004" y="132.9951">main</text><text fill="#000000" font-family="sans-serif" font-size="14" lengthAdjust="spacing" textLength="4.4502" x="59" y="155.7451">&#160;</text><path d="M63.4502,153.2135 C63.4502,154.5021 64.4949,155.5469 65.7835,155.5469 L79.7835,155.5469 C81.0721,155.5469 82.1169,154.5021 82.1169,153.2135 L82.1169,143.2969 C82.1169,142.0083 81.0721,140.9635 79.7835,140.9635 L74.5335,140.9635 C72.4557,140.9635 72.7835,138.0469 69.6114,138.0469 L65.7835,138.0469 C64.4949,138.0469 63.4502,139.0916 63.4502,140.3802 L63.4502,153.2135" fill="#226699"/><path d="M80.9502,142.1302 L77.1224,142.1302 C73.9502,142.1302 74.278,145.0469 72.2002,145.0469 L66.9502,145.0469 C65.6616,145.0469 64.6169,146.0916 64.6169,147.3802 L64.6169,153.2135 C64.6169,153.5361 64.3555,153.7969 64.0335,153.7969 C63.7115,153.7969 63.4502,153.5361 63.4502,153.2135 C63.4502,154.5021 64.4949,155.5469 65.7835,155.5469 L80.9502,155.5469 C82.2388,155.5469 83.2835,154.5021 83.2835,153.2135 L83.2835,144.4635 C83.2835,143.175 82.2388,142.1302 80.9502,142.1302" fill="#55ACEE"/><text fill="#000000" font-family="sans-serif" font-size="14" lengthAdjust="spacing" textLength="42.8408" x="88.9004" y="155.7451">config</text><text fill="#000000" font-family="sans-serif" font-size="14" lengthAdjust="spacing" textLength="4.4502" x="59" y="178.4951">&#160;</text><path d="M82.3589,164.6387 L77.1089,159.3887 C76.8984,159.1781 76.6061,159.0469 76.2835,159.0469 C75.6395,159.0469 75.1174,159.5695 75.1169,160.2135 C75.1169,160.5355 75.2475,160.8278 75.4587,161.039 L73.2076,163.29 L78.4576,168.54 L80.7087,166.289 C80.9199,166.4995 81.2115,166.6302 81.5335,166.6302 C82.1775,166.6302 82.7008,166.1075 82.7002,165.4635 C82.7002,165.1415 82.5695,164.8499 82.3589,164.6387" fill="#E1E8ED"/><path d="M76.2835,159.0469 L67.5335,159.0469 C66.2449,159.0469 65.2002,160.0916 65.2002,161.3802 L65.2002,177.7135 C65.2002,179.0021 66.2449,180.0469 67.5335,180.0469 L80.3669,180.0469 C81.6554,180.0469 82.7002,179.0021 82.7002,177.7135 L82.7002,165.4635 L77.4502,165.4635 C76.8669,165.4635 76.2835,164.8802 76.2835,164.2969 L76.2835,159.0469" fill="#CCD6DD"/><path d="M76.2835,159.0469 L75.1169,159.0469 L75.1169,164.2969 C75.1169,165.5855 76.1616,166.6302 77.4502,166.6302 L82.7002,166.6302 L82.7002,165.4635 L77.4502,165.4635 C76.8669,165.4635 76.2835,164.8802 76.2835,164.2969 L76.2835,159.0469 M73.3669,163.7135 C73.3669,164.0355 73.1055,164.2969 72.7835,164.2969 L68.1169,164.2969 C67.7949,164.2969 67.5335,164.0355 67.5335,163.7135 C67.5335,163.3915 67.7949,163.1302 68.1169,163.1302 L72.7835,163.1302 C73.1055,163.1302 73.3669,163.3915 73.3669,163.7135 M73.3669,166.0469 C73.3669,166.3689 73.1055,166.6302 72.7835,166.6302 L68.1169,166.6302 C67.7949,166.6302 67.5335,166.3689 67.5335,166.0469 C67.5335,165.7249 67.7949,165.4635 68.1169,165.4635 L72.7835,165.4635 C73.1055,165.4635 73.3669,165.7249 73.3669,166.0469 M80.3669,168.3802 C80.3669,168.7022 80.1061,168.9635 79.7835,168.9635 L68.1169,168.9635 C67.7949,168.9635 67.5335,168.7022 67.5335,168.3802 C67.5335,168.0582 67.7949,167.7969 68.1169,167.7969 L79.7835,167.7969 C80.1061,167.7969 80.3669,168.0582 80.3669,168.3802 M80.3669,170.7135 C80.3669,171.0361 80.1061,171.2969 79.7835,171.2969 L68.1169,171.2969 C67.7949,171.2969 67.5335,171.0361 67.5335,170.7135 C67.5335,170.391 67.7949,170.1302 68.1169,170.1302 L79.7835,170.1302 C80.1061,170.1302 80.3669,170.391 80.3669,170.7135 M80.3669,173.0469 C80.3669,173.3695 80.1061,173.6302 79.7835,173.6302 L68.1169,173.6302 C67.7949,173.6302 67.5335,173.3695 67.5335,173.0469 C67.5335,172.7243 67.7949,172.4635 68.1169,172.4635 L79.7835,172.4635 C80.1061,172.4635 80.3669,172.7243 80.3669,173.0469 M80.3669,175.3802 C80.3669,175.7028 80.1061,175.9635 79.7835,175.9635 L68.1169,175.9635 C67.7949,175.9635 67.5335,175.7028 67.5335,175.3802 C67.5335,175.0576 67.7949,174.7969 68.1169,174.7969 L79.7835,174.7969 C80.1061,174.7969 80.3669,175.0576 80.3669,175.3802" fill="#99AAB5"/><text fill="#000000" font-family="sans-serif" font-size="14" lengthAdjust="spacing" textLength="93.0439" x="88.9004" y="178.4951">MainProgram</text><text fill="#000000" font-family="sans-serif" font-size="14" lengthAdjust="spacing" textLength="4.4502" x="51" y="201.2451">&#160;</text><path d="M55.4502,198.7135 C55.4502,200.0021 56.4949,201.0469 57.7835,201.0469 L71.7835,201.0469 C73.0721,201.0469 74.1169,200.0021 74.1169,198.7135 L74.1169,188.7969 C74.1169,187.5083 73.0721,186.4635 71.7835,186.4635 L66.5335,186.4635 C64.4557,186.4635 64.7835,183.5469 61.6114,183.5469 L57.7835,183.5469 C56.4949,183.5469 55.4502,184.5916 55.4502,185.8802 L55.4502,198.7135" fill="#226699"/><path d="M72.9502,187.6302 L69.1224,187.6302 C65.9502,187.6302 66.278,190.5469 64.2002,190.5469 L58.9502,190.5469 C57.6616,190.5469 56.6169,191.5916 56.6169,192.8802 L56.6169,198.7135 C56.6169,199.0361 56.3555,199.2969 56.0335,199.2969 C55.7115,199.2969 55.4502,199.0361 55.4502,198.7135 C55.4502,200.0021 56.4949,201.0469 57.7835,201.0469 L72.9502,201.0469 C74.2388,201.0469 75.2835,200.0021 75.2835,198.7135 L75.2835,189.9635 C75.2835,188.675 74.2388,187.6302 72.9502,187.6302" fill="#55ACEE"/><text fill="#000000" font-family="sans-serif" font-size="14" lengthAdjust="spacing" textLength="28.9502" x="80.9004" y="201.2451">web</text><text fill="#000000" font-family="sans-serif" font-size="14" lengthAdjust="spacing" textLength="4.4502" x="59" y="223.9951">&#160;</text><path d="M63.4502,221.4635 C63.4502,222.7521 64.4949,223.7969 65.7835,223.7969 L79.7835,223.7969 C81.0721,223.7969 82.1169,222.7521 82.1169,221.4635 L82.1169,211.5469 C82.1169,210.2583 81.0721,209.2135 79.7835,209.2135 L74.5335,209.2135 C72.4557,209.2135 72.7835,206.2969 69.6114,206.2969 L65.7835,206.2969 C64.4949,206.2969 63.4502,207.3416 63.4502,208.6302 L63.4502,221.4635" fill="#226699"/><path d="M80.9502,210.3802 L77.1224,210.3802 C73.9502,210.3802 74.278,213.2969 72.2002,213.2969 L66.9502,213.2969 C65.6616,213.2969 64.6169,214.3416 64.6169,215.6302 L64.6169,221.4635 C64.6169,221.7861 64.3555,222.0469 64.0335,222.0469 C63.7115,222.0469 63.4502,221.7861 63.4502,221.4635 C63.4502,222.7521 64.4949,223.7969 65.7835,223.7969 L80.9502,223.7969 C82.2388,223.7969 83.2835,222.7521 83.2835,221.4635 L83.2835,212.7135 C83.2835,211.425 82.2388,210.3802 80.9502,210.3802" fill="#55ACEE"/><text fill="#000000" font-family="sans-serif" font-size="14" lengthAdjust="spacing" textLength="42.8408" x="88.9004" y="223.9951">config</text><text fill="#000000" font-family="sans-serif" font-size="14" lengthAdjust="spacing" textLength="4.4502" x="59" y="246.7451">&#160;</text><path d="M63.4502,244.2135 C63.4502,245.5021 64.4949,246.5469 65.7835,246.5469 L79.7835,246.5469 C81.0721,246.5469 82.1169,245.5021 82.1169,244.2135 L82.1169,234.2969 C82.1169,233.0083 81.0721,231.9635 79.7835,231.9635 L74.5335,231.9635 C72.4557,231.9635 72.7835,229.0469 69.6114,229.0469 L65.7835,229.0469 C64.4949,229.0469 63.4502,230.0916 63.4502,231.3802 L63.4502,244.2135" fill="#226699"/><path d="M80.9502,233.1302 L77.1224,233.1302 C73.9502,233.1302 74.278,236.0469 72.2002,236.0469 L66.9502,236.0469 C65.6616,236.0469 64.6169,237.0916 64.6169,238.3802 L64.6169,244.2135 C64.6169,244.5361 64.3555,244.7969 64.0335,244.7969 C63.7115,244.7969 63.4502,244.5361 63.4502,244.2135 C63.4502,245.5021 64.4949,246.5469 65.7835,246.5469 L80.9502,246.5469 C82.2388,246.5469 83.2835,245.5021 83.2835,244.2135 L83.2835,235.4635 C83.2835,234.175 82.2388,233.1302 80.9502,233.1302" fill="#55ACEE"/><text fill="#000000" font-family="sans-serif" font-size="14" lengthAdjust="spacing" textLength="67.0947" x="88.9004" y="246.7451">controller</text><text fill="#000000" font-family="sans-serif" font-size="14" lengthAdjust="spacing" textLength="4.4502" x="59" y="269.4951">&#160;</text><path d="M63.4502,266.9635 C63.4502,268.2521 64.4949,269.2969 65.7835,269.2969 L79.7835,269.2969 C81.0721,269.2969 82.1169,268.2521 82.1169,266.9635 L82.1169,257.0469 C82.1169,255.7583 81.0721,254.7135 79.7835,254.7135 L74.5335,254.7135 C72.4557,254.7135 72.7835,251.7969 69.6114,251.7969 L65.7835,251.7969 C64.4949,251.7969 63.4502,252.8416 63.4502,254.1302 L63.4502,266.9635" fill="#226699"/><path d="M80.9502,255.8802 L77.1224,255.8802 C73.9502,255.8802 74.278,258.7969 72.2002,258.7969 L66.9502,258.7969 C65.6616,258.7969 64.6169,259.8416 64.6169,261.1302 L64.6169,266.9635 C64.6169,267.2861 64.3555,267.5469 64.0335,267.5469 C63.7115,267.5469 63.4502,267.2861 63.4502,266.9635 C63.4502,268.2521 64.4949,269.2969 65.7835,269.2969 L80.9502,269.2969 C82.2388,269.2969 83.2835,268.2521 83.2835,266.9635 L83.2835,258.2135 C83.2835,256.925 82.2388,255.8802 80.9502,255.8802" fill="#55ACEE"/><text fill="#000000" font-family="sans-serif" font-size="14" lengthAdjust="spacing" textLength="22.251" x="88.9004" y="269.4951">. . .</text><text fill="#000000" font-family="sans-serif" font-size="14" lengthAdjust="spacing" textLength="4.4502" x="51" y="292.2451">&#160;</text><path d="M55.4502,289.7135 C55.4502,291.0021 56.4949,292.0469 57.7835,292.0469 L71.7835,292.0469 C73.0721,292.0469 74.1169,291.0021 74.1169,289.7135 L74.1169,279.7969 C74.1169,278.5083 73.0721,277.4635 71.7835,277.4635 L66.5335,277.4635 C64.4557,277.4635 64.7835,274.5469 61.6114,274.5469 L57.7835,274.5469 C56.4949,274.5469 55.4502,275.5916 55.4502,276.8802 L55.4502,289.7135" fill="#226699"/><path d="M72.9502,278.6302 L69.1224,278.6302 C65.9502,278.6302 66.278,281.5469 64.2002,281.5469 L58.9502,281.5469 C57.6616,281.5469 56.6169,282.5916 56.6169,283.8802 L56.6169,289.7135 C56.6169,290.0361 56.3555,290.2969 56.0335,290.2969 C55.7115,290.2969 55.4502,290.0361 55.4502,289.7135 C55.4502,291.0021 56.4949,292.0469 57.7835,292.0469 L72.9502,292.0469 C74.2388,292.0469 75.2835,291.0021 75.2835,289.7135 L75.2835,280.9635 C75.2835,279.675 74.2388,278.6302 72.9502,278.6302" fill="#55ACEE"/><text fill="#000000" font-family="sans-serif" font-size="14" lengthAdjust="spacing" textLength="77.2256" x="80.9004" y="292.2451">application</text><text fill="#000000" font-family="sans-serif" font-size="14" lengthAdjust="spacing" textLength="4.4502" x="59" y="314.9951">&#160;</text><path d="M63.4502,312.4635 C63.4502,313.7521 64.4949,314.7969 65.7835,314.7969 L79.7835,314.7969 C81.0721,314.7969 82.1169,313.7521 82.1169,312.4635 L82.1169,302.5469 C82.1169,301.2583 81.0721,300.2135 79.7835,300.2135 L74.5335,300.2135 C72.4557,300.2135 72.7835,297.2969 69.6114,297.2969 L65.7835,297.2969 C64.4949,297.2969 63.4502,298.3416 63.4502,299.6302 L63.4502,312.4635" fill="#226699"/><path d="M80.9502,301.3802 L77.1224,301.3802 C73.9502,301.3802 74.278,304.2969 72.2002,304.2969 L66.9502,304.2969 C65.6616,304.2969 64.6169,305.3416 64.6169,306.6302 L64.6169,312.4635 C64.6169,312.7861 64.3555,313.0469 64.0335,313.0469 C63.7115,313.0469 63.4502,312.7861 63.4502,312.4635 C63.4502,313.7521 64.4949,314.7969 65.7835,314.7969 L80.9502,314.7969 C82.2388,314.7969 83.2835,313.7521 83.2835,312.4635 L83.2835,303.7135 C83.2835,302.425 82.2388,301.3802 80.9502,301.3802" fill="#55ACEE"/><text fill="#000000" font-family="sans-serif" font-size="14" lengthAdjust="spacing" textLength="42.8408" x="88.9004" y="314.9951">config</text><text fill="#000000" font-family="sans-serif" font-size="14" lengthAdjust="spacing" textLength="4.4502" x="59" y="337.7451">&#160;</text><path d="M63.4502,335.2135 C63.4502,336.5021 64.4949,337.5469 65.7835,337.5469 L79.7835,337.5469 C81.0721,337.5469 82.1169,336.5021 82.1169,335.2135 L82.1169,325.2969 C82.1169,324.0083 81.0721,322.9635 79.7835,322.9635 L74.5335,322.9635 C72.4557,322.9635 72.7835,320.0469 69.6114,320.0469 L65.7835,320.0469 C64.4949,320.0469 63.4502,321.0916 63.4502,322.3802 L63.4502,335.2135" fill="#226699"/><path d="M80.9502,324.1302 L77.1224,324.1302 C73.9502,324.1302 74.278,327.0469 72.2002,327.0469 L66.9502,327.0469 C65.6616,327.0469 64.6169,328.0916 64.6169,329.3802 L64.6169,335.2135 C64.6169,335.5361 64.3555,335.7969 64.0335,335.7969 C63.7115,335.7969 63.4502,335.5361 63.4502,335.2135 C63.4502,336.5021 64.4949,337.5469 65.7835,337.5469 L80.9502,337.5469 C82.2388,337.5469 83.2835,336.5021 83.2835,335.2135 L83.2835,326.4635 C83.2835,325.175 82.2388,324.1302 80.9502,324.1302" fill="#55ACEE"/><text fill="#000000" font-family="sans-serif" font-size="14" lengthAdjust="spacing" textLength="22.251" x="88.9004" y="337.7451">. . .</text><text fill="#000000" font-family="sans-serif" font-size="14" lengthAdjust="spacing" textLength="4.4502" x="51" y="360.4951">&#160;</text><path d="M55.4502,357.9635 C55.4502,359.2521 56.4949,360.2969 57.7835,360.2969 L71.7835,360.2969 C73.0721,360.2969 74.1169,359.2521 74.1169,357.9635 L74.1169,348.0469 C74.1169,346.7583 73.0721,345.7135 71.7835,345.7135 L66.5335,345.7135 C64.4557,345.7135 64.7835,342.7969 61.6114,342.7969 L57.7835,342.7969 C56.4949,342.7969 55.4502,343.8416 55.4502,345.1302 L55.4502,357.9635" fill="#226699"/><path d="M72.9502,346.8802 L69.1224,346.8802 C65.9502,346.8802 66.278,349.7969 64.2002,349.7969 L58.9502,349.7969 C57.6616,349.7969 56.6169,350.8416 56.6169,352.1302 L56.6169,357.9635 C56.6169,358.2861 56.3555,358.5469 56.0335,358.5469 C55.7115,358.5469 55.4502,358.2861 55.4502,357.9635 C55.4502,359.2521 56.4949,360.2969 57.7835,360.2969 L72.9502,360.2969 C74.2388,360.2969 75.2835,359.2521 75.2835,357.9635 L75.2835,349.2135 C75.2835,347.925 74.2388,346.8802 72.9502,346.8802" fill="#55ACEE"/><text fill="#000000" font-family="sans-serif" font-size="14" lengthAdjust="spacing" textLength="52.4316" x="80.9004" y="360.4951">domain</text><text fill="#000000" font-family="sans-serif" font-size="14" lengthAdjust="spacing" textLength="4.4502" x="59" y="383.2451">&#160;</text><path d="M63.4502,380.7135 C63.4502,382.0021 64.4949,383.0469 65.7835,383.0469 L79.7835,383.0469 C81.0721,383.0469 82.1169,382.0021 82.1169,380.7135 L82.1169,370.7969 C82.1169,369.5083 81.0721,368.4635 79.7835,368.4635 L74.5335,368.4635 C72.4557,368.4635 72.7835,365.5469 69.6114,365.5469 L65.7835,365.5469 C64.4949,365.5469 63.4502,366.5916 63.4502,367.8802 L63.4502,380.7135" fill="#226699"/><path d="M80.9502,369.6302 L77.1224,369.6302 C73.9502,369.6302 74.278,372.5469 72.2002,372.5469 L66.9502,372.5469 C65.6616,372.5469 64.6169,373.5916 64.6169,374.8802 L64.6169,380.7135 C64.6169,381.0361 64.3555,381.2969 64.0335,381.2969 C63.7115,381.2969 63.4502,381.0361 63.4502,380.7135 C63.4502,382.0021 64.4949,383.0469 65.7835,383.0469 L80.9502,383.0469 C82.2388,383.0469 83.2835,382.0021 83.2835,380.7135 L83.2835,371.9635 C83.2835,370.675 82.2388,369.6302 80.9502,369.6302" fill="#55ACEE"/><text fill="#000000" font-family="sans-serif" font-size="14" lengthAdjust="spacing" textLength="22.251" x="88.9004" y="383.2451">. . .</text><text fill="#000000" font-family="sans-serif" font-size="14" lengthAdjust="spacing" textLength="4.4502" x="51" y="405.9951">&#160;</text><path d="M55.4502,403.4635 C55.4502,404.7521 56.4949,405.7969 57.7835,405.7969 L71.7835,405.7969 C73.0721,405.7969 74.1169,404.7521 74.1169,403.4635 L74.1169,393.5469 C74.1169,392.2583 73.0721,391.2135 71.7835,391.2135 L66.5335,391.2135 C64.4557,391.2135 64.7835,388.2969 61.6114,388.2969 L57.7835,388.2969 C56.4949,388.2969 55.4502,389.3416 55.4502,390.6302 L55.4502,403.4635" fill="#226699"/><path d="M72.9502,392.3802 L69.1224,392.3802 C65.9502,392.3802 66.278,395.2969 64.2002,395.2969 L58.9502,395.2969 C57.6616,395.2969 56.6169,396.3416 56.6169,397.6302 L56.6169,403.4635 C56.6169,403.7861 56.3555,404.0469 56.0335,404.0469 C55.7115,404.0469 55.4502,403.7861 55.4502,403.4635 C55.4502,404.7521 56.4949,405.7969 57.7835,405.7969 L72.9502,405.7969 C74.2388,405.7969 75.2835,404.7521 75.2835,403.4635 L75.2835,394.7135 C75.2835,393.425 74.2388,392.3802 72.9502,392.3802" fill="#55ACEE"/><text fill="#000000" font-family="sans-serif" font-size="14" lengthAdjust="spacing" textLength="95.8672" x="80.9004" y="405.9951">infrastructure</text><text fill="#000000" font-family="sans-serif" font-size="14" lengthAdjust="spacing" textLength="4.4502" x="59" y="428.7451">&#160;</text><path d="M63.4502,426.2135 C63.4502,427.5021 64.4949,428.5469 65.7835,428.5469 L79.7835,428.5469 C81.0721,428.5469 82.1169,427.5021 82.1169,426.2135 L82.1169,416.2969 C82.1169,415.0083 81.0721,413.9635 79.7835,413.9635 L74.5335,413.9635 C72.4557,413.9635 72.7835,411.0469 69.6114,411.0469 L65.7835,411.0469 C64.4949,411.0469 63.4502,412.0916 63.4502,413.3802 L63.4502,426.2135" fill="#226699"/><path d="M80.9502,415.1302 L77.1224,415.1302 C73.9502,415.1302 74.278,418.0469 72.2002,418.0469 L66.9502,418.0469 C65.6616,418.0469 64.6169,419.0916 64.6169,420.3802 L64.6169,426.2135 C64.6169,426.5361 64.3555,426.7969 64.0335,426.7969 C63.7115,426.7969 63.4502,426.5361 63.4502,426.2135 C63.4502,427.5021 64.4949,428.5469 65.7835,428.5469 L80.9502,428.5469 C82.2388,428.5469 83.2835,427.5021 83.2835,426.2135 L83.2835,417.4635 C83.2835,416.175 82.2388,415.1302 80.9502,415.1302" fill="#55ACEE"/><text fill="#000000" font-family="sans-serif" font-size="14" lengthAdjust="spacing" textLength="42.8408" x="88.9004" y="428.7451">config</text><text fill="#000000" font-family="sans-serif" font-size="14" lengthAdjust="spacing" textLength="4.4502" x="59" y="451.4951">&#160;</text><path d="M63.4502,448.9635 C63.4502,450.2521 64.4949,451.2969 65.7835,451.2969 L79.7835,451.2969 C81.0721,451.2969 82.1169,450.2521 82.1169,448.9635 L82.1169,439.0469 C82.1169,437.7583 81.0721,436.7135 79.7835,436.7135 L74.5335,436.7135 C72.4557,436.7135 72.7835,433.7969 69.6114,433.7969 L65.7835,433.7969 C64.4949,433.7969 63.4502,434.8416 63.4502,436.1302 L63.4502,448.9635" fill="#226699"/><path d="M80.9502,437.8802 L77.1224,437.8802 C73.9502,437.8802 74.278,440.7969 72.2002,440.7969 L66.9502,440.7969 C65.6616,440.7969 64.6169,441.8416 64.6169,443.1302 L64.6169,448.9635 C64.6169,449.2861 64.3555,449.5469 64.0335,449.5469 C63.7115,449.5469 63.4502,449.2861 63.4502,448.9635 C63.4502,450.2521 64.4949,451.2969 65.7835,451.2969 L80.9502,451.2969 C82.2388,451.2969 83.2835,450.2521 83.2835,448.9635 L83.2835,440.2135 C83.2835,438.925 82.2388,437.8802 80.9502,437.8802" fill="#55ACEE"/><text fill="#000000" font-family="sans-serif" font-size="14" lengthAdjust="spacing" textLength="22.251" x="88.9004" y="451.4951">. . .</text><rect fill="none" height="2" style="stroke:#000000;stroke-width:1;" width="2" x="32" y="78.4219"/><line style="stroke:#000000;stroke-width:1;" x1="25" x2="33" y1="79.4219" y2="79.4219"/><line style="stroke:#000000;stroke-width:1;" x1="25" x2="25" y1="68.0469" y2="79.4219"/><rect fill="none" height="2" style="stroke:#000000;stroke-width:1;" width="2" x="40" y="101.1719"/><line style="stroke:#000000;stroke-width:1;" x1="33" x2="41" y1="102.1719" y2="102.1719"/><line style="stroke:#000000;stroke-width:1;" x1="33" x2="33" y1="79.4219" y2="102.1719"/><rect fill="none" height="2" style="stroke:#000000;stroke-width:1;" width="2" x="48" y="123.9219"/><line style="stroke:#000000;stroke-width:1;" x1="41" x2="49" y1="124.9219" y2="124.9219"/><line style="stroke:#000000;stroke-width:1;" x1="41" x2="41" y1="102.1719" y2="124.9219"/><rect fill="none" height="2" style="stroke:#000000;stroke-width:1;" width="2" x="56" y="146.6719"/><line style="stroke:#000000;stroke-width:1;" x1="49" x2="57" y1="147.6719" y2="147.6719"/><line style="stroke:#000000;stroke-width:1;" x1="49" x2="49" y1="124.9219" y2="147.6719"/><rect fill="none" height="2" style="stroke:#000000;stroke-width:1;" width="2" x="56" y="169.4219"/><line style="stroke:#000000;stroke-width:1;" x1="49" x2="57" y1="170.4219" y2="170.4219"/><line style="stroke:#000000;stroke-width:1;" x1="49" x2="49" y1="147.6719" y2="170.4219"/><rect fill="none" height="2" style="stroke:#000000;stroke-width:1;" width="2" x="48" y="192.1719"/><line style="stroke:#000000;stroke-width:1;" x1="41" x2="49" y1="193.1719" y2="193.1719"/><line style="stroke:#000000;stroke-width:1;" x1="41" x2="41" y1="124.9219" y2="193.1719"/><rect fill="none" height="2" style="stroke:#000000;stroke-width:1;" width="2" x="56" y="214.9219"/><line style="stroke:#000000;stroke-width:1;" x1="49" x2="57" y1="215.9219" y2="215.9219"/><line style="stroke:#000000;stroke-width:1;" x1="49" x2="49" y1="193.1719" y2="215.9219"/><rect fill="none" height="2" style="stroke:#000000;stroke-width:1;" width="2" x="56" y="237.6719"/><line style="stroke:#000000;stroke-width:1;" x1="49" x2="57" y1="238.6719" y2="238.6719"/><line style="stroke:#000000;stroke-width:1;" x1="49" x2="49" y1="215.9219" y2="238.6719"/><rect fill="none" height="2" style="stroke:#000000;stroke-width:1;" width="2" x="56" y="260.4219"/><line style="stroke:#000000;stroke-width:1;" x1="49" x2="57" y1="261.4219" y2="261.4219"/><line style="stroke:#000000;stroke-width:1;" x1="49" x2="49" y1="238.6719" y2="261.4219"/><rect fill="none" height="2" style="stroke:#000000;stroke-width:1;" width="2" x="48" y="283.1719"/><line style="stroke:#000000;stroke-width:1;" x1="41" x2="49" y1="284.1719" y2="284.1719"/><line style="stroke:#000000;stroke-width:1;" x1="41" x2="41" y1="193.1719" y2="284.1719"/><rect fill="none" height="2" style="stroke:#000000;stroke-width:1;" width="2" x="56" y="305.9219"/><line style="stroke:#000000;stroke-width:1;" x1="49" x2="57" y1="306.9219" y2="306.9219"/><line style="stroke:#000000;stroke-width:1;" x1="49" x2="49" y1="284.1719" y2="306.9219"/><rect fill="none" height="2" style="stroke:#000000;stroke-width:1;" width="2" x="56" y="328.6719"/><line style="stroke:#000000;stroke-width:1;" x1="49" x2="57" y1="329.6719" y2="329.6719"/><line style="stroke:#000000;stroke-width:1;" x1="49" x2="49" y1="306.9219" y2="329.6719"/><rect fill="none" height="2" style="stroke:#000000;stroke-width:1;" width="2" x="48" y="351.4219"/><line style="stroke:#000000;stroke-width:1;" x1="41" x2="49" y1="352.4219" y2="352.4219"/><line style="stroke:#000000;stroke-width:1;" x1="41" x2="41" y1="284.1719" y2="352.4219"/><rect fill="none" height="2" style="stroke:#000000;stroke-width:1;" width="2" x="56" y="374.1719"/><line style="stroke:#000000;stroke-width:1;" x1="49" x2="57" y1="375.1719" y2="375.1719"/><line style="stroke:#000000;stroke-width:1;" x1="49" x2="49" y1="352.4219" y2="375.1719"/><rect fill="none" height="2" style="stroke:#000000;stroke-width:1;" width="2" x="48" y="396.9219"/><line style="stroke:#000000;stroke-width:1;" x1="41" x2="49" y1="397.9219" y2="397.9219"/><line style="stroke:#000000;stroke-width:1;" x1="41" x2="41" y1="352.4219" y2="397.9219"/><rect fill="none" height="2" style="stroke:#000000;stroke-width:1;" width="2" x="56" y="419.6719"/><line style="stroke:#000000;stroke-width:1;" x1="49" x2="57" y1="420.6719" y2="420.6719"/><line style="stroke:#000000;stroke-width:1;" x1="49" x2="49" y1="397.9219" y2="420.6719"/><rect fill="none" height="2" style="stroke:#000000;stroke-width:1;" width="2" x="56" y="442.4219"/><line style="stroke:#000000;stroke-width:1;" x1="49" x2="57" y1="443.4219" y2="443.4219"/><line style="stroke:#000000;stroke-width:1;" x1="49" x2="49" y1="420.6719" y2="443.4219"/><text fill="#000000" font-family="sans-serif" font-size="14" lengthAdjust="spacing" textLength="4.4502" x="17" y="469.792">&#160;</text><!--SRC=[fLFRIiD047rsls8UzS6g5Iy44R5Ue3HGlFIrJ3UJiBgP3PFTggZ_xiGRWhQWaeTaSywSSnZEjhUE6nIiOKGLSG6FPkKOxMqb8N4n23u8H45kbKGS5GnIa7m7der_5J3c86jK02lA3e7kiMuyhT_Hh2MPEqlcQGe7MUayJSlWLKfPhTYD6XrltE0S3S0F51lgthlOv_kBAC2FKvteAxP0aqjNVSKRJJqjqJgkfgbHIgu2OmcLBcYHXwRuZSKtF4hmdcGnfzSzYzonQRop65tWlwTOwb24vLjSEkou56oZ91kJq7yJcgwWxpKxwhvJxOqPU-HudOzWJjBg7c2hrz_ix_JwgrU9O8WCctkmjPTjxsJRkt1zDO0ENZEhv-CHj2699IYSXdIprErnpGorXd2HEBgQCZWNH3_9Ftx0AS-T1AwxrWydUGQNQQRJ60ackJcX4fEFohAXq1vbwdYslcz6o5NgBWLmyjuCz7f5UNWxlG00]--></g></svg>