<?xml version="1.0" encoding="us-ascii" standalone="no"?><svg xmlns="http://www.w3.org/2000/svg" xmlns:xlink="http://www.w3.org/1999/xlink" contentStyleType="text/css" height="498px" preserveAspectRatio="none" style="width:333px;height:498px;background:#FFFFFF;" version="1.1" viewBox="0 0 333 498" width="333px" zoomAndPan="magnify"><defs/><g><text fill="#000000" font-family="sans-serif" font-size="14" lengthAdjust="spacing" textLength="4" x="17" y="39.9951">&#160;</text><path d="M19.3333,49.7135 L19.3333,56.9323 C19.3333,58.1235 19.9709,58.3813 19.9709,58.3813 L26.7224,63.689 C27.7853,64.5244 27.5,62.7656 27.5,62.7656 L27.5,56.1302 L19.3333,49.7135 " fill="#662113" style="stroke:;stroke-width:0.0;stroke-dasharray:;"/><path d="M35.6667,49.7135 L35.6667,56.9323 C35.6667,58.1235 35.0466,58.3813 35.0466,58.3813 C35.0466,58.3813 29.3492,62.8537 28.2869,63.689 C27.2235,64.5244 27.5,62.7656 27.5,62.7656 L27.5,56.1302 L35.6667,49.7135 " fill="#C1694F" style="stroke:;stroke-width:0.0;stroke-dasharray:;"/><path d="M28.2519,43.5885 C27.8127,43.2327 27.0923,43.2327 26.6524,43.5885 L19.6629,49.1471 C19.2231,49.503 19.2231,50.0845 19.6629,50.4398 L26.6763,56.0666 C27.1162,56.4219 27.8366,56.4219 28.2764,56.0666 L35.3371,50.3908 C35.7769,50.0355 35.7769,49.454 35.3371,49.0981 L28.2519,43.5885 " fill="#D99E82" style="stroke:;stroke-width:0.0;stroke-dasharray:;"/><path d="M27.5,64.151 C27.178,64.151 26.9167,63.8699 26.9167,63.5222 L26.9167,55.9815 C26.9167,55.6338 27.178,55.3526 27.5,55.3526 C27.8226,55.3526 28.0833,55.6338 28.0833,55.9815 L28.0833,63.5222 C28.0833,63.8699 27.8226,64.151 27.5,64.151 " fill="#D99E82" style="stroke:;stroke-width:0.0;stroke-dasharray:;"/><path d="M33.3333,54.2845 C33.3333,54.9285 33.394,55.2447 32.75,55.709 L31.3098,56.8045 C30.6658,57.2695 30.4167,56.8705 30.4167,56.2259 L30.4167,54.4986 C30.4167,54.386 30.4015,54.2653 30.2545,54.144 C28.7507,52.9044 22.9115,48.2663 21.8475,47.41 L24.5454,45.2645 C25.2839,45.8046 30.818,50.0781 33.1333,51.901 C33.2482,51.992 33.3333,52.0924 33.3333,52.202 L33.3333,54.2845 " fill="#99AAB5" style="stroke:;stroke-width:0.0;stroke-dasharray:;"/><path d="M33.1327,51.901 C30.818,50.0781 25.2839,45.8046 24.5454,45.2645 L23.5415,46.0625 L21.8475,47.41 C22.9121,48.2663 28.7507,52.9044 30.2545,54.144 C30.3426,54.2169 30.3811,54.2898 30.3992,54.3604 L33.2768,52.0469 C33.2417,51.9961 33.1916,51.9471 33.1327,51.901 " fill="#CCD6DD" style="stroke:;stroke-width:0.0;stroke-dasharray:;"/><path d="M33.3333,54.2845 L33.3333,52.202 C33.3333,52.0924 33.2482,51.9926 33.1327,51.901 C30.818,50.0781 25.2839,45.8046 24.5454,45.2645 L23.3362,46.2264 C25.3154,47.7833 30.6168,51.8736 32.0045,52.9773 C32.1538,53.0963 32.1667,53.2194 32.1667,53.332 L32.1667,56.153 L32.75,55.709 C33.394,55.2441 33.3333,54.9285 33.3333,54.2845 " fill="#CCD6DD" style="stroke:;stroke-width:0.0;stroke-dasharray:;"/><path d="M33.1327,51.901 C30.818,50.0781 25.2839,45.8046 24.5454,45.2645 L23.3362,46.2264 C25.3154,47.7833 30.6168,51.8736 32.0045,52.9773 C32.0261,52.9942 32.0395,53.0117 32.0553,53.0286 L33.2768,52.0469 C33.2417,51.9961 33.1916,51.9471 33.1327,51.901 " fill="#E1E8ED" style="stroke:;stroke-width:0.0;stroke-dasharray:;"/><text fill="#000000" font-family="sans-serif" font-size="14" lengthAdjust="spacing" textLength="141" x="42" y="62.7451">example-webservice</text><text fill="#000000" font-family="sans-serif" font-size="14" lengthAdjust="spacing" textLength="4" x="35" y="87.4951">&#160;</text><path d="M39,84.9635 C39,86.2521 40.0448,87.2969 41.3333,87.2969 L55.3333,87.2969 C56.6219,87.2969 57.6667,86.2521 57.6667,84.9635 L57.6667,75.0469 C57.6667,73.7583 56.6219,72.7135 55.3333,72.7135 L50.0833,72.7135 C48.0055,72.7135 48.3333,69.7969 45.1612,69.7969 L41.3333,69.7969 C40.0448,69.7969 39,70.8416 39,72.1302 L39,84.9635 " fill="#226699" style="stroke:;stroke-width:0.0;stroke-dasharray:;"/><path d="M56.5,73.8802 L52.6722,73.8802 C49.5,73.8802 49.8278,76.7969 47.75,76.7969 L42.5,76.7969 C41.2114,76.7969 40.1667,77.8416 40.1667,79.1302 L40.1667,84.9635 C40.1667,85.2861 39.9053,85.5469 39.5833,85.5469 C39.2613,85.5469 39,85.2861 39,84.9635 C39,86.2521 40.0448,87.2969 41.3333,87.2969 L56.5,87.2969 C57.7886,87.2969 58.8333,86.2521 58.8333,84.9635 L58.8333,76.2135 C58.8333,74.925 57.7886,73.8802 56.5,73.8802 " fill="#55ACEE" style="stroke:;stroke-width:0.0;stroke-dasharray:;"/><text fill="#000000" font-family="sans-serif" font-size="14" lengthAdjust="spacing" textLength="90" x="64" y="87.4951">src/main/java</text><text fill="#000000" font-family="sans-serif" font-size="14" lengthAdjust="spacing" textLength="4" x="43" y="110.2451">&#160;</text><path d="M47,107.7135 C47,109.0021 48.0448,110.0469 49.3333,110.0469 L63.3333,110.0469 C64.6219,110.0469 65.6667,109.0021 65.6667,107.7135 L65.6667,97.7969 C65.6667,96.5083 64.6219,95.4635 63.3333,95.4635 L58.0833,95.4635 C56.0055,95.4635 56.3333,92.5469 53.1612,92.5469 L49.3333,92.5469 C48.0448,92.5469 47,93.5916 47,94.8802 L47,107.7135 " fill="#226699" style="stroke:;stroke-width:0.0;stroke-dasharray:;"/><path d="M64.5,96.6302 L60.6722,96.6302 C57.5,96.6302 57.8278,99.5469 55.75,99.5469 L50.5,99.5469 C49.2114,99.5469 48.1667,100.5916 48.1667,101.8802 L48.1667,107.7135 C48.1667,108.0361 47.9053,108.2969 47.5833,108.2969 C47.2613,108.2969 47,108.0361 47,107.7135 C47,109.0021 48.0448,110.0469 49.3333,110.0469 L64.5,110.0469 C65.7886,110.0469 66.8333,109.0021 66.8333,107.7135 L66.8333,98.9635 C66.8333,97.675 65.7886,96.6302 64.5,96.6302 " fill="#55ACEE" style="stroke:;stroke-width:0.0;stroke-dasharray:;"/><text fill="#000000" font-family="sans-serif" font-size="14" lengthAdjust="spacing" textLength="236" x="72" y="110.2451">com.example.example.webservice</text><text fill="#000000" font-family="sans-serif" font-size="14" lengthAdjust="spacing" textLength="4" x="51" y="132.9951">&#160;</text><path d="M55,130.4635 C55,131.7521 56.0448,132.7969 57.3333,132.7969 L71.3333,132.7969 C72.6219,132.7969 73.6667,131.7521 73.6667,130.4635 L73.6667,120.5469 C73.6667,119.2583 72.6219,118.2135 71.3333,118.2135 L66.0833,118.2135 C64.0055,118.2135 64.3333,115.2969 61.1612,115.2969 L57.3333,115.2969 C56.0448,115.2969 55,116.3416 55,117.6302 L55,130.4635 " fill="#226699" style="stroke:;stroke-width:0.0;stroke-dasharray:;"/><path d="M72.5,119.3802 L68.6722,119.3802 C65.5,119.3802 65.8278,122.2969 63.75,122.2969 L58.5,122.2969 C57.2114,122.2969 56.1667,123.3416 56.1667,124.6302 L56.1667,130.4635 C56.1667,130.7861 55.9053,131.0469 55.5833,131.0469 C55.2613,131.0469 55,130.7861 55,130.4635 C55,131.7521 56.0448,132.7969 57.3333,132.7969 L72.5,132.7969 C73.7886,132.7969 74.8333,131.7521 74.8333,130.4635 L74.8333,121.7135 C74.8333,120.425 73.7886,119.3802 72.5,119.3802 " fill="#55ACEE" style="stroke:;stroke-width:0.0;stroke-dasharray:;"/><text fill="#000000" font-family="sans-serif" font-size="14" lengthAdjust="spacing" textLength="33" x="80" y="132.9951">main</text><text fill="#000000" font-family="sans-serif" font-size="14" lengthAdjust="spacing" textLength="4" x="59" y="155.7451">&#160;</text><path d="M63,153.2135 C63,154.5021 64.0448,155.5469 65.3333,155.5469 L79.3333,155.5469 C80.6219,155.5469 81.6667,154.5021 81.6667,153.2135 L81.6667,143.2969 C81.6667,142.0083 80.6219,140.9635 79.3333,140.9635 L74.0833,140.9635 C72.0055,140.9635 72.3333,138.0469 69.1612,138.0469 L65.3333,138.0469 C64.0448,138.0469 63,139.0916 63,140.3802 L63,153.2135 " fill="#226699" style="stroke:;stroke-width:0.0;stroke-dasharray:;"/><path d="M80.5,142.1302 L76.6722,142.1302 C73.5,142.1302 73.8278,145.0469 71.75,145.0469 L66.5,145.0469 C65.2114,145.0469 64.1667,146.0916 64.1667,147.3802 L64.1667,153.2135 C64.1667,153.5361 63.9053,153.7969 63.5833,153.7969 C63.2613,153.7969 63,153.5361 63,153.2135 C63,154.5021 64.0448,155.5469 65.3333,155.5469 L80.5,155.5469 C81.7886,155.5469 82.8333,154.5021 82.8333,153.2135 L82.8333,144.4635 C82.8333,143.175 81.7886,142.1302 80.5,142.1302 " fill="#55ACEE" style="stroke:;stroke-width:0.0;stroke-dasharray:;"/><text fill="#000000" font-family="sans-serif" font-size="14" lengthAdjust="spacing" textLength="42" x="88" y="155.7451">config</text><text fill="#000000" font-family="sans-serif" font-size="14" lengthAdjust="spacing" textLength="4" x="59" y="178.4951">&#160;</text><path d="M81.9088,164.6387 L76.6588,159.3887 C76.4482,159.1781 76.1559,159.0469 75.8333,159.0469 C75.1893,159.0469 74.6673,159.5695 74.6667,160.2135 C74.6667,160.5355 74.7973,160.8278 75.0085,161.039 L72.7574,163.29 L78.0074,168.54 L80.2585,166.289 C80.4697,166.4995 80.7613,166.6302 81.0833,166.6302 C81.7273,166.6302 82.2506,166.1075 82.25,165.4635 C82.25,165.1415 82.1193,164.8499 81.9088,164.6387 " fill="#E1E8ED" style="stroke:;stroke-width:0.0;stroke-dasharray:;"/><path d="M75.8333,159.0469 L67.0833,159.0469 C65.7948,159.0469 64.75,160.0916 64.75,161.3802 L64.75,177.7135 C64.75,179.0021 65.7948,180.0469 67.0833,180.0469 L79.9167,180.0469 C81.2053,180.0469 82.25,179.0021 82.25,177.7135 L82.25,165.4635 L77,165.4635 C76.4167,165.4635 75.8333,164.8802 75.8333,164.2969 L75.8333,159.0469 " fill="#CCD6DD" style="stroke:;stroke-width:0.0;stroke-dasharray:;"/><path d="M75.8333,159.0469 L74.6667,159.0469 L74.6667,164.2969 C74.6667,165.5855 75.7114,166.6302 77,166.6302 L82.25,166.6302 L82.25,165.4635 L77,165.4635 C76.4167,165.4635 75.8333,164.8802 75.8333,164.2969 L75.8333,159.0469 M72.9167,163.7135 C72.9167,164.0355 72.6553,164.2969 72.3333,164.2969 L67.6667,164.2969 C67.3447,164.2969 67.0833,164.0355 67.0833,163.7135 C67.0833,163.3915 67.3447,163.1302 67.6667,163.1302 L72.3333,163.1302 C72.6553,163.1302 72.9167,163.3915 72.9167,163.7135 M72.9167,166.0469 C72.9167,166.3689 72.6553,166.6302 72.3333,166.6302 L67.6667,166.6302 C67.3447,166.6302 67.0833,166.3689 67.0833,166.0469 C67.0833,165.7249 67.3447,165.4635 67.6667,165.4635 L72.3333,165.4635 C72.6553,165.4635 72.9167,165.7249 72.9167,166.0469 M79.9167,168.3802 C79.9167,168.7022 79.6559,168.9635 79.3333,168.9635 L67.6667,168.9635 C67.3447,168.9635 67.0833,168.7022 67.0833,168.3802 C67.0833,168.0582 67.3447,167.7969 67.6667,167.7969 L79.3333,167.7969 C79.6559,167.7969 79.9167,168.0582 79.9167,168.3802 M79.9167,170.7135 C79.9167,171.0361 79.6559,171.2969 79.3333,171.2969 L67.6667,171.2969 C67.3447,171.2969 67.0833,171.0361 67.0833,170.7135 C67.0833,170.391 67.3447,170.1302 67.6667,170.1302 L79.3333,170.1302 C79.6559,170.1302 79.9167,170.391 79.9167,170.7135 M79.9167,173.0469 C79.9167,173.3695 79.6559,173.6302 79.3333,173.6302 L67.6667,173.6302 C67.3447,173.6302 67.0833,173.3695 67.0833,173.0469 C67.0833,172.7243 67.3447,172.4635 67.6667,172.4635 L79.3333,172.4635 C79.6559,172.4635 79.9167,172.7243 79.9167,173.0469 M79.9167,175.3802 C79.9167,175.7028 79.6559,175.9635 79.3333,175.9635 L67.6667,175.9635 C67.3447,175.9635 67.0833,175.7028 67.0833,175.3802 C67.0833,175.0576 67.3447,174.7969 67.6667,174.7969 L79.3333,174.7969 C79.6559,174.7969 79.9167,175.0576 79.9167,175.3802 " fill="#99AAB5" style="stroke:;stroke-width:0.0;stroke-dasharray:;"/><text fill="#000000" font-family="sans-serif" font-size="14" lengthAdjust="spacing" textLength="90" x="88" y="178.4951">MainProgram</text><text fill="#000000" font-family="sans-serif" font-size="14" lengthAdjust="spacing" textLength="4" x="51" y="201.2451">&#160;</text><path d="M55,198.7135 C55,200.0021 56.0448,201.0469 57.3333,201.0469 L71.3333,201.0469 C72.6219,201.0469 73.6667,200.0021 73.6667,198.7135 L73.6667,188.7969 C73.6667,187.5083 72.6219,186.4635 71.3333,186.4635 L66.0833,186.4635 C64.0055,186.4635 64.3333,183.5469 61.1612,183.5469 L57.3333,183.5469 C56.0448,183.5469 55,184.5916 55,185.8802 L55,198.7135 " fill="#226699" style="stroke:;stroke-width:0.0;stroke-dasharray:;"/><path d="M72.5,187.6302 L68.6722,187.6302 C65.5,187.6302 65.8278,190.5469 63.75,190.5469 L58.5,190.5469 C57.2114,190.5469 56.1667,191.5916 56.1667,192.8802 L56.1667,198.7135 C56.1667,199.0361 55.9053,199.2969 55.5833,199.2969 C55.2613,199.2969 55,199.0361 55,198.7135 C55,200.0021 56.0448,201.0469 57.3333,201.0469 L72.5,201.0469 C73.7886,201.0469 74.8333,200.0021 74.8333,198.7135 L74.8333,189.9635 C74.8333,188.675 73.7886,187.6302 72.5,187.6302 " fill="#55ACEE" style="stroke:;stroke-width:0.0;stroke-dasharray:;"/><text fill="#000000" font-family="sans-serif" font-size="14" lengthAdjust="spacing" textLength="29" x="80" y="201.2451">web</text><text fill="#000000" font-family="sans-serif" font-size="14" lengthAdjust="spacing" textLength="4" x="59" y="223.9951">&#160;</text><path d="M63,221.4635 C63,222.7521 64.0448,223.7969 65.3333,223.7969 L79.3333,223.7969 C80.6219,223.7969 81.6667,222.7521 81.6667,221.4635 L81.6667,211.5469 C81.6667,210.2583 80.6219,209.2135 79.3333,209.2135 L74.0833,209.2135 C72.0055,209.2135 72.3333,206.2969 69.1612,206.2969 L65.3333,206.2969 C64.0448,206.2969 63,207.3416 63,208.6302 L63,221.4635 " fill="#226699" style="stroke:;stroke-width:0.0;stroke-dasharray:;"/><path d="M80.5,210.3802 L76.6722,210.3802 C73.5,210.3802 73.8278,213.2969 71.75,213.2969 L66.5,213.2969 C65.2114,213.2969 64.1667,214.3416 64.1667,215.6302 L64.1667,221.4635 C64.1667,221.7861 63.9053,222.0469 63.5833,222.0469 C63.2613,222.0469 63,221.7861 63,221.4635 C63,222.7521 64.0448,223.7969 65.3333,223.7969 L80.5,223.7969 C81.7886,223.7969 82.8333,222.7521 82.8333,221.4635 L82.8333,212.7135 C82.8333,211.425 81.7886,210.3802 80.5,210.3802 " fill="#55ACEE" style="stroke:;stroke-width:0.0;stroke-dasharray:;"/><text fill="#000000" font-family="sans-serif" font-size="14" lengthAdjust="spacing" textLength="42" x="88" y="223.9951">config</text><text fill="#000000" font-family="sans-serif" font-size="14" lengthAdjust="spacing" textLength="4" x="59" y="246.7451">&#160;</text><path d="M63,244.2135 C63,245.5021 64.0448,246.5469 65.3333,246.5469 L79.3333,246.5469 C80.6219,246.5469 81.6667,245.5021 81.6667,244.2135 L81.6667,234.2969 C81.6667,233.0083 80.6219,231.9635 79.3333,231.9635 L74.0833,231.9635 C72.0055,231.9635 72.3333,229.0469 69.1612,229.0469 L65.3333,229.0469 C64.0448,229.0469 63,230.0916 63,231.3802 L63,244.2135 " fill="#226699" style="stroke:;stroke-width:0.0;stroke-dasharray:;"/><path d="M80.5,233.1302 L76.6722,233.1302 C73.5,233.1302 73.8278,236.0469 71.75,236.0469 L66.5,236.0469 C65.2114,236.0469 64.1667,237.0916 64.1667,238.3802 L64.1667,244.2135 C64.1667,244.5361 63.9053,244.7969 63.5833,244.7969 C63.2613,244.7969 63,244.5361 63,244.2135 C63,245.5021 64.0448,246.5469 65.3333,246.5469 L80.5,246.5469 C81.7886,246.5469 82.8333,245.5021 82.8333,244.2135 L82.8333,235.4635 C82.8333,234.175 81.7886,233.1302 80.5,233.1302 " fill="#55ACEE" style="stroke:;stroke-width:0.0;stroke-dasharray:;"/><text fill="#000000" font-family="sans-serif" font-size="14" lengthAdjust="spacing" textLength="65" x="88" y="246.7451">controller</text><text fill="#000000" font-family="sans-serif" font-size="14" lengthAdjust="spacing" textLength="4" x="59" y="269.4951">&#160;</text><path d="M63,266.9635 C63,268.2521 64.0448,269.2969 65.3333,269.2969 L79.3333,269.2969 C80.6219,269.2969 81.6667,268.2521 81.6667,266.9635 L81.6667,257.0469 C81.6667,255.7583 80.6219,254.7135 79.3333,254.7135 L74.0833,254.7135 C72.0055,254.7135 72.3333,251.7969 69.1612,251.7969 L65.3333,251.7969 C64.0448,251.7969 63,252.8416 63,254.1302 L63,266.9635 " fill="#226699" style="stroke:;stroke-width:0.0;stroke-dasharray:;"/><path d="M80.5,255.8802 L76.6722,255.8802 C73.5,255.8802 73.8278,258.7969 71.75,258.7969 L66.5,258.7969 C65.2114,258.7969 64.1667,259.8416 64.1667,261.1302 L64.1667,266.9635 C64.1667,267.2861 63.9053,267.5469 63.5833,267.5469 C63.2613,267.5469 63,267.2861 63,266.9635 C63,268.2521 64.0448,269.2969 65.3333,269.2969 L80.5,269.2969 C81.7886,269.2969 82.8333,268.2521 82.8333,266.9635 L82.8333,258.2135 C82.8333,256.925 81.7886,255.8802 80.5,255.8802 " fill="#55ACEE" style="stroke:;stroke-width:0.0;stroke-dasharray:;"/><text fill="#000000" font-family="sans-serif" font-size="14" lengthAdjust="spacing" textLength="20" x="88" y="269.4951">. . .</text><text fill="#000000" font-family="sans-serif" font-size="14" lengthAdjust="spacing" textLength="4" x="51" y="292.2451">&#160;</text><path d="M55,289.7135 C55,291.0021 56.0448,292.0469 57.3333,292.0469 L71.3333,292.0469 C72.6219,292.0469 73.6667,291.0021 73.6667,289.7135 L73.6667,279.7969 C73.6667,278.5083 72.6219,277.4635 71.3333,277.4635 L66.0833,277.4635 C64.0055,277.4635 64.3333,274.5469 61.1612,274.5469 L57.3333,274.5469 C56.0448,274.5469 55,275.5916 55,276.8802 L55,289.7135 " fill="#226699" style="stroke:;stroke-width:0.0;stroke-dasharray:;"/><path d="M72.5,278.6302 L68.6722,278.6302 C65.5,278.6302 65.8278,281.5469 63.75,281.5469 L58.5,281.5469 C57.2114,281.5469 56.1667,282.5916 56.1667,283.8802 L56.1667,289.7135 C56.1667,290.0361 55.9053,290.2969 55.5833,290.2969 C55.2613,290.2969 55,290.0361 55,289.7135 C55,291.0021 56.0448,292.0469 57.3333,292.0469 L72.5,292.0469 C73.7886,292.0469 74.8333,291.0021 74.8333,289.7135 L74.8333,280.9635 C74.8333,279.675 73.7886,278.6302 72.5,278.6302 " fill="#55ACEE" style="stroke:;stroke-width:0.0;stroke-dasharray:;"/><text fill="#000000" font-family="sans-serif" font-size="14" lengthAdjust="spacing" textLength="74" x="80" y="292.2451">application</text><text fill="#000000" font-family="sans-serif" font-size="14" lengthAdjust="spacing" textLength="4" x="59" y="314.9951">&#160;</text><path d="M63,312.4635 C63,313.7521 64.0448,314.7969 65.3333,314.7969 L79.3333,314.7969 C80.6219,314.7969 81.6667,313.7521 81.6667,312.4635 L81.6667,302.5469 C81.6667,301.2583 80.6219,300.2135 79.3333,300.2135 L74.0833,300.2135 C72.0055,300.2135 72.3333,297.2969 69.1612,297.2969 L65.3333,297.2969 C64.0448,297.2969 63,298.3416 63,299.6302 L63,312.4635 " fill="#226699" style="stroke:;stroke-width:0.0;stroke-dasharray:;"/><path d="M80.5,301.3802 L76.6722,301.3802 C73.5,301.3802 73.8278,304.2969 71.75,304.2969 L66.5,304.2969 C65.2114,304.2969 64.1667,305.3416 64.1667,306.6302 L64.1667,312.4635 C64.1667,312.7861 63.9053,313.0469 63.5833,313.0469 C63.2613,313.0469 63,312.7861 63,312.4635 C63,313.7521 64.0448,314.7969 65.3333,314.7969 L80.5,314.7969 C81.7886,314.7969 82.8333,313.7521 82.8333,312.4635 L82.8333,303.7135 C82.8333,302.425 81.7886,301.3802 80.5,301.3802 " fill="#55ACEE" style="stroke:;stroke-width:0.0;stroke-dasharray:;"/><text fill="#000000" font-family="sans-serif" font-size="14" lengthAdjust="spacing" textLength="42" x="88" y="314.9951">config</text><text fill="#000000" font-family="sans-serif" font-size="14" lengthAdjust="spacing" textLength="4" x="59" y="337.7451">&#160;</text><path d="M63,335.2135 C63,336.5021 64.0448,337.5469 65.3333,337.5469 L79.3333,337.5469 C80.6219,337.5469 81.6667,336.5021 81.6667,335.2135 L81.6667,325.2969 C81.6667,324.0083 80.6219,322.9635 79.3333,322.9635 L74.0833,322.9635 C72.0055,322.9635 72.3333,320.0469 69.1612,320.0469 L65.3333,320.0469 C64.0448,320.0469 63,321.0916 63,322.3802 L63,335.2135 " fill="#226699" style="stroke:;stroke-width:0.0;stroke-dasharray:;"/><path d="M80.5,324.1302 L76.6722,324.1302 C73.5,324.1302 73.8278,327.0469 71.75,327.0469 L66.5,327.0469 C65.2114,327.0469 64.1667,328.0916 64.1667,329.3802 L64.1667,335.2135 C64.1667,335.5361 63.9053,335.7969 63.5833,335.7969 C63.2613,335.7969 63,335.5361 63,335.2135 C63,336.5021 64.0448,337.5469 65.3333,337.5469 L80.5,337.5469 C81.7886,337.5469 82.8333,336.5021 82.8333,335.2135 L82.8333,326.4635 C82.8333,325.175 81.7886,324.1302 80.5,324.1302 " fill="#55ACEE" style="stroke:;stroke-width:0.0;stroke-dasharray:;"/><text fill="#000000" font-family="sans-serif" font-size="14" lengthAdjust="spacing" textLength="20" x="88" y="337.7451">. . .</text><text fill="#000000" font-family="sans-serif" font-size="14" lengthAdjust="spacing" textLength="4" x="51" y="360.4951">&#160;</text><path d="M55,357.9635 C55,359.2521 56.0448,360.2969 57.3333,360.2969 L71.3333,360.2969 C72.6219,360.2969 73.6667,359.2521 73.6667,357.9635 L73.6667,348.0469 C73.6667,346.7583 72.6219,345.7135 71.3333,345.7135 L66.0833,345.7135 C64.0055,345.7135 64.3333,342.7969 61.1612,342.7969 L57.3333,342.7969 C56.0448,342.7969 55,343.8416 55,345.1302 L55,357.9635 " fill="#226699" style="stroke:;stroke-width:0.0;stroke-dasharray:;"/><path d="M72.5,346.8802 L68.6722,346.8802 C65.5,346.8802 65.8278,349.7969 63.75,349.7969 L58.5,349.7969 C57.2114,349.7969 56.1667,350.8416 56.1667,352.1302 L56.1667,357.9635 C56.1667,358.2861 55.9053,358.5469 55.5833,358.5469 C55.2613,358.5469 55,358.2861 55,357.9635 C55,359.2521 56.0448,360.2969 57.3333,360.2969 L72.5,360.2969 C73.7886,360.2969 74.8333,359.2521 74.8333,357.9635 L74.8333,349.2135 C74.8333,347.925 73.7886,346.8802 72.5,346.8802 " fill="#55ACEE" style="stroke:;stroke-width:0.0;stroke-dasharray:;"/><text fill="#000000" font-family="sans-serif" font-size="14" lengthAdjust="spacing" textLength="51" x="80" y="360.4951">domain</text><text fill="#000000" font-family="sans-serif" font-size="14" lengthAdjust="spacing" textLength="4" x="59" y="383.2451">&#160;</text><path d="M63,380.7135 C63,382.0021 64.0448,383.0469 65.3333,383.0469 L79.3333,383.0469 C80.6219,383.0469 81.6667,382.0021 81.6667,380.7135 L81.6667,370.7969 C81.6667,369.5083 80.6219,368.4635 79.3333,368.4635 L74.0833,368.4635 C72.0055,368.4635 72.3333,365.5469 69.1612,365.5469 L65.3333,365.5469 C64.0448,365.5469 63,366.5916 63,367.8802 L63,380.7135 " fill="#226699" style="stroke:;stroke-width:0.0;stroke-dasharray:;"/><path d="M80.5,369.6302 L76.6722,369.6302 C73.5,369.6302 73.8278,372.5469 71.75,372.5469 L66.5,372.5469 C65.2114,372.5469 64.1667,373.5916 64.1667,374.8802 L64.1667,380.7135 C64.1667,381.0361 63.9053,381.2969 63.5833,381.2969 C63.2613,381.2969 63,381.0361 63,380.7135 C63,382.0021 64.0448,383.0469 65.3333,383.0469 L80.5,383.0469 C81.7886,383.0469 82.8333,382.0021 82.8333,380.7135 L82.8333,371.9635 C82.8333,370.675 81.7886,369.6302 80.5,369.6302 " fill="#55ACEE" style="stroke:;stroke-width:0.0;stroke-dasharray:;"/><text fill="#000000" font-family="sans-serif" font-size="14" lengthAdjust="spacing" textLength="20" x="88" y="383.2451">. . .</text><text fill="#000000" font-family="sans-serif" font-size="14" lengthAdjust="spacing" textLength="4" x="51" y="405.9951">&#160;</text><path d="M55,403.4635 C55,404.7521 56.0448,405.7969 57.3333,405.7969 L71.3333,405.7969 C72.6219,405.7969 73.6667,404.7521 73.6667,403.4635 L73.6667,393.5469 C73.6667,392.2583 72.6219,391.2135 71.3333,391.2135 L66.0833,391.2135 C64.0055,391.2135 64.3333,388.2969 61.1612,388.2969 L57.3333,388.2969 C56.0448,388.2969 55,389.3416 55,390.6302 L55,403.4635 " fill="#226699" style="stroke:;stroke-width:0.0;stroke-dasharray:;"/><path d="M72.5,392.3802 L68.6722,392.3802 C65.5,392.3802 65.8278,395.2969 63.75,395.2969 L58.5,395.2969 C57.2114,395.2969 56.1667,396.3416 56.1667,397.6302 L56.1667,403.4635 C56.1667,403.7861 55.9053,404.0469 55.5833,404.0469 C55.2613,404.0469 55,403.7861 55,403.4635 C55,404.7521 56.0448,405.7969 57.3333,405.7969 L72.5,405.7969 C73.7886,405.7969 74.8333,404.7521 74.8333,403.4635 L74.8333,394.7135 C74.8333,393.425 73.7886,392.3802 72.5,392.3802 " fill="#55ACEE" style="stroke:;stroke-width:0.0;stroke-dasharray:;"/><text fill="#000000" font-family="sans-serif" font-size="14" lengthAdjust="spacing" textLength="92" x="80" y="405.9951">infrastructure</text><text fill="#000000" font-family="sans-serif" font-size="14" lengthAdjust="spacing" textLength="4" x="59" y="428.7451">&#160;</text><path d="M63,426.2135 C63,427.5021 64.0448,428.5469 65.3333,428.5469 L79.3333,428.5469 C80.6219,428.5469 81.6667,427.5021 81.6667,426.2135 L81.6667,416.2969 C81.6667,415.0083 80.6219,413.9635 79.3333,413.9635 L74.0833,413.9635 C72.0055,413.9635 72.3333,411.0469 69.1612,411.0469 L65.3333,411.0469 C64.0448,411.0469 63,412.0916 63,413.3802 L63,426.2135 " fill="#226699" style="stroke:;stroke-width:0.0;stroke-dasharray:;"/><path d="M80.5,415.1302 L76.6722,415.1302 C73.5,415.1302 73.8278,418.0469 71.75,418.0469 L66.5,418.0469 C65.2114,418.0469 64.1667,419.0916 64.1667,420.3802 L64.1667,426.2135 C64.1667,426.5361 63.9053,426.7969 63.5833,426.7969 C63.2613,426.7969 63,426.5361 63,426.2135 C63,427.5021 64.0448,428.5469 65.3333,428.5469 L80.5,428.5469 C81.7886,428.5469 82.8333,427.5021 82.8333,426.2135 L82.8333,417.4635 C82.8333,416.175 81.7886,415.1302 80.5,415.1302 " fill="#55ACEE" style="stroke:;stroke-width:0.0;stroke-dasharray:;"/><text fill="#000000" font-family="sans-serif" font-size="14" lengthAdjust="spacing" textLength="42" x="88" y="428.7451">config</text><text fill="#000000" font-family="sans-serif" font-size="14" lengthAdjust="spacing" textLength="4" x="59" y="451.4951">&#160;</text><path d="M63,448.9635 C63,450.2521 64.0448,451.2969 65.3333,451.2969 L79.3333,451.2969 C80.6219,451.2969 81.6667,450.2521 81.6667,448.9635 L81.6667,439.0469 C81.6667,437.7583 80.6219,436.7135 79.3333,436.7135 L74.0833,436.7135 C72.0055,436.7135 72.3333,433.7969 69.1612,433.7969 L65.3333,433.7969 C64.0448,433.7969 63,434.8416 63,436.1302 L63,448.9635 " fill="#226699" style="stroke:;stroke-width:0.0;stroke-dasharray:;"/><path d="M80.5,437.8802 L76.6722,437.8802 C73.5,437.8802 73.8278,440.7969 71.75,440.7969 L66.5,440.7969 C65.2114,440.7969 64.1667,441.8416 64.1667,443.1302 L64.1667,448.9635 C64.1667,449.2861 63.9053,449.5469 63.5833,449.5469 C63.2613,449.5469 63,449.2861 63,448.9635 C63,450.2521 64.0448,451.2969 65.3333,451.2969 L80.5,451.2969 C81.7886,451.2969 82.8333,450.2521 82.8333,448.9635 L82.8333,440.2135 C82.8333,438.925 81.7886,437.8802 80.5,437.8802 " fill="#55ACEE" style="stroke:;stroke-width:0.0;stroke-dasharray:;"/><text fill="#000000" font-family="sans-serif" font-size="14" lengthAdjust="spacing" textLength="20" x="88" y="451.4951">. . .</text><rect fill="none" height="2" style="stroke:#000000;stroke-width:1.0;" width="2" x="32" y="78.4219"/><line style="stroke:#000000;stroke-width:1.0;" x1="25" x2="33" y1="79.4219" y2="79.4219"/><line style="stroke:#000000;stroke-width:1.0;" x1="25" x2="25" y1="68.0469" y2="79.4219"/><rect fill="none" height="2" style="stroke:#000000;stroke-width:1.0;" width="2" x="40" y="101.1719"/><line style="stroke:#000000;stroke-width:1.0;" x1="33" x2="41" y1="102.1719" y2="102.1719"/><line style="stroke:#000000;stroke-width:1.0;" x1="33" x2="33" y1="79.4219" y2="102.1719"/><rect fill="none" height="2" style="stroke:#000000;stroke-width:1.0;" width="2" x="48" y="123.9219"/><line style="stroke:#000000;stroke-width:1.0;" x1="41" x2="49" y1="124.9219" y2="124.9219"/><line style="stroke:#000000;stroke-width:1.0;" x1="41" x2="41" y1="102.1719" y2="124.9219"/><rect fill="none" height="2" style="stroke:#000000;stroke-width:1.0;" width="2" x="56" y="146.6719"/><line style="stroke:#000000;stroke-width:1.0;" x1="49" x2="57" y1="147.6719" y2="147.6719"/><line style="stroke:#000000;stroke-width:1.0;" x1="49" x2="49" y1="124.9219" y2="147.6719"/><rect fill="none" height="2" style="stroke:#000000;stroke-width:1.0;" width="2" x="56" y="169.4219"/><line style="stroke:#000000;stroke-width:1.0;" x1="49" x2="57" y1="170.4219" y2="170.4219"/><line style="stroke:#000000;stroke-width:1.0;" x1="49" x2="49" y1="147.6719" y2="170.4219"/><rect fill="none" height="2" style="stroke:#000000;stroke-width:1.0;" width="2" x="48" y="192.1719"/><line style="stroke:#000000;stroke-width:1.0;" x1="41" x2="49" y1="193.1719" y2="193.1719"/><line style="stroke:#000000;stroke-width:1.0;" x1="41" x2="41" y1="124.9219" y2="193.1719"/><rect fill="none" height="2" style="stroke:#000000;stroke-width:1.0;" width="2" x="56" y="214.9219"/><line style="stroke:#000000;stroke-width:1.0;" x1="49" x2="57" y1="215.9219" y2="215.9219"/><line style="stroke:#000000;stroke-width:1.0;" x1="49" x2="49" y1="193.1719" y2="215.9219"/><rect fill="none" height="2" style="stroke:#000000;stroke-width:1.0;" width="2" x="56" y="237.6719"/><line style="stroke:#000000;stroke-width:1.0;" x1="49" x2="57" y1="238.6719" y2="238.6719"/><line style="stroke:#000000;stroke-width:1.0;" x1="49" x2="49" y1="215.9219" y2="238.6719"/><rect fill="none" height="2" style="stroke:#000000;stroke-width:1.0;" width="2" x="56" y="260.4219"/><line style="stroke:#000000;stroke-width:1.0;" x1="49" x2="57" y1="261.4219" y2="261.4219"/><line style="stroke:#000000;stroke-width:1.0;" x1="49" x2="49" y1="238.6719" y2="261.4219"/><rect fill="none" height="2" style="stroke:#000000;stroke-width:1.0;" width="2" x="48" y="283.1719"/><line style="stroke:#000000;stroke-width:1.0;" x1="41" x2="49" y1="284.1719" y2="284.1719"/><line style="stroke:#000000;stroke-width:1.0;" x1="41" x2="41" y1="193.1719" y2="284.1719"/><rect fill="none" height="2" style="stroke:#000000;stroke-width:1.0;" width="2" x="56" y="305.9219"/><line style="stroke:#000000;stroke-width:1.0;" x1="49" x2="57" y1="306.9219" y2="306.9219"/><line style="stroke:#000000;stroke-width:1.0;" x1="49" x2="49" y1="284.1719" y2="306.9219"/><rect fill="none" height="2" style="stroke:#000000;stroke-width:1.0;" width="2" x="56" y="328.6719"/><line style="stroke:#000000;stroke-width:1.0;" x1="49" x2="57" y1="329.6719" y2="329.6719"/><line style="stroke:#000000;stroke-width:1.0;" x1="49" x2="49" y1="306.9219" y2="329.6719"/><rect fill="none" height="2" style="stroke:#000000;stroke-width:1.0;" width="2" x="48" y="351.4219"/><line style="stroke:#000000;stroke-width:1.0;" x1="41" x2="49" y1="352.4219" y2="352.4219"/><line style="stroke:#000000;stroke-width:1.0;" x1="41" x2="41" y1="284.1719" y2="352.4219"/><rect fill="none" height="2" style="stroke:#000000;stroke-width:1.0;" width="2" x="56" y="374.1719"/><line style="stroke:#000000;stroke-width:1.0;" x1="49" x2="57" y1="375.1719" y2="375.1719"/><line style="stroke:#000000;stroke-width:1.0;" x1="49" x2="49" y1="352.4219" y2="375.1719"/><rect fill="none" height="2" style="stroke:#000000;stroke-width:1.0;" width="2" x="48" y="396.9219"/><line style="stroke:#000000;stroke-width:1.0;" x1="41" x2="49" y1="397.9219" y2="397.9219"/><line style="stroke:#000000;stroke-width:1.0;" x1="41" x2="41" y1="352.4219" y2="397.9219"/><rect fill="none" height="2" style="stroke:#000000;stroke-width:1.0;" width="2" x="56" y="419.6719"/><line style="stroke:#000000;stroke-width:1.0;" x1="49" x2="57" y1="420.6719" y2="420.6719"/><line style="stroke:#000000;stroke-width:1.0;" x1="49" x2="49" y1="397.9219" y2="420.6719"/><rect fill="none" height="2" style="stroke:#000000;stroke-width:1.0;" width="2" x="56" y="442.4219"/><line style="stroke:#000000;stroke-width:1.0;" x1="49" x2="57" y1="443.4219" y2="443.4219"/><line style="stroke:#000000;stroke-width:1.0;" x1="49" x2="49" y1="420.6719" y2="443.4219"/><text fill="#000000" font-family="sans-serif" font-size="14" lengthAdjust="spacing" textLength="4" x="17" y="469.792">&#160;</text><!--SRC=[fLFHIWCn47msNx6Fzg6jBGfo516h5KeBHMrVorvkxupD9STUKXNrtztJ8e9jGIM19CpixB1CwfLn5JAMCA62N0Olwk02zQfW7rqszDOp14PN2ubS4D1pHlmJU5FsGq2fGLA901QKd04zOLbPQZzIMXElZIRrkeH1aXjBoznRaH9MpRfRed7T1roZ0jX2qRxiRCI-pc-Y05kh6j4FR8Ucoqtn7Q_4zJ97RLonZ9LGfY8mOr_8W7Rr41U_QV433-oj9TxDwJHhLtUiAciq1kFTtrtixP3v_LFSMsnSpbW7ZZf4flywL4r0Dp4xR-wnj4hDBBemdqvWJLpB7A3NwH_rZpkzmxlx22DAuQW7lTD4zianpE-6qC0jTNWzcq3j8sk2p8X9ayPcZYqrbXZ2JNJ1b9I0YzQgyMAQm6rCXOQ1O35LbvHZj06kdFQP12OHwL7xL4tG5R59_sVXKFvHuEVFrpi0]--></g></svg>