<?xml version="1.0" encoding="us-ascii" standalone="no"?><svg xmlns="http://www.w3.org/2000/svg" xmlns:xlink="http://www.w3.org/1999/xlink" contentStyleType="text/css" height="326px" preserveAspectRatio="none" style="width:460px;height:326px;background:#FFFFFF;" version="1.1" viewBox="0 0 460 326" width="460px" zoomAndPan="magnify"><defs/><g><!--cluster setup--><g id="cluster_setup"><rect fill="none" height="313.89" rx="2.5" ry="2.5" style="stroke:#181818;stroke-width:1.0;" width="297" x="157.5" y="7"/><text fill="#000000" font-family="sans-serif" font-size="14" font-weight="bold" lengthAdjust="spacing" textLength="5" x="303.5" y="21.9951">&#160;</text></g><!--entity application--><g id="elem_application"><rect fill="#F1F1F1" height="36.2969" rx="2.5" ry="2.5" style="stroke:#181818;stroke-width:0.5;" width="94" x="189.5" y="163.3"/><text fill="#000000" font-family="sans-serif" font-size="14" lengthAdjust="spacing" textLength="74" x="199.5" y="186.2951">application</text></g><!--entity infrastructure--><g id="elem_infrastructure"><rect fill="#F1F1F1" height="36.2969" rx="2.5" ry="2.5" style="stroke:#181818;stroke-width:0.5;" width="112" x="318.5" y="163.3"/><text fill="#000000" font-family="sans-serif" font-size="14" lengthAdjust="spacing" textLength="92" x="328.5" y="186.2951">infrastructure</text></g><!--entity domain--><g id="elem_domain"><rect fill="#F1F1F1" height="36.2969" rx="2.5" ry="2.5" style="stroke:#181818;stroke-width:0.5;" width="71" x="270" y="260.59"/><text fill="#000000" font-family="sans-serif" font-size="14" lengthAdjust="spacing" textLength="51" x="280" y="283.5851">domain</text></g><!--entity web--><g id="elem_web"><rect fill="#F1F1F1" height="36.2969" rx="2.5" ry="2.5" style="stroke:#181818;stroke-width:0.5;" width="49" x="256" y="50"/><text fill="#000000" font-family="sans-serif" font-size="14" lengthAdjust="spacing" textLength="29" x="266" y="72.9951">web</text></g><!--entity main--><g id="elem_main"><rect fill="#F1F1F1" height="36.2969" rx="2.5" ry="2.5" style="stroke:#181818;stroke-width:0.5;" width="53" x="7" y="50"/><text fill="#000000" font-family="sans-serif" font-size="14" lengthAdjust="spacing" textLength="33" x="17" y="72.9951">main</text></g><!--link main to setup--><g id="link_main_setup"><path d="M60.21,68.15 C78.29,68.15 102.555,68.15 123.2338,68.15 C133.5731,68.15 143.0159,68.15 150.3408,68.15 C152.172,68.15 153.8708,68.15 155.4182,68.15 C155.8051,68.15 156.1824,68.15 156.55,68.15 C156.7339,68.15 156.9152,68.15 157.0941,68.15 C157.1836,68.15 151.2724,68.15 151.3606,68.15 " fill="none" id="main-to-setup" style="stroke:#181818;stroke-width:1.0;stroke-dasharray:7.0,7.0;"/><polygon fill="#181818" points="157.3606,68.15,148.3606,64.15,152.3606,68.15,148.3606,72.15,157.3606,68.15" style="stroke:#181818;stroke-width:1.0;"/><text fill="#000000" font-family="sans-serif" font-size="13" lengthAdjust="spacing" textLength="69" x="78.07" y="61.2169">assembles</text></g><!--link web to application--><g id="link_web_application"><path d="M273.62,86.54 C265.41,107.32 253.9353,136.33 245.6753,157.23 " fill="none" id="web-to-application" style="stroke:#181818;stroke-width:1.0;"/><polygon fill="#181818" points="243.47,162.81,250.498,155.9102,245.3078,158.16,243.058,152.9698,243.47,162.81" style="stroke:#181818;stroke-width:1.0;"/></g><!--link web to infrastructure--><g id="link_web_infrastructure"><path d="M295.19,86.54 C312.74,107.32 338.0888,137.3259 355.7388,158.2259 " fill="none" id="web-to-infrastructure" style="stroke:#181818;stroke-width:1.0;"/><polygon fill="#181818" points="359.61,162.81,356.8592,153.3531,356.384,158.99,350.7471,158.5147,359.61,162.81" style="stroke:#181818;stroke-width:1.0;"/><text fill="#000000" font-family="sans-serif" font-size="13" lengthAdjust="spacing" textLength="51" x="333.5" y="129.3669">optional</text></g><!--link application to domain--><g id="link_application_domain"><path d="M249.16,199.92 C261.61,217.12 276.9807,238.3605 289.4007,255.5105 " fill="none" id="application-to-domain" style="stroke:#181818;stroke-width:1.0;"/><polygon fill="#181818" points="292.92,260.37,290.8808,250.7346,289.9873,256.3204,284.4014,255.4269,292.92,260.37" style="stroke:#181818;stroke-width:1.0;"/></g><!--link infrastructure to domain--><g id="link_infrastructure_domain"><path d="M361.84,199.92 C349.39,217.12 334.0193,238.3605 321.5993,255.5105 " fill="none" id="infrastructure-to-domain" style="stroke:#181818;stroke-width:1.0;"/><polygon fill="#181818" points="318.08,260.37,326.5986,255.4269,321.0127,256.3204,320.1192,250.7346,318.08,260.37" style="stroke:#181818;stroke-width:1.0;"/></g><!--SRC=[NOv13iCW30JlVeN5FNb03_cBGzqKYG0oHZrK_Nj9b3G5- -ITNQs5hL9OFEDABe3yJbENCcRMal0DMEU2b99tbjJ5q14N7a9PfLWjmXsynxsa5LyymmTW8pYAMvuwJaVj3GtbpEliEHkeHXo6gIa_jRPs2yQq6SWR-FFltkEBBdAHBm00]--></g></svg>