<?xml version="1.0" encoding="us-ascii" standalone="no"?><svg xmlns="http://www.w3.org/2000/svg" xmlns:xlink="http://www.w3.org/1999/xlink" contentStyleType="text/css" height="310px" preserveAspectRatio="none" style="width:460px;height:310px;background:#FFFFFF;" version="1.1" viewBox="0 0 460 310" width="460px" zoomAndPan="magnify"><defs/><g><!--cluster setup--><g id="cluster_setup"><rect fill="none" height="297.89" rx="2.5" ry="2.5" style="stroke:#181818;stroke-width:1.0;" width="297" x="157.5" y="7"/><text fill="#000000" font-family="sans-serif" font-size="14" font-weight="bold" lengthAdjust="spacing" textLength="5" x="303.5" y="21.9951">&#160;</text></g><!--entity application--><g id="elem_application"><rect fill="#F1F1F1" height="36.2969" rx="2.5" ry="2.5" style="stroke:#181818;stroke-width:0.5;" width="94" x="189.5" y="147.3"/><text fill="#000000" font-family="sans-serif" font-size="14" lengthAdjust="spacing" textLength="74" x="199.5" y="170.2951">application</text></g><!--entity infrastructure--><g id="elem_infrastructure"><rect fill="#F1F1F1" height="36.2969" rx="2.5" ry="2.5" style="stroke:#181818;stroke-width:0.5;" width="112" x="318.5" y="147.3"/><text fill="#000000" font-family="sans-serif" font-size="14" lengthAdjust="spacing" textLength="92" x="328.5" y="170.2951">infrastructure</text></g><!--entity domain--><g id="elem_domain"><rect fill="#F1F1F1" height="36.2969" rx="2.5" ry="2.5" style="stroke:#181818;stroke-width:0.5;" width="71" x="270" y="244.59"/><text fill="#000000" font-family="sans-serif" font-size="14" lengthAdjust="spacing" textLength="51" x="280" y="267.5851">domain</text></g><!--entity web--><g id="elem_web"><rect fill="#F1F1F1" height="36.2969" rx="2.5" ry="2.5" style="stroke:#181818;stroke-width:0.5;" width="49" x="212" y="50"/><text fill="#000000" font-family="sans-serif" font-size="14" lengthAdjust="spacing" textLength="29" x="222" y="72.9951">web</text></g><!--entity main--><g id="elem_main"><rect fill="#F1F1F1" height="36.2969" rx="2.5" ry="2.5" style="stroke:#181818;stroke-width:0.5;" width="53" x="7" y="50"/><text fill="#000000" font-family="sans-serif" font-size="14" lengthAdjust="spacing" textLength="33" x="17" y="72.9951">main</text></g><!--link main to setup--><g id="link_main_setup"><path d="M60.21,68.15 C78.29,68.15 102.555,68.15 123.2338,68.15 C133.5731,68.15 143.0159,68.15 150.3408,68.15 C152.172,68.15 153.8708,68.15 155.4182,68.15 C155.8051,68.15 156.1824,68.15 156.55,68.15 C156.7339,68.15 156.9152,68.15 157.0941,68.15 C157.1836,68.15 151.2724,68.15 151.3606,68.15 " fill="none" id="main-to-setup" style="stroke:#181818;stroke-width:1.0;stroke-dasharray:7.0,7.0;"/><polygon fill="#181818" points="157.3606,68.15,148.3606,64.15,152.3606,68.15,148.3606,72.15,157.3606,68.15" style="stroke:#181818;stroke-width:1.0;"/><text fill="#000000" font-family="sans-serif" font-size="13" lengthAdjust="spacing" textLength="69" x="78.07" y="61.2169">assembles</text></g><!--link web to application--><g id="link_web_application"><path d="M236.5,86.63 C236.5,103.82 236.5,123.92 236.5,141.08 " fill="none" id="web-to-application" style="stroke:#181818;stroke-width:1.0;"/><polygon fill="#181818" points="236.5,147.08,240.5,138.08,236.5,142.08,232.5,138.08,236.5,147.08" style="stroke:#181818;stroke-width:1.0;"/></g><!--link application to domain--><g id="link_application_domain"><path d="M249.16,183.92 C261.61,201.12 276.9807,222.3605 289.4007,239.5105 " fill="none" id="application-to-domain" style="stroke:#181818;stroke-width:1.0;"/><polygon fill="#181818" points="292.92,244.37,290.8808,234.7346,289.9873,240.3204,284.4014,239.4269,292.92,244.37" style="stroke:#181818;stroke-width:1.0;"/></g><!--link infrastructure to domain--><g id="link_infrastructure_domain"><path d="M361.84,183.92 C349.39,201.12 341.0578,212.6415 328.6378,229.7915 " fill="none" id="infrastructure-to-domain" style="stroke:#181818;stroke-width:1.0;"/><polygon fill="none" points="318.08,244.37,333.4973,233.3107,323.7782,226.2722,318.08,244.37" style="stroke:#181818;stroke-width:1.0;"/></g><!--SRC=[NOun3iCm24LtJe6y9mVeaBiGbwQM7CS2h0vjxrutIfCwiF1vI0zXRvIco3XJI21xTBL9KTbAnYTWhGDIpZ5uih2a4mdf9gGcnLiHFi7hiahQvOD7U0Dy2VOIfhlrmwQze2DLdiV8wg0UOjSDZVnlNjbcQB-evFL37m00]--></g></svg>